%TF.GenerationSoftware,KiCad,Pcbnew,9.0.4*%
%TF.CreationDate,2025-08-19T16:45:46+02:00*%
%TF.ProjectId,XIAOC6_Occupancy_Battery,5849414f-4336-45f4-9f63-637570616e63,rev?*%
%TF.SameCoordinates,Original*%
%TF.FileFunction,Copper,L3,Inr*%
%TF.FilePolarity,Positive*%
%FSLAX46Y46*%
G04 Gerber Fmt 4.6, Leading zero omitted, Abs format (unit mm)*
G04 Created by KiCad (PCBNEW 9.0.4) date 2025-08-19 16:45:46*
%MOMM*%
%LPD*%
G01*
G04 APERTURE LIST*
%TA.AperFunction,ComponentPad*%
%ADD10R,1.500000X1.500000*%
%TD*%
%TA.AperFunction,ComponentPad*%
%ADD11C,1.524000*%
%TD*%
G04 APERTURE END LIST*
D10*
%TO.N,+3.3V*%
%TO.C,U3*%
X114292500Y-37500000D03*
%TD*%
D11*
%TO.N,+3.3V*%
%TO.C,U2*%
X101500000Y-54840000D03*
%TD*%
%TO.N,+3.3V*%
%TO.C,U4*%
X123876600Y-43762100D03*
%TD*%
%TO.N,+3.3V*%
%TO.C,U1*%
X109270000Y-39207000D03*
%TD*%
%TA.AperFunction,Conductor*%
%TO.N,+3.3V*%
G36*
X148442539Y-25520185D02*
G01*
X148488294Y-25572989D01*
X148499500Y-25624500D01*
X148499500Y-62875500D01*
X148479815Y-62942539D01*
X148427011Y-62988294D01*
X148375500Y-62999500D01*
X84124500Y-62999500D01*
X84057461Y-62979815D01*
X84011706Y-62927011D01*
X84000500Y-62875500D01*
X84000500Y-59878711D01*
X85649500Y-59878711D01*
X85649500Y-60121288D01*
X85681161Y-60361785D01*
X85743947Y-60596104D01*
X85822718Y-60786273D01*
X85836776Y-60820212D01*
X85958064Y-61030289D01*
X85958066Y-61030292D01*
X85958067Y-61030293D01*
X86105733Y-61222736D01*
X86105739Y-61222743D01*
X86277256Y-61394260D01*
X86277262Y-61394265D01*
X86469711Y-61541936D01*
X86679788Y-61663224D01*
X86903900Y-61756054D01*
X87138211Y-61818838D01*
X87318586Y-61842584D01*
X87378711Y-61850500D01*
X87378712Y-61850500D01*
X87621289Y-61850500D01*
X87669388Y-61844167D01*
X87861789Y-61818838D01*
X88096100Y-61756054D01*
X88320212Y-61663224D01*
X88530289Y-61541936D01*
X88722738Y-61394265D01*
X88894265Y-61222738D01*
X89041936Y-61030289D01*
X89113163Y-60906921D01*
X107130000Y-60906921D01*
X107130000Y-61093078D01*
X107166314Y-61275638D01*
X107166316Y-61275646D01*
X107237550Y-61447622D01*
X107237555Y-61447631D01*
X107340970Y-61602401D01*
X107340973Y-61602405D01*
X107472594Y-61734026D01*
X107472598Y-61734029D01*
X107627368Y-61837444D01*
X107627374Y-61837447D01*
X107627375Y-61837448D01*
X107799354Y-61908684D01*
X107981921Y-61944999D01*
X107981924Y-61945000D01*
X107981926Y-61945000D01*
X108168076Y-61945000D01*
X108168077Y-61944999D01*
X108350646Y-61908684D01*
X108522625Y-61837448D01*
X108677402Y-61734029D01*
X108809029Y-61602402D01*
X108912448Y-61447625D01*
X108983684Y-61275646D01*
X109020000Y-61093074D01*
X109020000Y-60906926D01*
X109020000Y-60906923D01*
X109019999Y-60906921D01*
X109630000Y-60906921D01*
X109630000Y-61093078D01*
X109666314Y-61275638D01*
X109666316Y-61275646D01*
X109737550Y-61447622D01*
X109737555Y-61447631D01*
X109840970Y-61602401D01*
X109840973Y-61602405D01*
X109972594Y-61734026D01*
X109972598Y-61734029D01*
X110127368Y-61837444D01*
X110127374Y-61837447D01*
X110127375Y-61837448D01*
X110299354Y-61908684D01*
X110481921Y-61944999D01*
X110481924Y-61945000D01*
X110481926Y-61945000D01*
X110668076Y-61945000D01*
X110668077Y-61944999D01*
X110850646Y-61908684D01*
X111022625Y-61837448D01*
X111177402Y-61734029D01*
X111309029Y-61602402D01*
X111412448Y-61447625D01*
X111483684Y-61275646D01*
X111520000Y-61093074D01*
X111520000Y-60906926D01*
X111520000Y-60906923D01*
X111519999Y-60906921D01*
X111504437Y-60828685D01*
X111483684Y-60724354D01*
X111412448Y-60552375D01*
X111412447Y-60552374D01*
X111412444Y-60552368D01*
X111309029Y-60397598D01*
X111309026Y-60397594D01*
X111177405Y-60265973D01*
X111177401Y-60265970D01*
X111022631Y-60162555D01*
X111022622Y-60162550D01*
X110850646Y-60091316D01*
X110850638Y-60091314D01*
X110668077Y-60055000D01*
X110668074Y-60055000D01*
X110481926Y-60055000D01*
X110481923Y-60055000D01*
X110299361Y-60091314D01*
X110299353Y-60091316D01*
X110127377Y-60162550D01*
X110127368Y-60162555D01*
X109972598Y-60265970D01*
X109972594Y-60265973D01*
X109840973Y-60397594D01*
X109840970Y-60397598D01*
X109737555Y-60552368D01*
X109737550Y-60552377D01*
X109666316Y-60724353D01*
X109666314Y-60724361D01*
X109630000Y-60906921D01*
X109019999Y-60906921D01*
X109004437Y-60828685D01*
X108983684Y-60724354D01*
X108912448Y-60552375D01*
X108912447Y-60552374D01*
X108912444Y-60552368D01*
X108809029Y-60397598D01*
X108809026Y-60397594D01*
X108677405Y-60265973D01*
X108677401Y-60265970D01*
X108522631Y-60162555D01*
X108522622Y-60162550D01*
X108350646Y-60091316D01*
X108350638Y-60091314D01*
X108168077Y-60055000D01*
X108168074Y-60055000D01*
X107981926Y-60055000D01*
X107981923Y-60055000D01*
X107799361Y-60091314D01*
X107799353Y-60091316D01*
X107627377Y-60162550D01*
X107627368Y-60162555D01*
X107472598Y-60265970D01*
X107472594Y-60265973D01*
X107340973Y-60397594D01*
X107340970Y-60397598D01*
X107237555Y-60552368D01*
X107237550Y-60552377D01*
X107166316Y-60724353D01*
X107166314Y-60724361D01*
X107130000Y-60906921D01*
X89113163Y-60906921D01*
X89163224Y-60820212D01*
X89256054Y-60596100D01*
X89318838Y-60361789D01*
X89350500Y-60121288D01*
X89350500Y-59878712D01*
X89343682Y-59826921D01*
X100555000Y-59826921D01*
X100555000Y-60013078D01*
X100591314Y-60195638D01*
X100591316Y-60195646D01*
X100662550Y-60367622D01*
X100662555Y-60367631D01*
X100765970Y-60522401D01*
X100765973Y-60522405D01*
X100897594Y-60654026D01*
X100897598Y-60654029D01*
X101052368Y-60757444D01*
X101052377Y-60757449D01*
X101091336Y-60773586D01*
X101224354Y-60828684D01*
X101406921Y-60864999D01*
X101406924Y-60865000D01*
X101406926Y-60865000D01*
X101593076Y-60865000D01*
X101593077Y-60864999D01*
X101775646Y-60828684D01*
X101947625Y-60757448D01*
X102102402Y-60654029D01*
X102234029Y-60522402D01*
X102337448Y-60367625D01*
X102408684Y-60195646D01*
X102445000Y-60013074D01*
X102445000Y-59826926D01*
X102445000Y-59826923D01*
X102444999Y-59826921D01*
X115795000Y-59826921D01*
X115795000Y-60013078D01*
X115831314Y-60195638D01*
X115831316Y-60195646D01*
X115902550Y-60367622D01*
X115902555Y-60367631D01*
X116005970Y-60522401D01*
X116005973Y-60522405D01*
X116137594Y-60654026D01*
X116137598Y-60654029D01*
X116292368Y-60757444D01*
X116292377Y-60757449D01*
X116331336Y-60773586D01*
X116464354Y-60828684D01*
X116646921Y-60864999D01*
X116646924Y-60865000D01*
X116646926Y-60865000D01*
X116833076Y-60865000D01*
X116833077Y-60864999D01*
X117015646Y-60828684D01*
X117187625Y-60757448D01*
X117342402Y-60654029D01*
X117474029Y-60522402D01*
X117577448Y-60367625D01*
X117639872Y-60216921D01*
X119555000Y-60216921D01*
X119555000Y-60403078D01*
X119591314Y-60585638D01*
X119591316Y-60585646D01*
X119662550Y-60757622D01*
X119662555Y-60757631D01*
X119765970Y-60912401D01*
X119765973Y-60912405D01*
X119897594Y-61044026D01*
X119897598Y-61044029D01*
X120052368Y-61147444D01*
X120052374Y-61147447D01*
X120052375Y-61147448D01*
X120224354Y-61218684D01*
X120406921Y-61254999D01*
X120406924Y-61255000D01*
X120406926Y-61255000D01*
X120593076Y-61255000D01*
X120593077Y-61254999D01*
X120775646Y-61218684D01*
X120947625Y-61147448D01*
X121102402Y-61044029D01*
X121234029Y-60912402D01*
X121337448Y-60757625D01*
X121408684Y-60585646D01*
X121445000Y-60403074D01*
X121445000Y-60216926D01*
X121445000Y-60216923D01*
X121444999Y-60216921D01*
X121440767Y-60195645D01*
X121408684Y-60034354D01*
X121352988Y-59899893D01*
X121344215Y-59878711D01*
X143649500Y-59878711D01*
X143649500Y-60121288D01*
X143681161Y-60361785D01*
X143743947Y-60596104D01*
X143822718Y-60786273D01*
X143836776Y-60820212D01*
X143958064Y-61030289D01*
X143958066Y-61030292D01*
X143958067Y-61030293D01*
X144105733Y-61222736D01*
X144105739Y-61222743D01*
X144277256Y-61394260D01*
X144277262Y-61394265D01*
X144469711Y-61541936D01*
X144679788Y-61663224D01*
X144903900Y-61756054D01*
X145138211Y-61818838D01*
X145318586Y-61842584D01*
X145378711Y-61850500D01*
X145378712Y-61850500D01*
X145621289Y-61850500D01*
X145669388Y-61844167D01*
X145861789Y-61818838D01*
X146096100Y-61756054D01*
X146320212Y-61663224D01*
X146530289Y-61541936D01*
X146722738Y-61394265D01*
X146894265Y-61222738D01*
X147041936Y-61030289D01*
X147163224Y-60820212D01*
X147256054Y-60596100D01*
X147318838Y-60361789D01*
X147350500Y-60121288D01*
X147350500Y-59878712D01*
X147348349Y-59862377D01*
X147327972Y-59707594D01*
X147318838Y-59638211D01*
X147256054Y-59403900D01*
X147163224Y-59179788D01*
X147041936Y-58969711D01*
X146894265Y-58777262D01*
X146894260Y-58777256D01*
X146722743Y-58605739D01*
X146722736Y-58605733D01*
X146530293Y-58458067D01*
X146530292Y-58458066D01*
X146530289Y-58458064D01*
X146320212Y-58336776D01*
X146320205Y-58336773D01*
X146096104Y-58243947D01*
X145978944Y-58212554D01*
X145861789Y-58181162D01*
X145861788Y-58181161D01*
X145861785Y-58181161D01*
X145621289Y-58149500D01*
X145621288Y-58149500D01*
X145378712Y-58149500D01*
X145378711Y-58149500D01*
X145138214Y-58181161D01*
X144903895Y-58243947D01*
X144679794Y-58336773D01*
X144679785Y-58336777D01*
X144469706Y-58458067D01*
X144277263Y-58605733D01*
X144277256Y-58605739D01*
X144105739Y-58777256D01*
X144105733Y-58777263D01*
X143958067Y-58969706D01*
X143836777Y-59179785D01*
X143836773Y-59179794D01*
X143743947Y-59403895D01*
X143681161Y-59638214D01*
X143649500Y-59878711D01*
X121344215Y-59878711D01*
X121337451Y-59862380D01*
X121337444Y-59862368D01*
X121234029Y-59707598D01*
X121234026Y-59707594D01*
X121102405Y-59575973D01*
X121102401Y-59575970D01*
X120947631Y-59472555D01*
X120947622Y-59472550D01*
X120775646Y-59401316D01*
X120775638Y-59401314D01*
X120593077Y-59365000D01*
X120593074Y-59365000D01*
X120406926Y-59365000D01*
X120406923Y-59365000D01*
X120224361Y-59401314D01*
X120224353Y-59401316D01*
X120052377Y-59472550D01*
X120052368Y-59472555D01*
X119897598Y-59575970D01*
X119897594Y-59575973D01*
X119765973Y-59707594D01*
X119765970Y-59707598D01*
X119662555Y-59862368D01*
X119662550Y-59862377D01*
X119591316Y-60034353D01*
X119591314Y-60034361D01*
X119555000Y-60216921D01*
X117639872Y-60216921D01*
X117648684Y-60195646D01*
X117669437Y-60091314D01*
X117685000Y-60013076D01*
X117685000Y-59826923D01*
X117684999Y-59826921D01*
X117648685Y-59644361D01*
X117648684Y-59644354D01*
X117577521Y-59472552D01*
X117577449Y-59472377D01*
X117577444Y-59472368D01*
X117474029Y-59317598D01*
X117474026Y-59317594D01*
X117342405Y-59185973D01*
X117342401Y-59185970D01*
X117187631Y-59082555D01*
X117187622Y-59082550D01*
X117015646Y-59011316D01*
X117015638Y-59011314D01*
X116833077Y-58975000D01*
X116833074Y-58975000D01*
X116646926Y-58975000D01*
X116646923Y-58975000D01*
X116464361Y-59011314D01*
X116464353Y-59011316D01*
X116292377Y-59082550D01*
X116292368Y-59082555D01*
X116137598Y-59185970D01*
X116137594Y-59185973D01*
X116005973Y-59317594D01*
X116005970Y-59317598D01*
X115902555Y-59472368D01*
X115902550Y-59472377D01*
X115831316Y-59644353D01*
X115831314Y-59644361D01*
X115795000Y-59826921D01*
X102444999Y-59826921D01*
X102408685Y-59644361D01*
X102408684Y-59644354D01*
X102337521Y-59472552D01*
X102337449Y-59472377D01*
X102337444Y-59472368D01*
X102234029Y-59317598D01*
X102234026Y-59317594D01*
X102102405Y-59185973D01*
X102102401Y-59185970D01*
X101947631Y-59082555D01*
X101947622Y-59082550D01*
X101775646Y-59011316D01*
X101775638Y-59011314D01*
X101593077Y-58975000D01*
X101593074Y-58975000D01*
X101406926Y-58975000D01*
X101406923Y-58975000D01*
X101224361Y-59011314D01*
X101224353Y-59011316D01*
X101052377Y-59082550D01*
X101052368Y-59082555D01*
X100897598Y-59185970D01*
X100897594Y-59185973D01*
X100765973Y-59317594D01*
X100765970Y-59317598D01*
X100662555Y-59472368D01*
X100662550Y-59472377D01*
X100591316Y-59644353D01*
X100591314Y-59644361D01*
X100555000Y-59826921D01*
X89343682Y-59826921D01*
X89318838Y-59638211D01*
X89256054Y-59403900D01*
X89163224Y-59179788D01*
X89041936Y-58969711D01*
X88894265Y-58777262D01*
X88894260Y-58777256D01*
X88722743Y-58605739D01*
X88722736Y-58605733D01*
X88530293Y-58458067D01*
X88530292Y-58458066D01*
X88530289Y-58458064D01*
X88320212Y-58336776D01*
X88320205Y-58336773D01*
X88096104Y-58243947D01*
X87978944Y-58212554D01*
X87861789Y-58181162D01*
X87861788Y-58181161D01*
X87861785Y-58181161D01*
X87621289Y-58149500D01*
X87621288Y-58149500D01*
X87378712Y-58149500D01*
X87378711Y-58149500D01*
X87138214Y-58181161D01*
X86903895Y-58243947D01*
X86679794Y-58336773D01*
X86679785Y-58336777D01*
X86469706Y-58458067D01*
X86277263Y-58605733D01*
X86277256Y-58605739D01*
X86105739Y-58777256D01*
X86105733Y-58777263D01*
X85958067Y-58969706D01*
X85836777Y-59179785D01*
X85836773Y-59179794D01*
X85743947Y-59403895D01*
X85681161Y-59638214D01*
X85649500Y-59878711D01*
X84000500Y-59878711D01*
X84000500Y-57286921D01*
X100555000Y-57286921D01*
X100555000Y-57473078D01*
X100591314Y-57655638D01*
X100591316Y-57655646D01*
X100662550Y-57827622D01*
X100662555Y-57827631D01*
X100765970Y-57982401D01*
X100765973Y-57982405D01*
X100897594Y-58114026D01*
X100897598Y-58114029D01*
X101052368Y-58217444D01*
X101052374Y-58217447D01*
X101052375Y-58217448D01*
X101224354Y-58288684D01*
X101406921Y-58324999D01*
X101406924Y-58325000D01*
X101406926Y-58325000D01*
X101593076Y-58325000D01*
X101593077Y-58324999D01*
X101683962Y-58306921D01*
X107130000Y-58306921D01*
X107130000Y-58493078D01*
X107166314Y-58675638D01*
X107166316Y-58675646D01*
X107237550Y-58847622D01*
X107237555Y-58847631D01*
X107340970Y-59002401D01*
X107340973Y-59002405D01*
X107472594Y-59134026D01*
X107472598Y-59134029D01*
X107627368Y-59237444D01*
X107627374Y-59237447D01*
X107627375Y-59237448D01*
X107799354Y-59308684D01*
X107981921Y-59344999D01*
X107981924Y-59345000D01*
X107981926Y-59345000D01*
X108168076Y-59345000D01*
X108168077Y-59344999D01*
X108350646Y-59308684D01*
X108522625Y-59237448D01*
X108677402Y-59134029D01*
X108809029Y-59002402D01*
X108912448Y-58847625D01*
X108983684Y-58675646D01*
X109020000Y-58493074D01*
X109020000Y-58306926D01*
X109020000Y-58306923D01*
X109019999Y-58306921D01*
X109630000Y-58306921D01*
X109630000Y-58493078D01*
X109666314Y-58675638D01*
X109666316Y-58675646D01*
X109737550Y-58847622D01*
X109737555Y-58847631D01*
X109840970Y-59002401D01*
X109840973Y-59002405D01*
X109972594Y-59134026D01*
X109972598Y-59134029D01*
X110127368Y-59237444D01*
X110127374Y-59237447D01*
X110127375Y-59237448D01*
X110299354Y-59308684D01*
X110481921Y-59344999D01*
X110481924Y-59345000D01*
X110481926Y-59345000D01*
X110668076Y-59345000D01*
X110668077Y-59344999D01*
X110850646Y-59308684D01*
X111022625Y-59237448D01*
X111177402Y-59134029D01*
X111309029Y-59002402D01*
X111412448Y-58847625D01*
X111483684Y-58675646D01*
X111520000Y-58493074D01*
X111520000Y-58306926D01*
X111520000Y-58306923D01*
X111519999Y-58306921D01*
X111502202Y-58217449D01*
X111483684Y-58124354D01*
X111412448Y-57952375D01*
X111412447Y-57952374D01*
X111412444Y-57952368D01*
X111309029Y-57797598D01*
X111309026Y-57797594D01*
X111177405Y-57665973D01*
X111177401Y-57665970D01*
X111022631Y-57562555D01*
X111022622Y-57562550D01*
X110850646Y-57491316D01*
X110850638Y-57491314D01*
X110668077Y-57455000D01*
X110668074Y-57455000D01*
X110481926Y-57455000D01*
X110481923Y-57455000D01*
X110299361Y-57491314D01*
X110299353Y-57491316D01*
X110127377Y-57562550D01*
X110127368Y-57562555D01*
X109972598Y-57665970D01*
X109972594Y-57665973D01*
X109840973Y-57797594D01*
X109840970Y-57797598D01*
X109737555Y-57952368D01*
X109737550Y-57952377D01*
X109666316Y-58124353D01*
X109666314Y-58124361D01*
X109630000Y-58306921D01*
X109019999Y-58306921D01*
X109002202Y-58217449D01*
X108983684Y-58124354D01*
X108912448Y-57952375D01*
X108912447Y-57952374D01*
X108912444Y-57952368D01*
X108809029Y-57797598D01*
X108809026Y-57797594D01*
X108677405Y-57665973D01*
X108677401Y-57665970D01*
X108522631Y-57562555D01*
X108522622Y-57562550D01*
X108350646Y-57491316D01*
X108350638Y-57491314D01*
X108168077Y-57455000D01*
X108168074Y-57455000D01*
X107981926Y-57455000D01*
X107981923Y-57455000D01*
X107799361Y-57491314D01*
X107799353Y-57491316D01*
X107627377Y-57562550D01*
X107627368Y-57562555D01*
X107472598Y-57665970D01*
X107472594Y-57665973D01*
X107340973Y-57797594D01*
X107340970Y-57797598D01*
X107237555Y-57952368D01*
X107237550Y-57952377D01*
X107166316Y-58124353D01*
X107166314Y-58124361D01*
X107130000Y-58306921D01*
X101683962Y-58306921D01*
X101775646Y-58288684D01*
X101947625Y-58217448D01*
X101947631Y-58217444D01*
X101977133Y-58197732D01*
X102049316Y-58149500D01*
X102102402Y-58114029D01*
X102234029Y-57982402D01*
X102337448Y-57827625D01*
X102408684Y-57655646D01*
X102445000Y-57473074D01*
X102445000Y-57286926D01*
X102445000Y-57286923D01*
X102444999Y-57286921D01*
X115795000Y-57286921D01*
X115795000Y-57473078D01*
X115831314Y-57655638D01*
X115831316Y-57655646D01*
X115902550Y-57827622D01*
X115902555Y-57827631D01*
X116005970Y-57982401D01*
X116005973Y-57982405D01*
X116137594Y-58114026D01*
X116137598Y-58114029D01*
X116292368Y-58217444D01*
X116292374Y-58217447D01*
X116292375Y-58217448D01*
X116464354Y-58288684D01*
X116646921Y-58324999D01*
X116646924Y-58325000D01*
X116646926Y-58325000D01*
X116833076Y-58325000D01*
X116833077Y-58324999D01*
X117015646Y-58288684D01*
X117187625Y-58217448D01*
X117342402Y-58114029D01*
X117474029Y-57982402D01*
X117577448Y-57827625D01*
X117648684Y-57655646D01*
X117685000Y-57473074D01*
X117685000Y-57286926D01*
X117685000Y-57286923D01*
X117684999Y-57286921D01*
X117648685Y-57104361D01*
X117648684Y-57104354D01*
X117577448Y-56932375D01*
X117577447Y-56932374D01*
X117577444Y-56932368D01*
X117474029Y-56777598D01*
X117474026Y-56777594D01*
X117342405Y-56645973D01*
X117342401Y-56645970D01*
X117187631Y-56542555D01*
X117187622Y-56542550D01*
X117015646Y-56471316D01*
X117015638Y-56471314D01*
X116833077Y-56435000D01*
X116833074Y-56435000D01*
X116646926Y-56435000D01*
X116646923Y-56435000D01*
X116464361Y-56471314D01*
X116464353Y-56471316D01*
X116292377Y-56542550D01*
X116292368Y-56542555D01*
X116137598Y-56645970D01*
X116137594Y-56645973D01*
X116005973Y-56777594D01*
X116005970Y-56777598D01*
X115902555Y-56932368D01*
X115902550Y-56932377D01*
X115831316Y-57104353D01*
X115831314Y-57104361D01*
X115795000Y-57286921D01*
X102444999Y-57286921D01*
X102408685Y-57104361D01*
X102408684Y-57104354D01*
X102337448Y-56932375D01*
X102337447Y-56932374D01*
X102337444Y-56932368D01*
X102234029Y-56777598D01*
X102234026Y-56777594D01*
X102102405Y-56645973D01*
X102102401Y-56645970D01*
X101947631Y-56542555D01*
X101947622Y-56542550D01*
X101775646Y-56471316D01*
X101775638Y-56471314D01*
X101593077Y-56435000D01*
X101593074Y-56435000D01*
X101406926Y-56435000D01*
X101406923Y-56435000D01*
X101224361Y-56471314D01*
X101224353Y-56471316D01*
X101052377Y-56542550D01*
X101052368Y-56542555D01*
X100897598Y-56645970D01*
X100897594Y-56645973D01*
X100765973Y-56777594D01*
X100765970Y-56777598D01*
X100662555Y-56932368D01*
X100662550Y-56932377D01*
X100591316Y-57104353D01*
X100591314Y-57104361D01*
X100555000Y-57286921D01*
X84000500Y-57286921D01*
X84000500Y-54740678D01*
X100238000Y-54740678D01*
X100238000Y-54939321D01*
X100269075Y-55135520D01*
X100269075Y-55135523D01*
X100330457Y-55324437D01*
X100420641Y-55501432D01*
X100447730Y-55538715D01*
X100447731Y-55538716D01*
X101062352Y-54924094D01*
X101085792Y-55011571D01*
X101144311Y-55112930D01*
X101227070Y-55195689D01*
X101328429Y-55254208D01*
X101415905Y-55277647D01*
X100801283Y-55892268D01*
X100801283Y-55892269D01*
X100838567Y-55919358D01*
X101015562Y-56009542D01*
X101204477Y-56070924D01*
X101400679Y-56102000D01*
X101599321Y-56102000D01*
X101795520Y-56070924D01*
X101795523Y-56070924D01*
X101984437Y-56009542D01*
X102161425Y-55919362D01*
X102198715Y-55892268D01*
X102194962Y-55888515D01*
X102113368Y-55806921D01*
X107130000Y-55806921D01*
X107130000Y-55993078D01*
X107166314Y-56175638D01*
X107166316Y-56175646D01*
X107237550Y-56347622D01*
X107237555Y-56347631D01*
X107340970Y-56502401D01*
X107340973Y-56502405D01*
X107472594Y-56634026D01*
X107472598Y-56634029D01*
X107627368Y-56737444D01*
X107627374Y-56737447D01*
X107627375Y-56737448D01*
X107799354Y-56808684D01*
X107981921Y-56844999D01*
X107981924Y-56845000D01*
X107981926Y-56845000D01*
X108168076Y-56845000D01*
X108168077Y-56844999D01*
X108350646Y-56808684D01*
X108522625Y-56737448D01*
X108677402Y-56634029D01*
X108809029Y-56502402D01*
X108912448Y-56347625D01*
X108983684Y-56175646D01*
X109020000Y-55993074D01*
X109020000Y-55806926D01*
X109020000Y-55806923D01*
X109019999Y-55806921D01*
X109630000Y-55806921D01*
X109630000Y-55993078D01*
X109666314Y-56175638D01*
X109666316Y-56175646D01*
X109737550Y-56347622D01*
X109737555Y-56347631D01*
X109840970Y-56502401D01*
X109840973Y-56502405D01*
X109972594Y-56634026D01*
X109972598Y-56634029D01*
X110127368Y-56737444D01*
X110127374Y-56737447D01*
X110127375Y-56737448D01*
X110299354Y-56808684D01*
X110481921Y-56844999D01*
X110481924Y-56845000D01*
X110481926Y-56845000D01*
X110668076Y-56845000D01*
X110668077Y-56844999D01*
X110850646Y-56808684D01*
X111022625Y-56737448D01*
X111177402Y-56634029D01*
X111309029Y-56502402D01*
X111412448Y-56347625D01*
X111483684Y-56175646D01*
X111520000Y-55993074D01*
X111520000Y-55806926D01*
X111520000Y-55806923D01*
X111519999Y-55806921D01*
X111483685Y-55624361D01*
X111483684Y-55624354D01*
X111412448Y-55452375D01*
X111412447Y-55452374D01*
X111412444Y-55452368D01*
X111309029Y-55297598D01*
X111309026Y-55297594D01*
X111177405Y-55165973D01*
X111177401Y-55165970D01*
X111022631Y-55062555D01*
X111022622Y-55062550D01*
X110850646Y-54991316D01*
X110850638Y-54991314D01*
X110668077Y-54955000D01*
X110668074Y-54955000D01*
X110481926Y-54955000D01*
X110481923Y-54955000D01*
X110299361Y-54991314D01*
X110299353Y-54991316D01*
X110127377Y-55062550D01*
X110127368Y-55062555D01*
X109972598Y-55165970D01*
X109972594Y-55165973D01*
X109840973Y-55297594D01*
X109840970Y-55297598D01*
X109737555Y-55452368D01*
X109737550Y-55452377D01*
X109666316Y-55624353D01*
X109666314Y-55624361D01*
X109630000Y-55806921D01*
X109019999Y-55806921D01*
X108983685Y-55624361D01*
X108983684Y-55624354D01*
X108912448Y-55452375D01*
X108912447Y-55452374D01*
X108912444Y-55452368D01*
X108809029Y-55297598D01*
X108809026Y-55297594D01*
X108677405Y-55165973D01*
X108677401Y-55165970D01*
X108522631Y-55062555D01*
X108522622Y-55062550D01*
X108350646Y-54991316D01*
X108350638Y-54991314D01*
X108168077Y-54955000D01*
X108168074Y-54955000D01*
X107981926Y-54955000D01*
X107981923Y-54955000D01*
X107799361Y-54991314D01*
X107799353Y-54991316D01*
X107627377Y-55062550D01*
X107627368Y-55062555D01*
X107472598Y-55165970D01*
X107472594Y-55165973D01*
X107340973Y-55297594D01*
X107340970Y-55297598D01*
X107237555Y-55452368D01*
X107237550Y-55452377D01*
X107166316Y-55624353D01*
X107166314Y-55624361D01*
X107130000Y-55806921D01*
X102113368Y-55806921D01*
X101584095Y-55277647D01*
X101671571Y-55254208D01*
X101772930Y-55195689D01*
X101855689Y-55112930D01*
X101914208Y-55011571D01*
X101937647Y-54924094D01*
X102552268Y-55538715D01*
X102579362Y-55501425D01*
X102669542Y-55324437D01*
X102730924Y-55135523D01*
X102730924Y-55135520D01*
X102762000Y-54939321D01*
X102762000Y-54746921D01*
X115795000Y-54746921D01*
X115795000Y-54933078D01*
X115831314Y-55115638D01*
X115831316Y-55115646D01*
X115902550Y-55287622D01*
X115902555Y-55287631D01*
X116005970Y-55442401D01*
X116005973Y-55442405D01*
X116137594Y-55574026D01*
X116137598Y-55574029D01*
X116292368Y-55677444D01*
X116292374Y-55677447D01*
X116292375Y-55677448D01*
X116464354Y-55748684D01*
X116646921Y-55784999D01*
X116646924Y-55785000D01*
X116646926Y-55785000D01*
X116833076Y-55785000D01*
X116833077Y-55784999D01*
X117015646Y-55748684D01*
X117187625Y-55677448D01*
X117342402Y-55574029D01*
X117474029Y-55442402D01*
X117577448Y-55287625D01*
X117648684Y-55115646D01*
X117685000Y-54933074D01*
X117685000Y-54746926D01*
X117685000Y-54746923D01*
X117684999Y-54746921D01*
X117666939Y-54656129D01*
X117648684Y-54564354D01*
X117591290Y-54425792D01*
X117577449Y-54392377D01*
X117577444Y-54392368D01*
X117474029Y-54237598D01*
X117474026Y-54237594D01*
X117342405Y-54105973D01*
X117342401Y-54105970D01*
X117187631Y-54002555D01*
X117187622Y-54002550D01*
X117030563Y-53937495D01*
X117015646Y-53931316D01*
X117015638Y-53931314D01*
X116833077Y-53895000D01*
X116833074Y-53895000D01*
X116646926Y-53895000D01*
X116646923Y-53895000D01*
X116464361Y-53931314D01*
X116464353Y-53931316D01*
X116292377Y-54002550D01*
X116292368Y-54002555D01*
X116137598Y-54105970D01*
X116137594Y-54105973D01*
X116005973Y-54237594D01*
X116005970Y-54237598D01*
X115902555Y-54392368D01*
X115902550Y-54392377D01*
X115831316Y-54564353D01*
X115831314Y-54564361D01*
X115795000Y-54746921D01*
X102762000Y-54746921D01*
X102762000Y-54740678D01*
X102730924Y-54544479D01*
X102730924Y-54544476D01*
X102669542Y-54355562D01*
X102579358Y-54178567D01*
X102552268Y-54141283D01*
X101937647Y-54755904D01*
X101914208Y-54668429D01*
X101855689Y-54567070D01*
X101772930Y-54484311D01*
X101671571Y-54425792D01*
X101584094Y-54402352D01*
X102198716Y-53787731D01*
X102198715Y-53787730D01*
X102161432Y-53760641D01*
X101984437Y-53670457D01*
X101795522Y-53609075D01*
X101599321Y-53578000D01*
X101400679Y-53578000D01*
X101204479Y-53609075D01*
X101204476Y-53609075D01*
X101015562Y-53670457D01*
X100838564Y-53760643D01*
X100801283Y-53787729D01*
X100801282Y-53787730D01*
X101415906Y-54402352D01*
X101328429Y-54425792D01*
X101227070Y-54484311D01*
X101144311Y-54567070D01*
X101085792Y-54668429D01*
X101062352Y-54755905D01*
X100447730Y-54141282D01*
X100447729Y-54141283D01*
X100420643Y-54178564D01*
X100330457Y-54355562D01*
X100269075Y-54544476D01*
X100269075Y-54544479D01*
X100238000Y-54740678D01*
X84000500Y-54740678D01*
X84000500Y-52913766D01*
X94974500Y-52913766D01*
X94974500Y-53086233D01*
X95008143Y-53255366D01*
X95008146Y-53255378D01*
X95074138Y-53414698D01*
X95074145Y-53414711D01*
X95169954Y-53558098D01*
X95169957Y-53558102D01*
X95291897Y-53680042D01*
X95291901Y-53680045D01*
X95435288Y-53775854D01*
X95435301Y-53775861D01*
X95563654Y-53829026D01*
X95594626Y-53841855D01*
X95763766Y-53875499D01*
X95763769Y-53875500D01*
X95763771Y-53875500D01*
X95936231Y-53875500D01*
X95936232Y-53875499D01*
X96105374Y-53841855D01*
X96264705Y-53775858D01*
X96408099Y-53680045D01*
X96530045Y-53558099D01*
X96625858Y-53414705D01*
X96670504Y-53306921D01*
X107230000Y-53306921D01*
X107230000Y-53493078D01*
X107266314Y-53675638D01*
X107266316Y-53675646D01*
X107337550Y-53847622D01*
X107337555Y-53847631D01*
X107440970Y-54002401D01*
X107440973Y-54002405D01*
X107572594Y-54134026D01*
X107572598Y-54134029D01*
X107727368Y-54237444D01*
X107727374Y-54237447D01*
X107727375Y-54237448D01*
X107899354Y-54308684D01*
X108081921Y-54344999D01*
X108081924Y-54345000D01*
X108081926Y-54345000D01*
X108268076Y-54345000D01*
X108268077Y-54344999D01*
X108450646Y-54308684D01*
X108622625Y-54237448D01*
X108777402Y-54134029D01*
X108909029Y-54002402D01*
X109012448Y-53847625D01*
X109083684Y-53675646D01*
X109120000Y-53493074D01*
X109120000Y-53306926D01*
X109120000Y-53306923D01*
X109119999Y-53306921D01*
X109730000Y-53306921D01*
X109730000Y-53493078D01*
X109766314Y-53675638D01*
X109766316Y-53675646D01*
X109837550Y-53847622D01*
X109837555Y-53847631D01*
X109940970Y-54002401D01*
X109940973Y-54002405D01*
X110072594Y-54134026D01*
X110072598Y-54134029D01*
X110227368Y-54237444D01*
X110227374Y-54237447D01*
X110227375Y-54237448D01*
X110399354Y-54308684D01*
X110581921Y-54344999D01*
X110581924Y-54345000D01*
X110581926Y-54345000D01*
X110768076Y-54345000D01*
X110768077Y-54344999D01*
X110950646Y-54308684D01*
X111122625Y-54237448D01*
X111277402Y-54134029D01*
X111409029Y-54002402D01*
X111512448Y-53847625D01*
X111520154Y-53829021D01*
X122931600Y-53829021D01*
X122931600Y-54015178D01*
X122967914Y-54197738D01*
X122967916Y-54197746D01*
X123039150Y-54369722D01*
X123039155Y-54369731D01*
X123142570Y-54524501D01*
X123142573Y-54524505D01*
X123274194Y-54656126D01*
X123274198Y-54656129D01*
X123428968Y-54759544D01*
X123428974Y-54759547D01*
X123428975Y-54759548D01*
X123600954Y-54830784D01*
X123783521Y-54867099D01*
X123783524Y-54867100D01*
X123783526Y-54867100D01*
X123969676Y-54867100D01*
X123969677Y-54867099D01*
X124152246Y-54830784D01*
X124324225Y-54759548D01*
X124479002Y-54656129D01*
X124610629Y-54524502D01*
X124714048Y-54369725D01*
X124785284Y-54197746D01*
X124821600Y-54015174D01*
X124821600Y-53829026D01*
X124821600Y-53829023D01*
X124821599Y-53829021D01*
X124802278Y-53731888D01*
X124785284Y-53646454D01*
X124714048Y-53474475D01*
X124714047Y-53474474D01*
X124714044Y-53474468D01*
X124610629Y-53319698D01*
X124610626Y-53319694D01*
X124479005Y-53188073D01*
X124479001Y-53188070D01*
X124324231Y-53084655D01*
X124324222Y-53084650D01*
X124152246Y-53013416D01*
X124152238Y-53013414D01*
X123969677Y-52977100D01*
X123969674Y-52977100D01*
X123783526Y-52977100D01*
X123783523Y-52977100D01*
X123600961Y-53013414D01*
X123600953Y-53013416D01*
X123428977Y-53084650D01*
X123428968Y-53084655D01*
X123274198Y-53188070D01*
X123274194Y-53188073D01*
X123142573Y-53319694D01*
X123142570Y-53319698D01*
X123039155Y-53474468D01*
X123039150Y-53474477D01*
X122967916Y-53646453D01*
X122967914Y-53646461D01*
X122931600Y-53829021D01*
X111520154Y-53829021D01*
X111583684Y-53675646D01*
X111620000Y-53493074D01*
X111620000Y-53306926D01*
X111620000Y-53306923D01*
X111619999Y-53306921D01*
X111607682Y-53244999D01*
X111583684Y-53124354D01*
X111512448Y-52952375D01*
X111512447Y-52952374D01*
X111512444Y-52952368D01*
X111409029Y-52797598D01*
X111409026Y-52797594D01*
X111277405Y-52665973D01*
X111277401Y-52665970D01*
X111122631Y-52562555D01*
X111122622Y-52562550D01*
X110950646Y-52491316D01*
X110950638Y-52491314D01*
X110768077Y-52455000D01*
X110768074Y-52455000D01*
X110581926Y-52455000D01*
X110581923Y-52455000D01*
X110399361Y-52491314D01*
X110399353Y-52491316D01*
X110227377Y-52562550D01*
X110227368Y-52562555D01*
X110072598Y-52665970D01*
X110072594Y-52665973D01*
X109940973Y-52797594D01*
X109940970Y-52797598D01*
X109837555Y-52952368D01*
X109837550Y-52952377D01*
X109766316Y-53124353D01*
X109766314Y-53124361D01*
X109730000Y-53306921D01*
X109119999Y-53306921D01*
X109107682Y-53244999D01*
X109083684Y-53124354D01*
X109012448Y-52952375D01*
X109012447Y-52952374D01*
X109012444Y-52952368D01*
X108909029Y-52797598D01*
X108909026Y-52797594D01*
X108777405Y-52665973D01*
X108777401Y-52665970D01*
X108622631Y-52562555D01*
X108622622Y-52562550D01*
X108450646Y-52491316D01*
X108450638Y-52491314D01*
X108268077Y-52455000D01*
X108268074Y-52455000D01*
X108081926Y-52455000D01*
X108081923Y-52455000D01*
X107899361Y-52491314D01*
X107899353Y-52491316D01*
X107727377Y-52562550D01*
X107727368Y-52562555D01*
X107572598Y-52665970D01*
X107572594Y-52665973D01*
X107440973Y-52797594D01*
X107440970Y-52797598D01*
X107337555Y-52952368D01*
X107337550Y-52952377D01*
X107266316Y-53124353D01*
X107266314Y-53124361D01*
X107230000Y-53306921D01*
X96670504Y-53306921D01*
X96691855Y-53255374D01*
X96725500Y-53086229D01*
X96725500Y-52913771D01*
X96725500Y-52913768D01*
X96725499Y-52913766D01*
X96702391Y-52797594D01*
X96691855Y-52744626D01*
X96630676Y-52596926D01*
X96625861Y-52585301D01*
X96625854Y-52585288D01*
X96530045Y-52441901D01*
X96530042Y-52441897D01*
X96408102Y-52319957D01*
X96384125Y-52303936D01*
X96384123Y-52303934D01*
X96264711Y-52224145D01*
X96264698Y-52224138D01*
X96223132Y-52206921D01*
X100555000Y-52206921D01*
X100555000Y-52393078D01*
X100591314Y-52575638D01*
X100591316Y-52575646D01*
X100662550Y-52747622D01*
X100662555Y-52747631D01*
X100765970Y-52902401D01*
X100765973Y-52902405D01*
X100897594Y-53034026D01*
X100897598Y-53034029D01*
X101052368Y-53137444D01*
X101052377Y-53137449D01*
X101091336Y-53153586D01*
X101224354Y-53208684D01*
X101406921Y-53244999D01*
X101406924Y-53245000D01*
X101406926Y-53245000D01*
X101593076Y-53245000D01*
X101593077Y-53244999D01*
X101775646Y-53208684D01*
X101947625Y-53137448D01*
X102102402Y-53034029D01*
X102234029Y-52902402D01*
X102337448Y-52747625D01*
X102408684Y-52575646D01*
X102445000Y-52393074D01*
X102445000Y-52206926D01*
X102445000Y-52206923D01*
X102444999Y-52206921D01*
X115795000Y-52206921D01*
X115795000Y-52393078D01*
X115831314Y-52575638D01*
X115831316Y-52575646D01*
X115902550Y-52747622D01*
X115902555Y-52747631D01*
X116005970Y-52902401D01*
X116005973Y-52902405D01*
X116137594Y-53034026D01*
X116137598Y-53034029D01*
X116292368Y-53137444D01*
X116292377Y-53137449D01*
X116331336Y-53153586D01*
X116464354Y-53208684D01*
X116646921Y-53244999D01*
X116646924Y-53245000D01*
X116646926Y-53245000D01*
X116833076Y-53245000D01*
X116833077Y-53244999D01*
X117015646Y-53208684D01*
X117187625Y-53137448D01*
X117342402Y-53034029D01*
X117474029Y-52902402D01*
X117577448Y-52747625D01*
X117639872Y-52596921D01*
X119555000Y-52596921D01*
X119555000Y-52783078D01*
X119591314Y-52965638D01*
X119591316Y-52965646D01*
X119662550Y-53137622D01*
X119662555Y-53137631D01*
X119765970Y-53292401D01*
X119765973Y-53292405D01*
X119897594Y-53424026D01*
X119897598Y-53424029D01*
X120052368Y-53527444D01*
X120052374Y-53527447D01*
X120052375Y-53527448D01*
X120224354Y-53598684D01*
X120406921Y-53634999D01*
X120406924Y-53635000D01*
X120406926Y-53635000D01*
X120593076Y-53635000D01*
X120593077Y-53634999D01*
X120775646Y-53598684D01*
X120947625Y-53527448D01*
X121102402Y-53424029D01*
X121234029Y-53292402D01*
X121337448Y-53137625D01*
X121408684Y-52965646D01*
X121445000Y-52783074D01*
X121445000Y-52596926D01*
X121445000Y-52596923D01*
X121444999Y-52596921D01*
X121440767Y-52575645D01*
X121408684Y-52414354D01*
X121337448Y-52242375D01*
X121337447Y-52242374D01*
X121337444Y-52242368D01*
X121234029Y-52087598D01*
X121234026Y-52087594D01*
X121102405Y-51955973D01*
X121102401Y-51955970D01*
X120947631Y-51852555D01*
X120947622Y-51852550D01*
X120775646Y-51781316D01*
X120775638Y-51781314D01*
X120593077Y-51745000D01*
X120593074Y-51745000D01*
X120406926Y-51745000D01*
X120406923Y-51745000D01*
X120224361Y-51781314D01*
X120224353Y-51781316D01*
X120052377Y-51852550D01*
X120052368Y-51852555D01*
X119897598Y-51955970D01*
X119897594Y-51955973D01*
X119765973Y-52087594D01*
X119765970Y-52087598D01*
X119662555Y-52242368D01*
X119662550Y-52242377D01*
X119591316Y-52414353D01*
X119591314Y-52414361D01*
X119555000Y-52596921D01*
X117639872Y-52596921D01*
X117648684Y-52575646D01*
X117651761Y-52560172D01*
X117685000Y-52393076D01*
X117685000Y-52206923D01*
X117684999Y-52206921D01*
X117666939Y-52116129D01*
X117648684Y-52024354D01*
X117577521Y-51852552D01*
X117577449Y-51852377D01*
X117577444Y-51852368D01*
X117474029Y-51697598D01*
X117474026Y-51697594D01*
X117342405Y-51565973D01*
X117342401Y-51565970D01*
X117187631Y-51462555D01*
X117187622Y-51462550D01*
X117015646Y-51391316D01*
X117015638Y-51391314D01*
X116833077Y-51355000D01*
X116833074Y-51355000D01*
X116646926Y-51355000D01*
X116646923Y-51355000D01*
X116464361Y-51391314D01*
X116464353Y-51391316D01*
X116292377Y-51462550D01*
X116292368Y-51462555D01*
X116137598Y-51565970D01*
X116137594Y-51565973D01*
X116005973Y-51697594D01*
X116005970Y-51697598D01*
X115902555Y-51852368D01*
X115902550Y-51852377D01*
X115831316Y-52024353D01*
X115831314Y-52024361D01*
X115795000Y-52206921D01*
X102444999Y-52206921D01*
X102426939Y-52116129D01*
X102408684Y-52024354D01*
X102337521Y-51852552D01*
X102337449Y-51852377D01*
X102337444Y-51852368D01*
X102234029Y-51697598D01*
X102234026Y-51697594D01*
X102102405Y-51565973D01*
X102102401Y-51565970D01*
X101947631Y-51462555D01*
X101947622Y-51462550D01*
X101775646Y-51391316D01*
X101775638Y-51391314D01*
X101593077Y-51355000D01*
X101593074Y-51355000D01*
X101406926Y-51355000D01*
X101406923Y-51355000D01*
X101224361Y-51391314D01*
X101224353Y-51391316D01*
X101052377Y-51462550D01*
X101052368Y-51462555D01*
X100897598Y-51565970D01*
X100897594Y-51565973D01*
X100765973Y-51697594D01*
X100765970Y-51697598D01*
X100662555Y-51852368D01*
X100662550Y-51852377D01*
X100591316Y-52024353D01*
X100591314Y-52024361D01*
X100555000Y-52206921D01*
X96223132Y-52206921D01*
X96105378Y-52158146D01*
X96105366Y-52158143D01*
X95936232Y-52124500D01*
X95936229Y-52124500D01*
X95763771Y-52124500D01*
X95763768Y-52124500D01*
X95594633Y-52158143D01*
X95594621Y-52158146D01*
X95435301Y-52224138D01*
X95435288Y-52224145D01*
X95291901Y-52319954D01*
X95291897Y-52319957D01*
X95169957Y-52441897D01*
X95169954Y-52441901D01*
X95074145Y-52585288D01*
X95074138Y-52585301D01*
X95008146Y-52744621D01*
X95008143Y-52744633D01*
X94974500Y-52913766D01*
X84000500Y-52913766D01*
X84000500Y-50913766D01*
X94974500Y-50913766D01*
X94974500Y-51086233D01*
X95008143Y-51255366D01*
X95008146Y-51255378D01*
X95074138Y-51414698D01*
X95074145Y-51414711D01*
X95169954Y-51558098D01*
X95169957Y-51558102D01*
X95291897Y-51680042D01*
X95291901Y-51680045D01*
X95435288Y-51775854D01*
X95435301Y-51775861D01*
X95565356Y-51829731D01*
X95594626Y-51841855D01*
X95763766Y-51875499D01*
X95763769Y-51875500D01*
X95763771Y-51875500D01*
X95936231Y-51875500D01*
X95936232Y-51875499D01*
X96105374Y-51841855D01*
X96264705Y-51775858D01*
X96408099Y-51680045D01*
X96530045Y-51558099D01*
X96625858Y-51414705D01*
X96677918Y-51289021D01*
X122931600Y-51289021D01*
X122931600Y-51475178D01*
X122967914Y-51657738D01*
X122967916Y-51657746D01*
X123039150Y-51829722D01*
X123039155Y-51829731D01*
X123142570Y-51984501D01*
X123142573Y-51984505D01*
X123274194Y-52116126D01*
X123274198Y-52116129D01*
X123428968Y-52219544D01*
X123428974Y-52219547D01*
X123428975Y-52219548D01*
X123600954Y-52290784D01*
X123747601Y-52319954D01*
X123783521Y-52327099D01*
X123783524Y-52327100D01*
X123783526Y-52327100D01*
X123969676Y-52327100D01*
X123969677Y-52327099D01*
X124152246Y-52290784D01*
X124324225Y-52219548D01*
X124479002Y-52116129D01*
X124610629Y-51984502D01*
X124714048Y-51829725D01*
X124785284Y-51657746D01*
X124821600Y-51475174D01*
X124821600Y-51289026D01*
X124821600Y-51289023D01*
X124821599Y-51289021D01*
X124814832Y-51255000D01*
X124785284Y-51106454D01*
X124714048Y-50934475D01*
X124714047Y-50934474D01*
X124714044Y-50934468D01*
X124610629Y-50779698D01*
X124610626Y-50779694D01*
X124479005Y-50648073D01*
X124479001Y-50648070D01*
X124324231Y-50544655D01*
X124324222Y-50544650D01*
X124152246Y-50473416D01*
X124152238Y-50473414D01*
X123969677Y-50437100D01*
X123969674Y-50437100D01*
X123783526Y-50437100D01*
X123783523Y-50437100D01*
X123600961Y-50473414D01*
X123600953Y-50473416D01*
X123428977Y-50544650D01*
X123428968Y-50544655D01*
X123274198Y-50648070D01*
X123274194Y-50648073D01*
X123142573Y-50779694D01*
X123142570Y-50779698D01*
X123039155Y-50934468D01*
X123039150Y-50934477D01*
X122967916Y-51106453D01*
X122967914Y-51106461D01*
X122931600Y-51289021D01*
X96677918Y-51289021D01*
X96691855Y-51255374D01*
X96725500Y-51086229D01*
X96725500Y-50913771D01*
X96725500Y-50913768D01*
X96725499Y-50913766D01*
X96698830Y-50779694D01*
X96691855Y-50744626D01*
X96691853Y-50744621D01*
X96625861Y-50585301D01*
X96625854Y-50585288D01*
X96530045Y-50441901D01*
X96530042Y-50441897D01*
X96408102Y-50319957D01*
X96408098Y-50319954D01*
X96264711Y-50224145D01*
X96264698Y-50224138D01*
X96105378Y-50158146D01*
X96105366Y-50158143D01*
X95936232Y-50124500D01*
X95936229Y-50124500D01*
X95763771Y-50124500D01*
X95763768Y-50124500D01*
X95594633Y-50158143D01*
X95594621Y-50158146D01*
X95435301Y-50224138D01*
X95435288Y-50224145D01*
X95291901Y-50319954D01*
X95291897Y-50319957D01*
X95169957Y-50441897D01*
X95169954Y-50441901D01*
X95074145Y-50585288D01*
X95074138Y-50585301D01*
X95008146Y-50744621D01*
X95008143Y-50744633D01*
X94974500Y-50913766D01*
X84000500Y-50913766D01*
X84000500Y-49666921D01*
X100555000Y-49666921D01*
X100555000Y-49853078D01*
X100591314Y-50035638D01*
X100591316Y-50035646D01*
X100662550Y-50207622D01*
X100662555Y-50207631D01*
X100765970Y-50362401D01*
X100765973Y-50362405D01*
X100897594Y-50494026D01*
X100897598Y-50494029D01*
X101052368Y-50597444D01*
X101052374Y-50597447D01*
X101052375Y-50597448D01*
X101224354Y-50668684D01*
X101406921Y-50704999D01*
X101406924Y-50705000D01*
X101406926Y-50705000D01*
X101593076Y-50705000D01*
X101593077Y-50704999D01*
X101775646Y-50668684D01*
X101947625Y-50597448D01*
X102102402Y-50494029D01*
X102234029Y-50362402D01*
X102337448Y-50207625D01*
X102408684Y-50035646D01*
X102445000Y-49853074D01*
X102445000Y-49666926D01*
X102445000Y-49666923D01*
X102444999Y-49666921D01*
X115795000Y-49666921D01*
X115795000Y-49853078D01*
X115831314Y-50035638D01*
X115831316Y-50035646D01*
X115902550Y-50207622D01*
X115902555Y-50207631D01*
X116005970Y-50362401D01*
X116005973Y-50362405D01*
X116137594Y-50494026D01*
X116137598Y-50494029D01*
X116292368Y-50597444D01*
X116292374Y-50597447D01*
X116292375Y-50597448D01*
X116464354Y-50668684D01*
X116646921Y-50704999D01*
X116646924Y-50705000D01*
X116646926Y-50705000D01*
X116833076Y-50705000D01*
X116833077Y-50704999D01*
X117015646Y-50668684D01*
X117187625Y-50597448D01*
X117342402Y-50494029D01*
X117474029Y-50362402D01*
X117571237Y-50216921D01*
X119555000Y-50216921D01*
X119555000Y-50403078D01*
X119591314Y-50585638D01*
X119591316Y-50585646D01*
X119662550Y-50757622D01*
X119662555Y-50757631D01*
X119765970Y-50912401D01*
X119765973Y-50912405D01*
X119897594Y-51044026D01*
X119897598Y-51044029D01*
X120052368Y-51147444D01*
X120052374Y-51147447D01*
X120052375Y-51147448D01*
X120224354Y-51218684D01*
X120406921Y-51254999D01*
X120406924Y-51255000D01*
X120406926Y-51255000D01*
X120593076Y-51255000D01*
X120593077Y-51254999D01*
X120775646Y-51218684D01*
X120947625Y-51147448D01*
X121102402Y-51044029D01*
X121234029Y-50912402D01*
X121337448Y-50757625D01*
X121408684Y-50585646D01*
X121445000Y-50403074D01*
X121445000Y-50216926D01*
X121445000Y-50216923D01*
X121444999Y-50216921D01*
X121426615Y-50124500D01*
X121408684Y-50034354D01*
X121337448Y-49862375D01*
X121337447Y-49862374D01*
X121337444Y-49862368D01*
X121234029Y-49707598D01*
X121234026Y-49707594D01*
X121102405Y-49575973D01*
X121102401Y-49575970D01*
X120947631Y-49472555D01*
X120947622Y-49472550D01*
X120775646Y-49401316D01*
X120775638Y-49401314D01*
X120593077Y-49365000D01*
X120593074Y-49365000D01*
X120406926Y-49365000D01*
X120406923Y-49365000D01*
X120224361Y-49401314D01*
X120224353Y-49401316D01*
X120052377Y-49472550D01*
X120052368Y-49472555D01*
X119897598Y-49575970D01*
X119897594Y-49575973D01*
X119765973Y-49707594D01*
X119765970Y-49707598D01*
X119662555Y-49862368D01*
X119662550Y-49862377D01*
X119591316Y-50034353D01*
X119591314Y-50034361D01*
X119555000Y-50216921D01*
X117571237Y-50216921D01*
X117577448Y-50207625D01*
X117587473Y-50183421D01*
X117595775Y-50163381D01*
X117595775Y-50163379D01*
X117648682Y-50035650D01*
X117648684Y-50035646D01*
X117685000Y-49853074D01*
X117685000Y-49666926D01*
X117685000Y-49666923D01*
X117684999Y-49666921D01*
X117666939Y-49576129D01*
X117648684Y-49484354D01*
X117577448Y-49312375D01*
X117577447Y-49312374D01*
X117577444Y-49312368D01*
X117474029Y-49157598D01*
X117474026Y-49157594D01*
X117342405Y-49025973D01*
X117342401Y-49025970D01*
X117187631Y-48922555D01*
X117187622Y-48922550D01*
X117030563Y-48857495D01*
X117015646Y-48851316D01*
X117015638Y-48851314D01*
X116833077Y-48815000D01*
X116833074Y-48815000D01*
X116646926Y-48815000D01*
X116646923Y-48815000D01*
X116464361Y-48851314D01*
X116464353Y-48851316D01*
X116292377Y-48922550D01*
X116292368Y-48922555D01*
X116137598Y-49025970D01*
X116137594Y-49025973D01*
X116005973Y-49157594D01*
X116005970Y-49157598D01*
X115902555Y-49312368D01*
X115902550Y-49312377D01*
X115831316Y-49484353D01*
X115831314Y-49484361D01*
X115795000Y-49666921D01*
X102444999Y-49666921D01*
X102426939Y-49576129D01*
X102408684Y-49484354D01*
X102337448Y-49312375D01*
X102337447Y-49312374D01*
X102337444Y-49312368D01*
X102234029Y-49157598D01*
X102234026Y-49157594D01*
X102102405Y-49025973D01*
X102102401Y-49025970D01*
X101947631Y-48922555D01*
X101947622Y-48922550D01*
X101775646Y-48851316D01*
X101775638Y-48851314D01*
X101593077Y-48815000D01*
X101593074Y-48815000D01*
X101406926Y-48815000D01*
X101406923Y-48815000D01*
X101224361Y-48851314D01*
X101224353Y-48851316D01*
X101052377Y-48922550D01*
X101052368Y-48922555D01*
X100897598Y-49025970D01*
X100897594Y-49025973D01*
X100765973Y-49157594D01*
X100765970Y-49157598D01*
X100662555Y-49312368D01*
X100662550Y-49312377D01*
X100591316Y-49484353D01*
X100591314Y-49484361D01*
X100555000Y-49666921D01*
X84000500Y-49666921D01*
X84000500Y-48749021D01*
X122931600Y-48749021D01*
X122931600Y-48935178D01*
X122967914Y-49117738D01*
X122967916Y-49117746D01*
X123039150Y-49289722D01*
X123039155Y-49289731D01*
X123142570Y-49444501D01*
X123142573Y-49444505D01*
X123274194Y-49576126D01*
X123274198Y-49576129D01*
X123428968Y-49679544D01*
X123428974Y-49679547D01*
X123428975Y-49679548D01*
X123600954Y-49750784D01*
X123783521Y-49787099D01*
X123783524Y-49787100D01*
X123783526Y-49787100D01*
X123969676Y-49787100D01*
X123969677Y-49787099D01*
X124152246Y-49750784D01*
X124324225Y-49679548D01*
X124479002Y-49576129D01*
X124610629Y-49444502D01*
X124714048Y-49289725D01*
X124785284Y-49117746D01*
X124821600Y-48935174D01*
X124821600Y-48749026D01*
X124821600Y-48749023D01*
X124821599Y-48749021D01*
X124785285Y-48566461D01*
X124785284Y-48566454D01*
X124714048Y-48394475D01*
X124714047Y-48394474D01*
X124714044Y-48394468D01*
X124610629Y-48239698D01*
X124610626Y-48239694D01*
X124479005Y-48108073D01*
X124479001Y-48108070D01*
X124324231Y-48004655D01*
X124324222Y-48004650D01*
X124152246Y-47933416D01*
X124152238Y-47933414D01*
X123969677Y-47897100D01*
X123969674Y-47897100D01*
X123783526Y-47897100D01*
X123783523Y-47897100D01*
X123600961Y-47933414D01*
X123600953Y-47933416D01*
X123428977Y-48004650D01*
X123428968Y-48004655D01*
X123274198Y-48108070D01*
X123274194Y-48108073D01*
X123142573Y-48239694D01*
X123142570Y-48239698D01*
X123039155Y-48394468D01*
X123039150Y-48394477D01*
X122967916Y-48566453D01*
X122967914Y-48566461D01*
X122931600Y-48749021D01*
X84000500Y-48749021D01*
X84000500Y-47126921D01*
X100555000Y-47126921D01*
X100555000Y-47313078D01*
X100591314Y-47495638D01*
X100591316Y-47495646D01*
X100662550Y-47667622D01*
X100662555Y-47667631D01*
X100765970Y-47822401D01*
X100765973Y-47822405D01*
X100897594Y-47954026D01*
X100897598Y-47954029D01*
X101052368Y-48057444D01*
X101052374Y-48057447D01*
X101052375Y-48057448D01*
X101224354Y-48128684D01*
X101406921Y-48164999D01*
X101406924Y-48165000D01*
X101406926Y-48165000D01*
X101593076Y-48165000D01*
X101593077Y-48164999D01*
X101775646Y-48128684D01*
X101947625Y-48057448D01*
X102102402Y-47954029D01*
X102234029Y-47822402D01*
X102337448Y-47667625D01*
X102408684Y-47495646D01*
X102445000Y-47313074D01*
X102445000Y-47126926D01*
X102445000Y-47126923D01*
X102444999Y-47126921D01*
X102426939Y-47036129D01*
X102408684Y-46944354D01*
X102337448Y-46772375D01*
X102337447Y-46772374D01*
X102337444Y-46772368D01*
X102335678Y-46769725D01*
X102293713Y-46706921D01*
X107630000Y-46706921D01*
X107630000Y-46893078D01*
X107666314Y-47075638D01*
X107666316Y-47075646D01*
X107737550Y-47247622D01*
X107737555Y-47247631D01*
X107840970Y-47402401D01*
X107840973Y-47402405D01*
X107972594Y-47534026D01*
X107972598Y-47534029D01*
X108127368Y-47637444D01*
X108127374Y-47637447D01*
X108127375Y-47637448D01*
X108299354Y-47708684D01*
X108481921Y-47744999D01*
X108481924Y-47745000D01*
X108481926Y-47745000D01*
X108668076Y-47745000D01*
X108668077Y-47744999D01*
X108850646Y-47708684D01*
X109022625Y-47637448D01*
X109177402Y-47534029D01*
X109309029Y-47402402D01*
X109412448Y-47247625D01*
X109483684Y-47075646D01*
X109520000Y-46893074D01*
X109520000Y-46706926D01*
X109520000Y-46706923D01*
X109519999Y-46706921D01*
X110130000Y-46706921D01*
X110130000Y-46893078D01*
X110166314Y-47075638D01*
X110166316Y-47075646D01*
X110237550Y-47247622D01*
X110237555Y-47247631D01*
X110340970Y-47402401D01*
X110340973Y-47402405D01*
X110472594Y-47534026D01*
X110472598Y-47534029D01*
X110627368Y-47637444D01*
X110627374Y-47637447D01*
X110627375Y-47637448D01*
X110799354Y-47708684D01*
X110981921Y-47744999D01*
X110981924Y-47745000D01*
X110981926Y-47745000D01*
X111168076Y-47745000D01*
X111168077Y-47744999D01*
X111350646Y-47708684D01*
X111522625Y-47637448D01*
X111677402Y-47534029D01*
X111809029Y-47402402D01*
X111912448Y-47247625D01*
X111962445Y-47126921D01*
X115795000Y-47126921D01*
X115795000Y-47313078D01*
X115831314Y-47495638D01*
X115831316Y-47495646D01*
X115902550Y-47667622D01*
X115902555Y-47667631D01*
X116005970Y-47822401D01*
X116005973Y-47822405D01*
X116137594Y-47954026D01*
X116137598Y-47954029D01*
X116292368Y-48057444D01*
X116292374Y-48057447D01*
X116292375Y-48057448D01*
X116464354Y-48128684D01*
X116646921Y-48164999D01*
X116646924Y-48165000D01*
X116646926Y-48165000D01*
X116833076Y-48165000D01*
X116833077Y-48164999D01*
X117015646Y-48128684D01*
X117187625Y-48057448D01*
X117342402Y-47954029D01*
X117474029Y-47822402D01*
X117577448Y-47667625D01*
X117648684Y-47495646D01*
X117685000Y-47313074D01*
X117685000Y-47126926D01*
X117685000Y-47126923D01*
X117684999Y-47126921D01*
X117666939Y-47036129D01*
X117648684Y-46944354D01*
X117577448Y-46772375D01*
X117577447Y-46772374D01*
X117577444Y-46772368D01*
X117474029Y-46617598D01*
X117474026Y-46617594D01*
X117342405Y-46485973D01*
X117342401Y-46485970D01*
X117187631Y-46382555D01*
X117187622Y-46382550D01*
X117030563Y-46317495D01*
X117015646Y-46311316D01*
X117015638Y-46311314D01*
X116833077Y-46275000D01*
X116833074Y-46275000D01*
X116646926Y-46275000D01*
X116646923Y-46275000D01*
X116464361Y-46311314D01*
X116464353Y-46311316D01*
X116292377Y-46382550D01*
X116292368Y-46382555D01*
X116137598Y-46485970D01*
X116137594Y-46485973D01*
X116005973Y-46617594D01*
X116005970Y-46617598D01*
X115902555Y-46772368D01*
X115902550Y-46772377D01*
X115831316Y-46944353D01*
X115831314Y-46944361D01*
X115795000Y-47126921D01*
X111962445Y-47126921D01*
X111983684Y-47075646D01*
X112020000Y-46893074D01*
X112020000Y-46706926D01*
X112020000Y-46706923D01*
X112019999Y-46706921D01*
X112002231Y-46617598D01*
X111983684Y-46524354D01*
X111912448Y-46352375D01*
X111912447Y-46352374D01*
X111912444Y-46352368D01*
X111816662Y-46209021D01*
X122931600Y-46209021D01*
X122931600Y-46395178D01*
X122967914Y-46577738D01*
X122967916Y-46577746D01*
X123039150Y-46749722D01*
X123039155Y-46749731D01*
X123142570Y-46904501D01*
X123142573Y-46904505D01*
X123274194Y-47036126D01*
X123274198Y-47036129D01*
X123428968Y-47139544D01*
X123428974Y-47139547D01*
X123428975Y-47139548D01*
X123600954Y-47210784D01*
X123783521Y-47247099D01*
X123783524Y-47247100D01*
X123783526Y-47247100D01*
X123969676Y-47247100D01*
X123969677Y-47247099D01*
X124152246Y-47210784D01*
X124324225Y-47139548D01*
X124479002Y-47036129D01*
X124610629Y-46904502D01*
X124714048Y-46749725D01*
X124785284Y-46577746D01*
X124821600Y-46395174D01*
X124821600Y-46209026D01*
X124821600Y-46209023D01*
X124821599Y-46209021D01*
X124785285Y-46026461D01*
X124785284Y-46026454D01*
X124729307Y-45891314D01*
X124714049Y-45854477D01*
X124714044Y-45854468D01*
X124610629Y-45699698D01*
X124610626Y-45699694D01*
X124479005Y-45568073D01*
X124479001Y-45568070D01*
X124324231Y-45464655D01*
X124324222Y-45464650D01*
X124152246Y-45393416D01*
X124152238Y-45393414D01*
X123969677Y-45357100D01*
X123969674Y-45357100D01*
X123783526Y-45357100D01*
X123783523Y-45357100D01*
X123600961Y-45393414D01*
X123600953Y-45393416D01*
X123428977Y-45464650D01*
X123428968Y-45464655D01*
X123274198Y-45568070D01*
X123274194Y-45568073D01*
X123142573Y-45699694D01*
X123142570Y-45699698D01*
X123039155Y-45854468D01*
X123039150Y-45854477D01*
X122967916Y-46026453D01*
X122967914Y-46026461D01*
X122931600Y-46209021D01*
X111816662Y-46209021D01*
X111809029Y-46197598D01*
X111809026Y-46197594D01*
X111677405Y-46065973D01*
X111677401Y-46065970D01*
X111522631Y-45962555D01*
X111522622Y-45962550D01*
X111350646Y-45891316D01*
X111350638Y-45891314D01*
X111168077Y-45855000D01*
X111168074Y-45855000D01*
X110981926Y-45855000D01*
X110981923Y-45855000D01*
X110799361Y-45891314D01*
X110799353Y-45891316D01*
X110627377Y-45962550D01*
X110627368Y-45962555D01*
X110472598Y-46065970D01*
X110472594Y-46065973D01*
X110340973Y-46197594D01*
X110340970Y-46197598D01*
X110237555Y-46352368D01*
X110237550Y-46352377D01*
X110166316Y-46524353D01*
X110166314Y-46524361D01*
X110130000Y-46706921D01*
X109519999Y-46706921D01*
X109502231Y-46617598D01*
X109483684Y-46524354D01*
X109412448Y-46352375D01*
X109412447Y-46352374D01*
X109412444Y-46352368D01*
X109309029Y-46197598D01*
X109309026Y-46197594D01*
X109177405Y-46065973D01*
X109177401Y-46065970D01*
X109022631Y-45962555D01*
X109022622Y-45962550D01*
X108850646Y-45891316D01*
X108850638Y-45891314D01*
X108668077Y-45855000D01*
X108668074Y-45855000D01*
X108481926Y-45855000D01*
X108481923Y-45855000D01*
X108299361Y-45891314D01*
X108299353Y-45891316D01*
X108127377Y-45962550D01*
X108127368Y-45962555D01*
X107972598Y-46065970D01*
X107972594Y-46065973D01*
X107840973Y-46197594D01*
X107840970Y-46197598D01*
X107737555Y-46352368D01*
X107737550Y-46352377D01*
X107666316Y-46524353D01*
X107666314Y-46524361D01*
X107630000Y-46706921D01*
X102293713Y-46706921D01*
X102234029Y-46617598D01*
X102234026Y-46617594D01*
X102102405Y-46485973D01*
X102102401Y-46485970D01*
X101947631Y-46382555D01*
X101947622Y-46382550D01*
X101775646Y-46311316D01*
X101775638Y-46311314D01*
X101593077Y-46275000D01*
X101593074Y-46275000D01*
X101406926Y-46275000D01*
X101406923Y-46275000D01*
X101224361Y-46311314D01*
X101224353Y-46311316D01*
X101052377Y-46382550D01*
X101052368Y-46382555D01*
X100897598Y-46485970D01*
X100897594Y-46485973D01*
X100765973Y-46617594D01*
X100765970Y-46617598D01*
X100662555Y-46772368D01*
X100662550Y-46772377D01*
X100591316Y-46944353D01*
X100591314Y-46944361D01*
X100555000Y-47126921D01*
X84000500Y-47126921D01*
X84000500Y-44586921D01*
X100555000Y-44586921D01*
X100555000Y-44773078D01*
X100591314Y-44955638D01*
X100591316Y-44955646D01*
X100662550Y-45127622D01*
X100662555Y-45127631D01*
X100765970Y-45282401D01*
X100765973Y-45282405D01*
X100897594Y-45414026D01*
X100897598Y-45414029D01*
X101052368Y-45517444D01*
X101052374Y-45517447D01*
X101052375Y-45517448D01*
X101224354Y-45588684D01*
X101406921Y-45624999D01*
X101406924Y-45625000D01*
X101406926Y-45625000D01*
X101593076Y-45625000D01*
X101593077Y-45624999D01*
X101775646Y-45588684D01*
X101947625Y-45517448D01*
X102102402Y-45414029D01*
X102234029Y-45282402D01*
X102337448Y-45127625D01*
X102408684Y-44955646D01*
X102445000Y-44773074D01*
X102445000Y-44586926D01*
X102445000Y-44586923D01*
X102444999Y-44586921D01*
X115795000Y-44586921D01*
X115795000Y-44773078D01*
X115831314Y-44955638D01*
X115831316Y-44955646D01*
X115902550Y-45127622D01*
X115902555Y-45127631D01*
X116005970Y-45282401D01*
X116005973Y-45282405D01*
X116137594Y-45414026D01*
X116137598Y-45414029D01*
X116292368Y-45517444D01*
X116292374Y-45517447D01*
X116292375Y-45517448D01*
X116464354Y-45588684D01*
X116646921Y-45624999D01*
X116646924Y-45625000D01*
X116646926Y-45625000D01*
X116833076Y-45625000D01*
X116833077Y-45624999D01*
X117015646Y-45588684D01*
X117187625Y-45517448D01*
X117342402Y-45414029D01*
X117474029Y-45282402D01*
X117577448Y-45127625D01*
X117648684Y-44955646D01*
X117685000Y-44773074D01*
X117685000Y-44586926D01*
X117685000Y-44586923D01*
X117684999Y-44586921D01*
X117659915Y-44460815D01*
X117648684Y-44404354D01*
X117577448Y-44232375D01*
X117577447Y-44232374D01*
X117577444Y-44232368D01*
X117474029Y-44077598D01*
X117474026Y-44077594D01*
X117342405Y-43945973D01*
X117342401Y-43945970D01*
X117187631Y-43842555D01*
X117187622Y-43842550D01*
X117015646Y-43771316D01*
X117015638Y-43771314D01*
X116833077Y-43735000D01*
X116833074Y-43735000D01*
X116646926Y-43735000D01*
X116646923Y-43735000D01*
X116464361Y-43771314D01*
X116464353Y-43771316D01*
X116292377Y-43842550D01*
X116292368Y-43842555D01*
X116137598Y-43945970D01*
X116137594Y-43945973D01*
X116005973Y-44077594D01*
X116005970Y-44077598D01*
X115902555Y-44232368D01*
X115902550Y-44232377D01*
X115831316Y-44404353D01*
X115831314Y-44404361D01*
X115795000Y-44586921D01*
X102444999Y-44586921D01*
X102419915Y-44460815D01*
X102408684Y-44404354D01*
X102337448Y-44232375D01*
X102337447Y-44232374D01*
X102337444Y-44232368D01*
X102234029Y-44077598D01*
X102234026Y-44077594D01*
X102102405Y-43945973D01*
X102102401Y-43945970D01*
X101947631Y-43842555D01*
X101947622Y-43842550D01*
X101775646Y-43771316D01*
X101775638Y-43771314D01*
X101593077Y-43735000D01*
X101593074Y-43735000D01*
X101406926Y-43735000D01*
X101406923Y-43735000D01*
X101224361Y-43771314D01*
X101224353Y-43771316D01*
X101052377Y-43842550D01*
X101052368Y-43842555D01*
X100897598Y-43945970D01*
X100897594Y-43945973D01*
X100765973Y-44077594D01*
X100765970Y-44077598D01*
X100662555Y-44232368D01*
X100662550Y-44232377D01*
X100591316Y-44404353D01*
X100591314Y-44404361D01*
X100555000Y-44586921D01*
X84000500Y-44586921D01*
X84000500Y-43662778D01*
X122614600Y-43662778D01*
X122614600Y-43861421D01*
X122645675Y-44057620D01*
X122645675Y-44057623D01*
X122707057Y-44246537D01*
X122797241Y-44423532D01*
X122824330Y-44460815D01*
X122824331Y-44460816D01*
X123438952Y-43846194D01*
X123462392Y-43933671D01*
X123520911Y-44035030D01*
X123603670Y-44117789D01*
X123705029Y-44176308D01*
X123792505Y-44199747D01*
X123177883Y-44814368D01*
X123177883Y-44814369D01*
X123215167Y-44841458D01*
X123392162Y-44931642D01*
X123581077Y-44993024D01*
X123777279Y-45024100D01*
X123975921Y-45024100D01*
X124172120Y-44993024D01*
X124172123Y-44993024D01*
X124361037Y-44931642D01*
X124538025Y-44841462D01*
X124575316Y-44814368D01*
X123960695Y-44199747D01*
X124048171Y-44176308D01*
X124149530Y-44117789D01*
X124232289Y-44035030D01*
X124290808Y-43933671D01*
X124314247Y-43846194D01*
X124928868Y-44460815D01*
X124955962Y-44423525D01*
X125046142Y-44246537D01*
X125107524Y-44057623D01*
X125107524Y-44057620D01*
X125138600Y-43861421D01*
X125138600Y-43662778D01*
X125107524Y-43466579D01*
X125107524Y-43466576D01*
X125046142Y-43277662D01*
X124955958Y-43100667D01*
X124928868Y-43063383D01*
X124314247Y-43678004D01*
X124290808Y-43590529D01*
X124232289Y-43489170D01*
X124149530Y-43406411D01*
X124048171Y-43347892D01*
X123960694Y-43324452D01*
X124575316Y-42709831D01*
X124575315Y-42709830D01*
X124538032Y-42682741D01*
X124361037Y-42592557D01*
X124172122Y-42531175D01*
X123975921Y-42500100D01*
X123777279Y-42500100D01*
X123581079Y-42531175D01*
X123581076Y-42531175D01*
X123392162Y-42592557D01*
X123215164Y-42682743D01*
X123177883Y-42709829D01*
X123177882Y-42709830D01*
X123792506Y-43324452D01*
X123705029Y-43347892D01*
X123603670Y-43406411D01*
X123520911Y-43489170D01*
X123462392Y-43590529D01*
X123438952Y-43678005D01*
X122824330Y-43063382D01*
X122824329Y-43063383D01*
X122797243Y-43100664D01*
X122707057Y-43277662D01*
X122645675Y-43466576D01*
X122645675Y-43466579D01*
X122614600Y-43662778D01*
X84000500Y-43662778D01*
X84000500Y-42596921D01*
X119555000Y-42596921D01*
X119555000Y-42783078D01*
X119591314Y-42965638D01*
X119591316Y-42965646D01*
X119662550Y-43137622D01*
X119662555Y-43137631D01*
X119765970Y-43292401D01*
X119765973Y-43292405D01*
X119897594Y-43424026D01*
X119897598Y-43424029D01*
X120052368Y-43527444D01*
X120052374Y-43527447D01*
X120052375Y-43527448D01*
X120224354Y-43598684D01*
X120406921Y-43634999D01*
X120406924Y-43635000D01*
X120406926Y-43635000D01*
X120593076Y-43635000D01*
X120593077Y-43634999D01*
X120775646Y-43598684D01*
X120947625Y-43527448D01*
X121102402Y-43424029D01*
X121234029Y-43292402D01*
X121337448Y-43137625D01*
X121408684Y-42965646D01*
X121445000Y-42783074D01*
X121445000Y-42596926D01*
X121445000Y-42596923D01*
X121444999Y-42596921D01*
X121408685Y-42414361D01*
X121408684Y-42414354D01*
X121337448Y-42242375D01*
X121337447Y-42242374D01*
X121337444Y-42242368D01*
X121234029Y-42087598D01*
X121234026Y-42087594D01*
X121102405Y-41955973D01*
X121102401Y-41955970D01*
X120947631Y-41852555D01*
X120947622Y-41852550D01*
X120775646Y-41781316D01*
X120775638Y-41781314D01*
X120593077Y-41745000D01*
X120593074Y-41745000D01*
X120406926Y-41745000D01*
X120406923Y-41745000D01*
X120224361Y-41781314D01*
X120224353Y-41781316D01*
X120052377Y-41852550D01*
X120052368Y-41852555D01*
X119897598Y-41955970D01*
X119897594Y-41955973D01*
X119765973Y-42087594D01*
X119765970Y-42087598D01*
X119662555Y-42242368D01*
X119662550Y-42242377D01*
X119591316Y-42414353D01*
X119591314Y-42414361D01*
X119555000Y-42596921D01*
X84000500Y-42596921D01*
X84000500Y-39107678D01*
X108008000Y-39107678D01*
X108008000Y-39306321D01*
X108039075Y-39502520D01*
X108039075Y-39502523D01*
X108100457Y-39691437D01*
X108190641Y-39868432D01*
X108217730Y-39905715D01*
X108217731Y-39905716D01*
X108832352Y-39291094D01*
X108855792Y-39378571D01*
X108914311Y-39479930D01*
X108997070Y-39562689D01*
X109098429Y-39621208D01*
X109185905Y-39644647D01*
X108571283Y-40259268D01*
X108571283Y-40259269D01*
X108608567Y-40286358D01*
X108785562Y-40376542D01*
X108974477Y-40437924D01*
X109170679Y-40469000D01*
X109369321Y-40469000D01*
X109565520Y-40437924D01*
X109565523Y-40437924D01*
X109754437Y-40376542D01*
X109931425Y-40286362D01*
X109968716Y-40259268D01*
X109354095Y-39644647D01*
X109441571Y-39621208D01*
X109542930Y-39562689D01*
X109625689Y-39479930D01*
X109684208Y-39378571D01*
X109707647Y-39291094D01*
X110322268Y-39905715D01*
X110349362Y-39868425D01*
X110439542Y-39691437D01*
X110500924Y-39502523D01*
X110500924Y-39502520D01*
X110532000Y-39306321D01*
X110532000Y-39107678D01*
X110500924Y-38911479D01*
X110500924Y-38911476D01*
X110439542Y-38722562D01*
X110349358Y-38545567D01*
X110322268Y-38508283D01*
X109707647Y-39122904D01*
X109684208Y-39035429D01*
X109625689Y-38934070D01*
X109542930Y-38851311D01*
X109441571Y-38792792D01*
X109354094Y-38769352D01*
X109968716Y-38154731D01*
X109968715Y-38154730D01*
X109931432Y-38127641D01*
X109754437Y-38037457D01*
X109565522Y-37976075D01*
X109369321Y-37945000D01*
X109170679Y-37945000D01*
X108974479Y-37976075D01*
X108974476Y-37976075D01*
X108785562Y-38037457D01*
X108608564Y-38127643D01*
X108571283Y-38154729D01*
X108571282Y-38154730D01*
X109185906Y-38769352D01*
X109098429Y-38792792D01*
X108997070Y-38851311D01*
X108914311Y-38934070D01*
X108855792Y-39035429D01*
X108832352Y-39122905D01*
X108217730Y-38508282D01*
X108217729Y-38508283D01*
X108190643Y-38545564D01*
X108100457Y-38722562D01*
X108039075Y-38911476D01*
X108039075Y-38911479D01*
X108008000Y-39107678D01*
X84000500Y-39107678D01*
X84000500Y-36573921D01*
X108325000Y-36573921D01*
X108325000Y-36760078D01*
X108361314Y-36942638D01*
X108361316Y-36942646D01*
X108432550Y-37114622D01*
X108432555Y-37114631D01*
X108535970Y-37269401D01*
X108535973Y-37269405D01*
X108667594Y-37401026D01*
X108667598Y-37401029D01*
X108822368Y-37504444D01*
X108822374Y-37504447D01*
X108822375Y-37504448D01*
X108994354Y-37575684D01*
X109176921Y-37611999D01*
X109176924Y-37612000D01*
X109176926Y-37612000D01*
X109363076Y-37612000D01*
X109363077Y-37611999D01*
X109413987Y-37601872D01*
X109538927Y-37577021D01*
X109542006Y-37576407D01*
X109545646Y-37575684D01*
X109717625Y-37504448D01*
X109872402Y-37401029D01*
X110004029Y-37269402D01*
X110107448Y-37114625D01*
X110178684Y-36942646D01*
X110215000Y-36760074D01*
X110215000Y-36702155D01*
X113042500Y-36702155D01*
X113042500Y-37250000D01*
X113976814Y-37250000D01*
X113972420Y-37254394D01*
X113919759Y-37345606D01*
X113892500Y-37447339D01*
X113892500Y-37552661D01*
X113919759Y-37654394D01*
X113972420Y-37745606D01*
X113976814Y-37750000D01*
X113042500Y-37750000D01*
X113042500Y-38297844D01*
X113048901Y-38357372D01*
X113048903Y-38357379D01*
X113099145Y-38492086D01*
X113099149Y-38492093D01*
X113185309Y-38607187D01*
X113185312Y-38607190D01*
X113300406Y-38693350D01*
X113300413Y-38693354D01*
X113435120Y-38743596D01*
X113435127Y-38743598D01*
X113494655Y-38749999D01*
X113494672Y-38750000D01*
X114042500Y-38750000D01*
X114042500Y-37815686D01*
X114046894Y-37820080D01*
X114138106Y-37872741D01*
X114239839Y-37900000D01*
X114345161Y-37900000D01*
X114446894Y-37872741D01*
X114538106Y-37820080D01*
X114542500Y-37815686D01*
X114542500Y-38750000D01*
X115090328Y-38750000D01*
X115090344Y-38749999D01*
X115149872Y-38743598D01*
X115149879Y-38743596D01*
X115284586Y-38693354D01*
X115284593Y-38693350D01*
X115399687Y-38607190D01*
X115399690Y-38607187D01*
X115485850Y-38492093D01*
X115485854Y-38492086D01*
X115536096Y-38357379D01*
X115536098Y-38357372D01*
X115542499Y-38297844D01*
X115542500Y-38297827D01*
X115542500Y-37750000D01*
X114608186Y-37750000D01*
X114612580Y-37745606D01*
X114665241Y-37654394D01*
X114692500Y-37552661D01*
X114692500Y-37447339D01*
X114665241Y-37345606D01*
X114612580Y-37254394D01*
X114608186Y-37250000D01*
X115542500Y-37250000D01*
X115542500Y-36702172D01*
X115542499Y-36702155D01*
X115536098Y-36642627D01*
X115536096Y-36642620D01*
X115485854Y-36507913D01*
X115485850Y-36507906D01*
X115399690Y-36392812D01*
X115399687Y-36392809D01*
X115284593Y-36306649D01*
X115284586Y-36306645D01*
X115149879Y-36256403D01*
X115149872Y-36256401D01*
X115090344Y-36250000D01*
X114542500Y-36250000D01*
X114542500Y-37184314D01*
X114538106Y-37179920D01*
X114446894Y-37127259D01*
X114345161Y-37100000D01*
X114239839Y-37100000D01*
X114138106Y-37127259D01*
X114046894Y-37179920D01*
X114042500Y-37184314D01*
X114042500Y-36250000D01*
X113494655Y-36250000D01*
X113435127Y-36256401D01*
X113435120Y-36256403D01*
X113300413Y-36306645D01*
X113300406Y-36306649D01*
X113185312Y-36392809D01*
X113185309Y-36392812D01*
X113099149Y-36507906D01*
X113099145Y-36507913D01*
X113048903Y-36642620D01*
X113048901Y-36642627D01*
X113042500Y-36702155D01*
X110215000Y-36702155D01*
X110215000Y-36573926D01*
X110215000Y-36573923D01*
X110214999Y-36573921D01*
X110178685Y-36391361D01*
X110178684Y-36391354D01*
X110123586Y-36258336D01*
X110107449Y-36219377D01*
X110107444Y-36219368D01*
X110004029Y-36064598D01*
X110004026Y-36064594D01*
X109872405Y-35932973D01*
X109872401Y-35932970D01*
X109717631Y-35829555D01*
X109717622Y-35829550D01*
X109545646Y-35758316D01*
X109545638Y-35758314D01*
X109363077Y-35722000D01*
X109363074Y-35722000D01*
X109176926Y-35722000D01*
X109176923Y-35722000D01*
X108994361Y-35758314D01*
X108994353Y-35758316D01*
X108822377Y-35829550D01*
X108822368Y-35829555D01*
X108667598Y-35932970D01*
X108667594Y-35932973D01*
X108535973Y-36064594D01*
X108535970Y-36064598D01*
X108432555Y-36219368D01*
X108432550Y-36219377D01*
X108361316Y-36391353D01*
X108361314Y-36391361D01*
X108325000Y-36573921D01*
X84000500Y-36573921D01*
X84000500Y-34033921D01*
X108325000Y-34033921D01*
X108325000Y-34220078D01*
X108361314Y-34402638D01*
X108361316Y-34402646D01*
X108432550Y-34574622D01*
X108432555Y-34574631D01*
X108535970Y-34729401D01*
X108535973Y-34729405D01*
X108667594Y-34861026D01*
X108667598Y-34861029D01*
X108822368Y-34964444D01*
X108822374Y-34964447D01*
X108822375Y-34964448D01*
X108994354Y-35035684D01*
X109176921Y-35071999D01*
X109176924Y-35072000D01*
X109176926Y-35072000D01*
X109363076Y-35072000D01*
X109363077Y-35071999D01*
X109545646Y-35035684D01*
X109717625Y-34964448D01*
X109857024Y-34871304D01*
X113392000Y-34871304D01*
X113392000Y-35048695D01*
X113426603Y-35222658D01*
X113426606Y-35222667D01*
X113494483Y-35386540D01*
X113494490Y-35386553D01*
X113593035Y-35534034D01*
X113593038Y-35534038D01*
X113718461Y-35659461D01*
X113718465Y-35659464D01*
X113865946Y-35758009D01*
X113865959Y-35758016D01*
X113988863Y-35808923D01*
X114029834Y-35825894D01*
X114029836Y-35825894D01*
X114029841Y-35825896D01*
X114203804Y-35860499D01*
X114203807Y-35860500D01*
X114203809Y-35860500D01*
X114381193Y-35860500D01*
X114381194Y-35860499D01*
X114439182Y-35848964D01*
X114555158Y-35825896D01*
X114555161Y-35825894D01*
X114555166Y-35825894D01*
X114695035Y-35767958D01*
X114719040Y-35758016D01*
X114719040Y-35758015D01*
X114719047Y-35758013D01*
X114866535Y-35659464D01*
X114991964Y-35534035D01*
X115090513Y-35386547D01*
X115158394Y-35222666D01*
X115193000Y-35048691D01*
X115193000Y-34871309D01*
X115193000Y-34871306D01*
X115192999Y-34871304D01*
X115158396Y-34697341D01*
X115158393Y-34697332D01*
X115090516Y-34533459D01*
X115090509Y-34533446D01*
X114991964Y-34385965D01*
X114991961Y-34385961D01*
X114866538Y-34260538D01*
X114866534Y-34260535D01*
X114719053Y-34161990D01*
X114719040Y-34161983D01*
X114555167Y-34094106D01*
X114555158Y-34094103D01*
X114381194Y-34059500D01*
X114381191Y-34059500D01*
X114203809Y-34059500D01*
X114203806Y-34059500D01*
X114029841Y-34094103D01*
X114029832Y-34094106D01*
X113865959Y-34161983D01*
X113865946Y-34161990D01*
X113718465Y-34260535D01*
X113718461Y-34260538D01*
X113593038Y-34385961D01*
X113593035Y-34385965D01*
X113494490Y-34533446D01*
X113494483Y-34533459D01*
X113426606Y-34697332D01*
X113426603Y-34697341D01*
X113392000Y-34871304D01*
X109857024Y-34871304D01*
X109872402Y-34861029D01*
X109886770Y-34846661D01*
X109955896Y-34777536D01*
X110004026Y-34729405D01*
X110004029Y-34729402D01*
X110107448Y-34574625D01*
X110178684Y-34402646D01*
X110215000Y-34220074D01*
X110215000Y-34033926D01*
X110215000Y-34033923D01*
X110214999Y-34033921D01*
X110178685Y-33851361D01*
X110178684Y-33851354D01*
X110107448Y-33679375D01*
X110037879Y-33575258D01*
X137842000Y-33575258D01*
X137842000Y-33804741D01*
X137866946Y-33994215D01*
X137871952Y-34032238D01*
X137922283Y-34220078D01*
X137931342Y-34253887D01*
X138019150Y-34465876D01*
X138019157Y-34465890D01*
X138133892Y-34664617D01*
X138273581Y-34846661D01*
X138273589Y-34846670D01*
X138435830Y-35008911D01*
X138435838Y-35008918D01*
X138617882Y-35148607D01*
X138617885Y-35148608D01*
X138617888Y-35148611D01*
X138816612Y-35263344D01*
X138816617Y-35263346D01*
X138816623Y-35263349D01*
X138907980Y-35301190D01*
X139028613Y-35351158D01*
X139250262Y-35410548D01*
X139477766Y-35440500D01*
X139477773Y-35440500D01*
X139707227Y-35440500D01*
X139707234Y-35440500D01*
X139934738Y-35410548D01*
X140156387Y-35351158D01*
X140368388Y-35263344D01*
X140567112Y-35148611D01*
X140749161Y-35008919D01*
X140749165Y-35008914D01*
X140749170Y-35008911D01*
X140911411Y-34846670D01*
X140911414Y-34846665D01*
X140911419Y-34846661D01*
X141051111Y-34664612D01*
X141165844Y-34465888D01*
X141253658Y-34253887D01*
X141313048Y-34032238D01*
X141343000Y-33804734D01*
X141343000Y-33575266D01*
X141313048Y-33347762D01*
X141253658Y-33126113D01*
X141165844Y-32914112D01*
X141051111Y-32715388D01*
X141051108Y-32715385D01*
X141051107Y-32715382D01*
X140911418Y-32533338D01*
X140911411Y-32533330D01*
X140749170Y-32371089D01*
X140749161Y-32371081D01*
X140567117Y-32231392D01*
X140368390Y-32116657D01*
X140368376Y-32116650D01*
X140156387Y-32028842D01*
X139934738Y-31969452D01*
X139896715Y-31964446D01*
X139707241Y-31939500D01*
X139707234Y-31939500D01*
X139477766Y-31939500D01*
X139477758Y-31939500D01*
X139261215Y-31968009D01*
X139250262Y-31969452D01*
X139160714Y-31993446D01*
X139028612Y-32028842D01*
X138816623Y-32116650D01*
X138816609Y-32116657D01*
X138617882Y-32231392D01*
X138435838Y-32371081D01*
X138273581Y-32533338D01*
X138133892Y-32715382D01*
X138019157Y-32914109D01*
X138019150Y-32914123D01*
X137931342Y-33126112D01*
X137871953Y-33347759D01*
X137871951Y-33347770D01*
X137842000Y-33575258D01*
X110037879Y-33575258D01*
X110004029Y-33524598D01*
X110004026Y-33524594D01*
X109872405Y-33392973D01*
X109872401Y-33392970D01*
X109717631Y-33289555D01*
X109717622Y-33289550D01*
X109545646Y-33218316D01*
X109545638Y-33218314D01*
X109363077Y-33182000D01*
X109363074Y-33182000D01*
X109176926Y-33182000D01*
X109176923Y-33182000D01*
X108994361Y-33218314D01*
X108994353Y-33218316D01*
X108822377Y-33289550D01*
X108822368Y-33289555D01*
X108667598Y-33392970D01*
X108667594Y-33392973D01*
X108535973Y-33524594D01*
X108535970Y-33524598D01*
X108432555Y-33679368D01*
X108432550Y-33679377D01*
X108361316Y-33851353D01*
X108361314Y-33851361D01*
X108325000Y-34033921D01*
X84000500Y-34033921D01*
X84000500Y-31493921D01*
X108325000Y-31493921D01*
X108325000Y-31680078D01*
X108361314Y-31862638D01*
X108361316Y-31862646D01*
X108432550Y-32034622D01*
X108432555Y-32034631D01*
X108535970Y-32189401D01*
X108535973Y-32189405D01*
X108667594Y-32321026D01*
X108667598Y-32321029D01*
X108822368Y-32424444D01*
X108822374Y-32424447D01*
X108822375Y-32424448D01*
X108994354Y-32495684D01*
X109176921Y-32531999D01*
X109176924Y-32532000D01*
X109176926Y-32532000D01*
X109363076Y-32532000D01*
X109363077Y-32531999D01*
X109545646Y-32495684D01*
X109717625Y-32424448D01*
X109857024Y-32331304D01*
X113392000Y-32331304D01*
X113392000Y-32508695D01*
X113426603Y-32682658D01*
X113426606Y-32682667D01*
X113494483Y-32846540D01*
X113494490Y-32846553D01*
X113593035Y-32994034D01*
X113593038Y-32994038D01*
X113718461Y-33119461D01*
X113718465Y-33119464D01*
X113865946Y-33218009D01*
X113865959Y-33218016D01*
X113988863Y-33268923D01*
X114029834Y-33285894D01*
X114029836Y-33285894D01*
X114029841Y-33285896D01*
X114203804Y-33320499D01*
X114203807Y-33320500D01*
X114203809Y-33320500D01*
X114381193Y-33320500D01*
X114381194Y-33320499D01*
X114439182Y-33308964D01*
X114555158Y-33285896D01*
X114555161Y-33285894D01*
X114555166Y-33285894D01*
X114695035Y-33227958D01*
X114719040Y-33218016D01*
X114719040Y-33218015D01*
X114719047Y-33218013D01*
X114866535Y-33119464D01*
X114991964Y-32994035D01*
X115090513Y-32846547D01*
X115158394Y-32682666D01*
X115193000Y-32508691D01*
X115193000Y-32331309D01*
X115193000Y-32331306D01*
X115192999Y-32331304D01*
X115158396Y-32157341D01*
X115158393Y-32157332D01*
X115090516Y-31993459D01*
X115090509Y-31993446D01*
X114991964Y-31845965D01*
X114991961Y-31845961D01*
X114866538Y-31720538D01*
X114866534Y-31720535D01*
X114719053Y-31621990D01*
X114719040Y-31621983D01*
X114555167Y-31554106D01*
X114555158Y-31554103D01*
X114381194Y-31519500D01*
X114381191Y-31519500D01*
X114203809Y-31519500D01*
X114203806Y-31519500D01*
X114029841Y-31554103D01*
X114029832Y-31554106D01*
X113865959Y-31621983D01*
X113865946Y-31621990D01*
X113718465Y-31720535D01*
X113718461Y-31720538D01*
X113593038Y-31845961D01*
X113593035Y-31845965D01*
X113494490Y-31993446D01*
X113494483Y-31993459D01*
X113426606Y-32157332D01*
X113426603Y-32157341D01*
X113392000Y-32331304D01*
X109857024Y-32331304D01*
X109872402Y-32321029D01*
X109872405Y-32321026D01*
X109955896Y-32237536D01*
X110004026Y-32189405D01*
X110004029Y-32189402D01*
X110107448Y-32034625D01*
X110178684Y-31862646D01*
X110215000Y-31680074D01*
X110215000Y-31493926D01*
X110215000Y-31493923D01*
X110214999Y-31493921D01*
X110178685Y-31311361D01*
X110178684Y-31311354D01*
X110107448Y-31139375D01*
X110107447Y-31139374D01*
X110107444Y-31139368D01*
X110004029Y-30984598D01*
X110004026Y-30984594D01*
X109872405Y-30852973D01*
X109872401Y-30852970D01*
X109717631Y-30749555D01*
X109717622Y-30749550D01*
X109545646Y-30678316D01*
X109545638Y-30678314D01*
X109363077Y-30642000D01*
X109363074Y-30642000D01*
X109176926Y-30642000D01*
X109176923Y-30642000D01*
X108994361Y-30678314D01*
X108994353Y-30678316D01*
X108822377Y-30749550D01*
X108822368Y-30749555D01*
X108667598Y-30852970D01*
X108667594Y-30852973D01*
X108535973Y-30984594D01*
X108535970Y-30984598D01*
X108432555Y-31139368D01*
X108432550Y-31139377D01*
X108361316Y-31311353D01*
X108361314Y-31311361D01*
X108325000Y-31493921D01*
X84000500Y-31493921D01*
X84000500Y-28378711D01*
X85649500Y-28378711D01*
X85649500Y-28621288D01*
X85681161Y-28861785D01*
X85743947Y-29096104D01*
X85762161Y-29140076D01*
X85836776Y-29320212D01*
X85958064Y-29530289D01*
X85958066Y-29530292D01*
X85958067Y-29530293D01*
X86105733Y-29722736D01*
X86105739Y-29722743D01*
X86277256Y-29894260D01*
X86277262Y-29894265D01*
X86469711Y-30041936D01*
X86679788Y-30163224D01*
X86903900Y-30256054D01*
X87138211Y-30318838D01*
X87318586Y-30342584D01*
X87378711Y-30350500D01*
X87378712Y-30350500D01*
X87621289Y-30350500D01*
X87669388Y-30344167D01*
X87861789Y-30318838D01*
X88096100Y-30256054D01*
X88320212Y-30163224D01*
X88530289Y-30041936D01*
X88722738Y-29894265D01*
X88894265Y-29722738D01*
X89041936Y-29530289D01*
X89163224Y-29320212D01*
X89256054Y-29096100D01*
X89294151Y-28953921D01*
X108325000Y-28953921D01*
X108325000Y-29140078D01*
X108361314Y-29322638D01*
X108361316Y-29322646D01*
X108432550Y-29494622D01*
X108432555Y-29494631D01*
X108535970Y-29649401D01*
X108535973Y-29649405D01*
X108667594Y-29781026D01*
X108667598Y-29781029D01*
X108822368Y-29884444D01*
X108822374Y-29884447D01*
X108822375Y-29884448D01*
X108994354Y-29955684D01*
X109176921Y-29991999D01*
X109176924Y-29992000D01*
X109176926Y-29992000D01*
X109363076Y-29992000D01*
X109363077Y-29991999D01*
X109545646Y-29955684D01*
X109717625Y-29884448D01*
X109857024Y-29791304D01*
X113392000Y-29791304D01*
X113392000Y-29968695D01*
X113426603Y-30142658D01*
X113426606Y-30142667D01*
X113494483Y-30306540D01*
X113494490Y-30306553D01*
X113593035Y-30454034D01*
X113593038Y-30454038D01*
X113718461Y-30579461D01*
X113718465Y-30579464D01*
X113865946Y-30678009D01*
X113865959Y-30678016D01*
X113988863Y-30728923D01*
X114029834Y-30745894D01*
X114029836Y-30745894D01*
X114029841Y-30745896D01*
X114203804Y-30780499D01*
X114203807Y-30780500D01*
X114203809Y-30780500D01*
X114381193Y-30780500D01*
X114381194Y-30780499D01*
X114439182Y-30768964D01*
X114555158Y-30745896D01*
X114555161Y-30745894D01*
X114555166Y-30745894D01*
X114695035Y-30687958D01*
X114719040Y-30678016D01*
X114719040Y-30678015D01*
X114719047Y-30678013D01*
X114866535Y-30579464D01*
X114991964Y-30454035D01*
X115090513Y-30306547D01*
X115158394Y-30142666D01*
X115193000Y-29968691D01*
X115193000Y-29791309D01*
X115193000Y-29791306D01*
X115192999Y-29791304D01*
X115158396Y-29617341D01*
X115158393Y-29617332D01*
X115090516Y-29453459D01*
X115090509Y-29453446D01*
X114991964Y-29305965D01*
X114991961Y-29305961D01*
X114866538Y-29180538D01*
X114866534Y-29180535D01*
X114719053Y-29081990D01*
X114719040Y-29081983D01*
X114555167Y-29014106D01*
X114555158Y-29014103D01*
X114381194Y-28979500D01*
X114381191Y-28979500D01*
X114203809Y-28979500D01*
X114203806Y-28979500D01*
X114029841Y-29014103D01*
X114029832Y-29014106D01*
X113865959Y-29081983D01*
X113865946Y-29081990D01*
X113718465Y-29180535D01*
X113718461Y-29180538D01*
X113593038Y-29305961D01*
X113593035Y-29305965D01*
X113494490Y-29453446D01*
X113494483Y-29453459D01*
X113426606Y-29617332D01*
X113426603Y-29617341D01*
X113392000Y-29791304D01*
X109857024Y-29791304D01*
X109872402Y-29781029D01*
X109872405Y-29781026D01*
X109955896Y-29697536D01*
X110004026Y-29649405D01*
X110004029Y-29649402D01*
X110107448Y-29494625D01*
X110178684Y-29322646D01*
X110215000Y-29140074D01*
X110215000Y-28953926D01*
X110215000Y-28953923D01*
X110214999Y-28953921D01*
X110178685Y-28771361D01*
X110178684Y-28771354D01*
X110107448Y-28599375D01*
X110107447Y-28599374D01*
X110107444Y-28599368D01*
X110004029Y-28444597D01*
X109938143Y-28378711D01*
X143649500Y-28378711D01*
X143649500Y-28621288D01*
X143681161Y-28861785D01*
X143743947Y-29096104D01*
X143762161Y-29140076D01*
X143836776Y-29320212D01*
X143958064Y-29530289D01*
X143958066Y-29530292D01*
X143958067Y-29530293D01*
X144105733Y-29722736D01*
X144105739Y-29722743D01*
X144277256Y-29894260D01*
X144277262Y-29894265D01*
X144469711Y-30041936D01*
X144679788Y-30163224D01*
X144903900Y-30256054D01*
X145138211Y-30318838D01*
X145318586Y-30342584D01*
X145378711Y-30350500D01*
X145378712Y-30350500D01*
X145621289Y-30350500D01*
X145669388Y-30344167D01*
X145861789Y-30318838D01*
X146096100Y-30256054D01*
X146320212Y-30163224D01*
X146530289Y-30041936D01*
X146722738Y-29894265D01*
X146894265Y-29722738D01*
X147041936Y-29530289D01*
X147163224Y-29320212D01*
X147256054Y-29096100D01*
X147318838Y-28861789D01*
X147350500Y-28621288D01*
X147350500Y-28378712D01*
X147318838Y-28138211D01*
X147256054Y-27903900D01*
X147163224Y-27679788D01*
X147041936Y-27469711D01*
X146894265Y-27277262D01*
X146894260Y-27277256D01*
X146722743Y-27105739D01*
X146722736Y-27105733D01*
X146530293Y-26958067D01*
X146530292Y-26958066D01*
X146530289Y-26958064D01*
X146320212Y-26836776D01*
X146320205Y-26836773D01*
X146096104Y-26743947D01*
X145861785Y-26681161D01*
X145621289Y-26649500D01*
X145621288Y-26649500D01*
X145378712Y-26649500D01*
X145378711Y-26649500D01*
X145138214Y-26681161D01*
X144903895Y-26743947D01*
X144679794Y-26836773D01*
X144679785Y-26836777D01*
X144469706Y-26958067D01*
X144277263Y-27105733D01*
X144277256Y-27105739D01*
X144105739Y-27277256D01*
X144105733Y-27277263D01*
X143958067Y-27469706D01*
X143836777Y-27679785D01*
X143836773Y-27679794D01*
X143743947Y-27903895D01*
X143681161Y-28138214D01*
X143649500Y-28378711D01*
X109938143Y-28378711D01*
X109872405Y-28312973D01*
X109872401Y-28312970D01*
X109717631Y-28209555D01*
X109717622Y-28209550D01*
X109545646Y-28138316D01*
X109545638Y-28138314D01*
X109363077Y-28102000D01*
X109363074Y-28102000D01*
X109176926Y-28102000D01*
X109176923Y-28102000D01*
X108994361Y-28138314D01*
X108994353Y-28138316D01*
X108822377Y-28209550D01*
X108822368Y-28209555D01*
X108667598Y-28312970D01*
X108667594Y-28312973D01*
X108535973Y-28444594D01*
X108535970Y-28444598D01*
X108432555Y-28599368D01*
X108432550Y-28599377D01*
X108361316Y-28771353D01*
X108361314Y-28771361D01*
X108325000Y-28953921D01*
X89294151Y-28953921D01*
X89318838Y-28861789D01*
X89350500Y-28621288D01*
X89350500Y-28378712D01*
X89318838Y-28138211D01*
X89256054Y-27903900D01*
X89163224Y-27679788D01*
X89041936Y-27469711D01*
X88894265Y-27277262D01*
X88894260Y-27277256D01*
X88722743Y-27105739D01*
X88722736Y-27105733D01*
X88530293Y-26958067D01*
X88530292Y-26958066D01*
X88530289Y-26958064D01*
X88320212Y-26836776D01*
X88320205Y-26836773D01*
X88096104Y-26743947D01*
X87861785Y-26681161D01*
X87621289Y-26649500D01*
X87621288Y-26649500D01*
X87378712Y-26649500D01*
X87378711Y-26649500D01*
X87138214Y-26681161D01*
X86903895Y-26743947D01*
X86679794Y-26836773D01*
X86679785Y-26836777D01*
X86469706Y-26958067D01*
X86277263Y-27105733D01*
X86277256Y-27105739D01*
X86105739Y-27277256D01*
X86105733Y-27277263D01*
X85958067Y-27469706D01*
X85836777Y-27679785D01*
X85836773Y-27679794D01*
X85743947Y-27903895D01*
X85681161Y-28138214D01*
X85649500Y-28378711D01*
X84000500Y-28378711D01*
X84000500Y-25624500D01*
X84020185Y-25557461D01*
X84072989Y-25511706D01*
X84124500Y-25500500D01*
X148375500Y-25500500D01*
X148442539Y-25520185D01*
G37*
%TD.AperFunction*%
%TD*%
M02*
