%TF.GenerationSoftware,KiCad,Pcbnew,9.0.4*%
%TF.CreationDate,2025-08-19T16:45:46+02:00*%
%TF.ProjectId,XIAOC6_Occupancy_Battery,5849414f-4336-45f4-9f63-637570616e63,rev?*%
%TF.SameCoordinates,Original*%
%TF.FileFunction,Copper,L1,Top*%
%TF.FilePolarity,Positive*%
%FSLAX46Y46*%
G04 Gerber Fmt 4.6, Leading zero omitted, Abs format (unit mm)*
G04 Created by KiCad (PCBNEW 9.0.4) date 2025-08-19 16:45:46*
%MOMM*%
%LPD*%
G01*
G04 APERTURE LIST*
G04 Aperture macros list*
%AMRoundRect*
0 Rectangle with rounded corners*
0 $1 Rounding radius*
0 $2 $3 $4 $5 $6 $7 $8 $9 X,Y pos of 4 corners*
0 Add a 4 corners polygon primitive as box body*
4,1,4,$2,$3,$4,$5,$6,$7,$8,$9,$2,$3,0*
0 Add four circle primitives for the rounded corners*
1,1,$1+$1,$2,$3*
1,1,$1+$1,$4,$5*
1,1,$1+$1,$6,$7*
1,1,$1+$1,$8,$9*
0 Add four rect primitives between the rounded corners*
20,1,$1+$1,$2,$3,$4,$5,0*
20,1,$1+$1,$4,$5,$6,$7,0*
20,1,$1+$1,$6,$7,$8,$9,0*
20,1,$1+$1,$8,$9,$2,$3,0*%
G04 Aperture macros list end*
%TA.AperFunction,ComponentPad*%
%ADD10R,1.500000X1.500000*%
%TD*%
%TA.AperFunction,ComponentPad*%
%ADD11C,1.500000*%
%TD*%
%TA.AperFunction,ComponentPad*%
%ADD12RoundRect,0.250000X-0.625000X0.350000X-0.625000X-0.350000X0.625000X-0.350000X0.625000X0.350000X0*%
%TD*%
%TA.AperFunction,ComponentPad*%
%ADD13O,1.750000X1.200000*%
%TD*%
%TA.AperFunction,SMDPad,CuDef*%
%ADD14RoundRect,0.152400X-1.063600X-0.609600X1.063600X-0.609600X1.063600X0.609600X-1.063600X0.609600X0*%
%TD*%
%TA.AperFunction,ComponentPad*%
%ADD15C,1.524000*%
%TD*%
%TA.AperFunction,SMDPad,CuDef*%
%ADD16RoundRect,0.152400X1.063600X0.609600X-1.063600X0.609600X-1.063600X-0.609600X1.063600X-0.609600X0*%
%TD*%
%TA.AperFunction,SMDPad,CuDef*%
%ADD17RoundRect,0.160000X-1.048000X-0.640000X1.048000X-0.640000X1.048000X0.640000X-1.048000X0.640000X0*%
%TD*%
%TA.AperFunction,SMDPad,CuDef*%
%ADD18RoundRect,0.160000X1.048000X0.640000X-1.048000X0.640000X-1.048000X-0.640000X1.048000X-0.640000X0*%
%TD*%
%TA.AperFunction,Conductor*%
%ADD19C,0.200000*%
%TD*%
G04 APERTURE END LIST*
D10*
%TO.P,U3,1,VDD*%
%TO.N,+3.3V*%
X114292500Y-37500000D03*
D11*
%TO.P,U3,2,VSS*%
%TO.N,-BATT*%
X114292500Y-34960000D03*
%TO.P,U3,3,SDA*%
%TO.N,SDA*%
X114292500Y-32420000D03*
%TO.P,U3,4,SCL*%
%TO.N,SCL*%
X114292500Y-29880000D03*
%TD*%
D12*
%TO.P,J1,1,Pin_1*%
%TO.N,-BATT*%
X95850000Y-51000000D03*
D13*
%TO.P,J1,2,Pin_2*%
%TO.N,+BATT*%
X95850000Y-53000000D03*
%TD*%
D14*
%TO.P,U2,1,GPIO0_A0_D0*%
%TO.N,Net-(U2-GPIO0_A0_D0)*%
X117575000Y-59920000D03*
D15*
X116740000Y-59920000D03*
D14*
%TO.P,U2,2,GPIO1_A1_D1*%
%TO.N,unconnected-(U2-GPIO1_A1_D1-Pad2)*%
X117575000Y-57380000D03*
D15*
X116740000Y-57380000D03*
D14*
%TO.P,U2,3,GPIO2_A2_D2*%
%TO.N,LD2410S_EXT*%
X117575000Y-54840000D03*
D15*
X116740000Y-54840000D03*
D14*
%TO.P,U2,4,GPIO21_D3*%
%TO.N,BH1750_ADDR*%
X117575000Y-52300000D03*
D15*
X116740000Y-52300000D03*
D14*
%TO.P,U2,5,GPIO22_D4_SDA*%
%TO.N,SDA*%
X117575000Y-49760000D03*
D15*
X116740000Y-49760000D03*
D14*
%TO.P,U2,6,GPIO23_D5_SCL*%
%TO.N,SCL*%
X117575000Y-47220000D03*
D15*
X116740000Y-47220000D03*
D14*
%TO.P,U2,7,GPIO16_D6_TX*%
%TO.N,TX*%
X117575000Y-44680000D03*
D15*
X116740000Y-44680000D03*
%TO.P,U2,8,GPIO17_D7_RX*%
%TO.N,RX*%
X101500000Y-44680000D03*
D16*
X100665000Y-44680000D03*
D15*
%TO.P,U2,9,GPIO19_D8_SCK*%
%TO.N,unconnected-(U2-GPIO19_D8_SCK-Pad9)*%
X101500000Y-47220000D03*
D16*
X100665000Y-47220000D03*
D15*
%TO.P,U2,10,GPIO20_D9_MISO*%
%TO.N,unconnected-(U2-GPIO20_D9_MISO-Pad10)*%
X101500000Y-49760000D03*
D16*
X100665000Y-49760000D03*
D15*
%TO.P,U2,11,GPIO18_D10_MOSI*%
%TO.N,unconnected-(U2-GPIO18_D10_MOSI-Pad11)*%
X101500000Y-52300000D03*
D16*
X100665000Y-52300000D03*
D15*
%TO.P,U2,12,3V3*%
%TO.N,+3.3V*%
X101500000Y-54840000D03*
D16*
X100665000Y-54840000D03*
D15*
%TO.P,U2,13,GND*%
%TO.N,-BATT*%
X101500000Y-57380000D03*
D16*
X100665000Y-57380000D03*
D15*
%TO.P,U2,14,5V*%
%TO.N,unconnected-(U2-5V-Pad14)*%
X101500000Y-59920000D03*
D16*
X100665000Y-59920000D03*
D17*
%TO.P,U2,15,BAT*%
%TO.N,+BATT*%
X112083000Y-46800000D03*
D15*
X111075000Y-46800000D03*
%TO.P,U2,16,GND*%
%TO.N,-BATT*%
X108575000Y-46800000D03*
D18*
X107567000Y-46800000D03*
D14*
%TO.P,U2,17,MTDI*%
%TO.N,unconnected-(U2-MTDI-Pad17)*%
X111575000Y-61000000D03*
D15*
X110575000Y-61000000D03*
%TO.P,U2,18,MTDO*%
%TO.N,unconnected-(U2-MTDO-Pad18)*%
X108075000Y-61000000D03*
D16*
X107075000Y-61000000D03*
D14*
%TO.P,U2,19,CHIP_EN*%
%TO.N,unconnected-(U2-CHIP_EN-Pad19)*%
X111410000Y-58400000D03*
D15*
X110575000Y-58400000D03*
%TO.P,U2,20,GND*%
%TO.N,unconnected-(U2-GND-Pad20)*%
X108075000Y-58400000D03*
D16*
X107075000Y-58400000D03*
D14*
%TO.P,U2,21,MTMS*%
%TO.N,unconnected-(U2-MTMS-Pad21)*%
X111675000Y-55900000D03*
D15*
X110575000Y-55900000D03*
%TO.P,U2,22,MTCK*%
%TO.N,unconnected-(U2-MTCK-Pad22)*%
X108075000Y-55900000D03*
D16*
X107075000Y-55900000D03*
D14*
%TO.P,U2,23,BOOT*%
%TO.N,unconnected-(U2-BOOT-Pad23)*%
X111510000Y-53400000D03*
D15*
X110675000Y-53400000D03*
%TO.P,U2,24,3V3_1*%
%TO.N,unconnected-(U2-3V3_1-Pad24)*%
X108175000Y-53400000D03*
D16*
X107175000Y-53400000D03*
%TD*%
D15*
%TO.P,R1,1*%
%TO.N,+BATT*%
X120500000Y-60310000D03*
%TO.P,R1,2*%
%TO.N,Net-(U2-GPIO0_A0_D0)*%
X120500000Y-52690000D03*
%TD*%
%TO.P,R2,1*%
%TO.N,Net-(U2-GPIO0_A0_D0)*%
X120500000Y-50310000D03*
%TO.P,R2,2*%
%TO.N,-BATT*%
X120500000Y-42690000D03*
%TD*%
%TO.P,U4,3V3,3V3*%
%TO.N,+3.3V*%
X123876600Y-43762100D03*
%TO.P,U4,GND,GND*%
%TO.N,-BATT*%
X123876600Y-46302100D03*
%TO.P,U4,OT2,OT2*%
%TO.N,LD2410S_EXT*%
X123876600Y-53922100D03*
%TO.P,U4,RX,RX*%
%TO.N,TX*%
X123876600Y-51382100D03*
%TO.P,U4,TX,TX*%
%TO.N,RX*%
X123876600Y-48842100D03*
%TD*%
%TO.P,U1,1,VCC*%
%TO.N,+3.3V*%
X109270000Y-39207000D03*
%TO.P,U1,2,GND*%
%TO.N,-BATT*%
X109270000Y-36667000D03*
%TO.P,U1,3,SCL*%
%TO.N,SCL*%
X109270000Y-34127000D03*
%TO.P,U1,4,SDA*%
%TO.N,SDA*%
X109270000Y-31587000D03*
%TO.P,U1,5,ADDR*%
%TO.N,BH1750_ADDR*%
X109270000Y-29047000D03*
%TD*%
D19*
%TO.N,unconnected-(U2-GPIO1_A1_D1-Pad2)*%
X116740000Y-57380000D02*
X117575000Y-57380000D01*
%TO.N,unconnected-(U2-GPIO19_D8_SCK-Pad9)*%
X100665000Y-47220000D02*
X101500000Y-47220000D01*
%TO.N,RX*%
X113240900Y-44680000D02*
X101500000Y-44680000D01*
X114510900Y-45950000D02*
X113240900Y-44680000D01*
X120984500Y-45950000D02*
X114510900Y-45950000D01*
X123876600Y-48842100D02*
X120984500Y-45950000D01*
X100665000Y-44680000D02*
X101500000Y-44680000D01*
%TO.N,unconnected-(U2-BOOT-Pad23)*%
X110675000Y-53400000D02*
X111510000Y-53400000D01*
%TO.N,unconnected-(U2-5V-Pad14)*%
X100665000Y-59920000D02*
X101500000Y-59920000D01*
%TO.N,SDA*%
X116740000Y-49760000D02*
X117575000Y-49760000D01*
X110103000Y-32420000D02*
X109270000Y-31587000D01*
X114292500Y-32420000D02*
X110103000Y-32420000D01*
%TO.N,BH1750_ADDR*%
X116740000Y-52300000D02*
X117575000Y-52300000D01*
%TO.N,unconnected-(U2-MTDO-Pad18)*%
X107075000Y-61000000D02*
X108075000Y-61000000D01*
%TO.N,unconnected-(U2-MTMS-Pad21)*%
X110575000Y-55900000D02*
X111675000Y-55900000D01*
%TO.N,SCL*%
X116740000Y-47220000D02*
X117575000Y-47220000D01*
%TO.N,unconnected-(U2-GPIO18_D10_MOSI-Pad11)*%
X101500000Y-52300000D02*
X100665000Y-52300000D01*
%TO.N,unconnected-(U2-CHIP_EN-Pad19)*%
X110575000Y-58400000D02*
X111410000Y-58400000D01*
%TO.N,unconnected-(U2-GND-Pad20)*%
X108075000Y-58400000D02*
X107075000Y-58400000D01*
%TO.N,LD2410S_EXT*%
X122958700Y-54840000D02*
X117575000Y-54840000D01*
X123876600Y-53922100D02*
X122958700Y-54840000D01*
X116740000Y-54840000D02*
X117575000Y-54840000D01*
%TO.N,TX*%
X116740000Y-44680000D02*
X117575000Y-44680000D01*
%TO.N,unconnected-(U2-GPIO20_D9_MISO-Pad10)*%
X101500000Y-49760000D02*
X100665000Y-49760000D01*
%TO.N,unconnected-(U2-MTCK-Pad22)*%
X107075000Y-55900000D02*
X108075000Y-55900000D01*
%TO.N,unconnected-(U2-MTDI-Pad17)*%
X111575000Y-61000000D02*
X110575000Y-61000000D01*
%TO.N,unconnected-(U2-3V3_1-Pad24)*%
X107175000Y-53400000D02*
X108175000Y-53400000D01*
%TO.N,Net-(U2-GPIO0_A0_D0)*%
X117575000Y-59920000D02*
X116740000Y-59920000D01*
%TO.N,+BATT*%
X112083000Y-46800000D02*
X111075000Y-46800000D01*
X96751700Y-52098300D02*
X95850000Y-52098300D01*
X97820000Y-51030000D02*
X96751700Y-52098300D01*
X106845000Y-51030000D02*
X97820000Y-51030000D01*
X111075000Y-46800000D02*
X106845000Y-51030000D01*
X95850000Y-53000000D02*
X95850000Y-52098300D01*
%TO.N,+3.3V*%
X101500000Y-54840000D02*
X100665000Y-54840000D01*
%TO.N,-BATT*%
X101500000Y-57380000D02*
X100665000Y-57380000D01*
X108575000Y-46800000D02*
X107567000Y-46800000D01*
%TD*%
M02*
