M48
; DRILL file {KiCad 9.0.4} date 2025-08-19T16:45:50+0200
; FORMAT={-:-/ absolute / metric / decimal}
; #@! TF.CreationDate,2025-08-19T16:45:50+02:00
; #@! TF.GenerationSoftware,Kicad,Pcbnew,9.0.4
; #@! TF.FileFunction,Plated,1,4,PTH
FMAT,2
METRIC
; #@! TA.AperFunction,Plated,PTH,ComponentDrill
T1C0.750
; #@! TA.AperFunction,Plated,PTH,ComponentDrill
T2C0.800
; #@! TA.AperFunction,Plated,PTH,ComponentDrill
T3C0.889
%
G90
G05
T1
X95.85Y-51.0
X95.85Y-53.0
T2
X114.292Y-29.88
X114.292Y-32.42
X114.292Y-34.96
X114.292Y-37.5
T3
X101.5Y-44.68
X101.5Y-47.22
X101.5Y-49.76
X101.5Y-52.3
X101.5Y-54.84
X101.5Y-57.38
X101.5Y-59.92
X108.075Y-55.9
X108.075Y-58.4
X108.075Y-61.0
X108.175Y-53.4
X108.575Y-46.8
X109.27Y-29.047
X109.27Y-31.587
X109.27Y-34.127
X109.27Y-36.667
X109.27Y-39.207
X110.575Y-55.9
X110.575Y-58.4
X110.575Y-61.0
X110.675Y-53.4
X111.075Y-46.8
X116.74Y-44.68
X116.74Y-47.22
X116.74Y-49.76
X116.74Y-52.3
X116.74Y-54.84
X116.74Y-57.38
X116.74Y-59.92
X120.5Y-42.69
X120.5Y-50.31
X120.5Y-52.69
X120.5Y-60.31
X123.877Y-43.762
X123.877Y-46.302
X123.877Y-48.842
X123.877Y-51.382
X123.877Y-53.922
M30
