%TF.GenerationSoftware,KiCad,Pcbnew,9.0.4*%
%TF.CreationDate,2025-08-19T16:45:46+02:00*%
%TF.ProjectId,XIAOC6_Occupancy_Battery,5849414f-4336-45f4-9f63-637570616e63,rev?*%
%TF.SameCoordinates,Original*%
%TF.FileFunction,Soldermask,Top*%
%TF.FilePolarity,Negative*%
%FSLAX46Y46*%
G04 Gerber Fmt 4.6, Leading zero omitted, Abs format (unit mm)*
G04 Created by KiCad (PCBNEW 9.0.4) date 2025-08-19 16:45:46*
%MOMM*%
%LPD*%
G01*
G04 APERTURE LIST*
G04 Aperture macros list*
%AMRoundRect*
0 Rectangle with rounded corners*
0 $1 Rounding radius*
0 $2 $3 $4 $5 $6 $7 $8 $9 X,Y pos of 4 corners*
0 Add a 4 corners polygon primitive as box body*
4,1,4,$2,$3,$4,$5,$6,$7,$8,$9,$2,$3,0*
0 Add four circle primitives for the rounded corners*
1,1,$1+$1,$2,$3*
1,1,$1+$1,$4,$5*
1,1,$1+$1,$6,$7*
1,1,$1+$1,$8,$9*
0 Add four rect primitives between the rounded corners*
20,1,$1+$1,$2,$3,$4,$5,0*
20,1,$1+$1,$4,$5,$6,$7,0*
20,1,$1+$1,$6,$7,$8,$9,0*
20,1,$1+$1,$8,$9,$2,$3,0*%
G04 Aperture macros list end*
%ADD10C,3.000000*%
%ADD11R,1.500000X1.500000*%
%ADD12C,1.500000*%
%ADD13RoundRect,0.250000X-0.625000X0.350000X-0.625000X-0.350000X0.625000X-0.350000X0.625000X0.350000X0*%
%ADD14O,1.750000X1.200000*%
%ADD15C,3.200000*%
%ADD16RoundRect,0.152400X-1.063600X-0.609600X1.063600X-0.609600X1.063600X0.609600X-1.063600X0.609600X0*%
%ADD17C,1.524000*%
%ADD18RoundRect,0.152400X1.063600X0.609600X-1.063600X0.609600X-1.063600X-0.609600X1.063600X-0.609600X0*%
%ADD19RoundRect,0.160000X-1.048000X-0.640000X1.048000X-0.640000X1.048000X0.640000X-1.048000X0.640000X0*%
%ADD20RoundRect,0.160000X1.048000X0.640000X-1.048000X0.640000X-1.048000X-0.640000X1.048000X-0.640000X0*%
G04 APERTURE END LIST*
D10*
%TO.C,U3*%
X139592500Y-33690000D03*
D11*
X114292500Y-37500000D03*
D12*
X114292500Y-34960000D03*
X114292500Y-32420000D03*
X114292500Y-29880000D03*
%TD*%
D13*
%TO.C,J1*%
X95850000Y-51000000D03*
D14*
X95850000Y-53000000D03*
%TD*%
D15*
%TO.C,H2*%
X145500000Y-60000000D03*
%TD*%
D16*
%TO.C,U2*%
X117575000Y-59920000D03*
D17*
X116740000Y-59920000D03*
D16*
X117575000Y-57380000D03*
D17*
X116740000Y-57380000D03*
D16*
X117575000Y-54840000D03*
D17*
X116740000Y-54840000D03*
D16*
X117575000Y-52300000D03*
D17*
X116740000Y-52300000D03*
D16*
X117575000Y-49760000D03*
D17*
X116740000Y-49760000D03*
D16*
X117575000Y-47220000D03*
D17*
X116740000Y-47220000D03*
D16*
X117575000Y-44680000D03*
D17*
X116740000Y-44680000D03*
X101500000Y-44680000D03*
D18*
X100665000Y-44680000D03*
D17*
X101500000Y-47220000D03*
D18*
X100665000Y-47220000D03*
D17*
X101500000Y-49760000D03*
D18*
X100665000Y-49760000D03*
D17*
X101500000Y-52300000D03*
D18*
X100665000Y-52300000D03*
D17*
X101500000Y-54840000D03*
D18*
X100665000Y-54840000D03*
D17*
X101500000Y-57380000D03*
D18*
X100665000Y-57380000D03*
D17*
X101500000Y-59920000D03*
D18*
X100665000Y-59920000D03*
D19*
X112083000Y-46800000D03*
D17*
X111075000Y-46800000D03*
X108575000Y-46800000D03*
D20*
X107567000Y-46800000D03*
D16*
X111575000Y-61000000D03*
D17*
X110575000Y-61000000D03*
X108075000Y-61000000D03*
D18*
X107075000Y-61000000D03*
D16*
X111410000Y-58400000D03*
D17*
X110575000Y-58400000D03*
X108075000Y-58400000D03*
D18*
X107075000Y-58400000D03*
D16*
X111675000Y-55900000D03*
D17*
X110575000Y-55900000D03*
X108075000Y-55900000D03*
D18*
X107075000Y-55900000D03*
D16*
X111510000Y-53400000D03*
D17*
X110675000Y-53400000D03*
X108175000Y-53400000D03*
D18*
X107175000Y-53400000D03*
%TD*%
D15*
%TO.C,H4*%
X87500000Y-28500000D03*
%TD*%
D17*
%TO.C,R1*%
X120500000Y-60310000D03*
X120500000Y-52690000D03*
%TD*%
D15*
%TO.C,H3*%
X87500000Y-60000000D03*
%TD*%
%TO.C,H1*%
X145500000Y-28500000D03*
%TD*%
D17*
%TO.C,R2*%
X120500000Y-50310000D03*
X120500000Y-42690000D03*
%TD*%
%TO.C,U4*%
X123876600Y-43762100D03*
X123876600Y-46302100D03*
X123876600Y-53922100D03*
X123876600Y-51382100D03*
X123876600Y-48842100D03*
%TD*%
%TO.C,U1*%
X109270000Y-39207000D03*
X109270000Y-36667000D03*
X109270000Y-34127000D03*
X109270000Y-31587000D03*
X109270000Y-29047000D03*
%TD*%
M02*
