%TF.GenerationSoftware,KiCad,Pcbnew,9.0.4*%
%TF.CreationDate,2025-08-19T16:45:46+02:00*%
%TF.ProjectId,XIAOC6_Occupancy_Battery,5849414f-4336-45f4-9f63-637570616e63,rev?*%
%TF.SameCoordinates,Original*%
%TF.FileFunction,Copper,L2,Inr*%
%TF.FilePolarity,Positive*%
%FSLAX46Y46*%
G04 Gerber Fmt 4.6, Leading zero omitted, Abs format (unit mm)*
G04 Created by KiCad (PCBNEW 9.0.4) date 2025-08-19 16:45:46*
%MOMM*%
%LPD*%
G01*
G04 APERTURE LIST*
G04 Aperture macros list*
%AMRoundRect*
0 Rectangle with rounded corners*
0 $1 Rounding radius*
0 $2 $3 $4 $5 $6 $7 $8 $9 X,Y pos of 4 corners*
0 Add a 4 corners polygon primitive as box body*
4,1,4,$2,$3,$4,$5,$6,$7,$8,$9,$2,$3,0*
0 Add four circle primitives for the rounded corners*
1,1,$1+$1,$2,$3*
1,1,$1+$1,$4,$5*
1,1,$1+$1,$6,$7*
1,1,$1+$1,$8,$9*
0 Add four rect primitives between the rounded corners*
20,1,$1+$1,$2,$3,$4,$5,0*
20,1,$1+$1,$4,$5,$6,$7,0*
20,1,$1+$1,$6,$7,$8,$9,0*
20,1,$1+$1,$8,$9,$2,$3,0*%
G04 Aperture macros list end*
%TA.AperFunction,ComponentPad*%
%ADD10C,1.500000*%
%TD*%
%TA.AperFunction,ComponentPad*%
%ADD11RoundRect,0.250000X-0.625000X0.350000X-0.625000X-0.350000X0.625000X-0.350000X0.625000X0.350000X0*%
%TD*%
%TA.AperFunction,ComponentPad*%
%ADD12C,1.524000*%
%TD*%
G04 APERTURE END LIST*
D10*
%TO.N,-BATT*%
%TO.C,U3*%
X114292500Y-34960000D03*
%TD*%
D11*
%TO.N,-BATT*%
%TO.C,J1*%
X95850000Y-51000000D03*
%TD*%
D12*
%TO.N,-BATT*%
%TO.C,U2*%
X101500000Y-57380000D03*
X108575000Y-46800000D03*
%TD*%
%TO.N,-BATT*%
%TO.C,R2*%
X120500000Y-42690000D03*
%TD*%
%TO.N,-BATT*%
%TO.C,U4*%
X123876600Y-46302100D03*
%TD*%
%TO.N,-BATT*%
%TO.C,U1*%
X109270000Y-36667000D03*
%TD*%
%TA.AperFunction,Conductor*%
%TO.N,-BATT*%
G36*
X148442539Y-25520185D02*
G01*
X148488294Y-25572989D01*
X148499500Y-25624500D01*
X148499500Y-62875500D01*
X148479815Y-62942539D01*
X148427011Y-62988294D01*
X148375500Y-62999500D01*
X84124500Y-62999500D01*
X84057461Y-62979815D01*
X84011706Y-62927011D01*
X84000500Y-62875500D01*
X84000500Y-59878711D01*
X85649500Y-59878711D01*
X85649500Y-60121288D01*
X85681161Y-60361785D01*
X85743947Y-60596104D01*
X85822718Y-60786273D01*
X85836776Y-60820212D01*
X85958064Y-61030289D01*
X85958066Y-61030292D01*
X85958067Y-61030293D01*
X86105733Y-61222736D01*
X86105739Y-61222743D01*
X86277256Y-61394260D01*
X86277262Y-61394265D01*
X86469711Y-61541936D01*
X86679788Y-61663224D01*
X86903900Y-61756054D01*
X87138211Y-61818838D01*
X87318586Y-61842584D01*
X87378711Y-61850500D01*
X87378712Y-61850500D01*
X87621289Y-61850500D01*
X87669388Y-61844167D01*
X87861789Y-61818838D01*
X88096100Y-61756054D01*
X88320212Y-61663224D01*
X88530289Y-61541936D01*
X88722738Y-61394265D01*
X88894265Y-61222738D01*
X89041936Y-61030289D01*
X89113163Y-60906921D01*
X107130000Y-60906921D01*
X107130000Y-61093078D01*
X107166314Y-61275638D01*
X107166316Y-61275646D01*
X107237550Y-61447622D01*
X107237555Y-61447631D01*
X107340970Y-61602401D01*
X107340973Y-61602405D01*
X107472594Y-61734026D01*
X107472598Y-61734029D01*
X107627368Y-61837444D01*
X107627374Y-61837447D01*
X107627375Y-61837448D01*
X107799354Y-61908684D01*
X107981921Y-61944999D01*
X107981924Y-61945000D01*
X107981926Y-61945000D01*
X108168076Y-61945000D01*
X108168077Y-61944999D01*
X108350646Y-61908684D01*
X108522625Y-61837448D01*
X108677402Y-61734029D01*
X108809029Y-61602402D01*
X108912448Y-61447625D01*
X108983684Y-61275646D01*
X109020000Y-61093074D01*
X109020000Y-60906926D01*
X109020000Y-60906923D01*
X109019999Y-60906921D01*
X109630000Y-60906921D01*
X109630000Y-61093078D01*
X109666314Y-61275638D01*
X109666316Y-61275646D01*
X109737550Y-61447622D01*
X109737555Y-61447631D01*
X109840970Y-61602401D01*
X109840973Y-61602405D01*
X109972594Y-61734026D01*
X109972598Y-61734029D01*
X110127368Y-61837444D01*
X110127374Y-61837447D01*
X110127375Y-61837448D01*
X110299354Y-61908684D01*
X110481921Y-61944999D01*
X110481924Y-61945000D01*
X110481926Y-61945000D01*
X110668076Y-61945000D01*
X110668077Y-61944999D01*
X110850646Y-61908684D01*
X111022625Y-61837448D01*
X111177402Y-61734029D01*
X111309029Y-61602402D01*
X111412448Y-61447625D01*
X111483684Y-61275646D01*
X111520000Y-61093074D01*
X111520000Y-60906926D01*
X111520000Y-60906923D01*
X111519999Y-60906921D01*
X111504437Y-60828685D01*
X111483684Y-60724354D01*
X111412448Y-60552375D01*
X111412447Y-60552374D01*
X111412444Y-60552368D01*
X111309029Y-60397598D01*
X111309026Y-60397594D01*
X111177405Y-60265973D01*
X111177401Y-60265970D01*
X111022631Y-60162555D01*
X111022622Y-60162550D01*
X110850646Y-60091316D01*
X110850638Y-60091314D01*
X110668077Y-60055000D01*
X110668074Y-60055000D01*
X110481926Y-60055000D01*
X110481923Y-60055000D01*
X110299361Y-60091314D01*
X110299353Y-60091316D01*
X110127377Y-60162550D01*
X110127368Y-60162555D01*
X109972598Y-60265970D01*
X109972594Y-60265973D01*
X109840973Y-60397594D01*
X109840970Y-60397598D01*
X109737555Y-60552368D01*
X109737550Y-60552377D01*
X109666316Y-60724353D01*
X109666314Y-60724361D01*
X109630000Y-60906921D01*
X109019999Y-60906921D01*
X109004437Y-60828685D01*
X108983684Y-60724354D01*
X108912448Y-60552375D01*
X108912447Y-60552374D01*
X108912444Y-60552368D01*
X108809029Y-60397598D01*
X108809026Y-60397594D01*
X108677405Y-60265973D01*
X108677401Y-60265970D01*
X108522631Y-60162555D01*
X108522622Y-60162550D01*
X108350646Y-60091316D01*
X108350638Y-60091314D01*
X108168077Y-60055000D01*
X108168074Y-60055000D01*
X107981926Y-60055000D01*
X107981923Y-60055000D01*
X107799361Y-60091314D01*
X107799353Y-60091316D01*
X107627377Y-60162550D01*
X107627368Y-60162555D01*
X107472598Y-60265970D01*
X107472594Y-60265973D01*
X107340973Y-60397594D01*
X107340970Y-60397598D01*
X107237555Y-60552368D01*
X107237550Y-60552377D01*
X107166316Y-60724353D01*
X107166314Y-60724361D01*
X107130000Y-60906921D01*
X89113163Y-60906921D01*
X89163224Y-60820212D01*
X89256054Y-60596100D01*
X89318838Y-60361789D01*
X89350500Y-60121288D01*
X89350500Y-59878712D01*
X89343682Y-59826921D01*
X100555000Y-59826921D01*
X100555000Y-60013078D01*
X100591314Y-60195638D01*
X100591316Y-60195646D01*
X100662550Y-60367622D01*
X100662555Y-60367631D01*
X100765970Y-60522401D01*
X100765973Y-60522405D01*
X100897594Y-60654026D01*
X100897598Y-60654029D01*
X101052368Y-60757444D01*
X101052377Y-60757449D01*
X101091336Y-60773586D01*
X101224354Y-60828684D01*
X101406921Y-60864999D01*
X101406924Y-60865000D01*
X101406926Y-60865000D01*
X101593076Y-60865000D01*
X101593077Y-60864999D01*
X101775646Y-60828684D01*
X101947625Y-60757448D01*
X102102402Y-60654029D01*
X102234029Y-60522402D01*
X102337448Y-60367625D01*
X102408684Y-60195646D01*
X102445000Y-60013074D01*
X102445000Y-59826926D01*
X102445000Y-59826923D01*
X102444999Y-59826921D01*
X115795000Y-59826921D01*
X115795000Y-60013078D01*
X115831314Y-60195638D01*
X115831316Y-60195646D01*
X115902550Y-60367622D01*
X115902555Y-60367631D01*
X116005970Y-60522401D01*
X116005973Y-60522405D01*
X116137594Y-60654026D01*
X116137598Y-60654029D01*
X116292368Y-60757444D01*
X116292377Y-60757449D01*
X116331336Y-60773586D01*
X116464354Y-60828684D01*
X116646921Y-60864999D01*
X116646924Y-60865000D01*
X116646926Y-60865000D01*
X116833076Y-60865000D01*
X116833077Y-60864999D01*
X117015646Y-60828684D01*
X117187625Y-60757448D01*
X117342402Y-60654029D01*
X117474029Y-60522402D01*
X117577448Y-60367625D01*
X117639872Y-60216921D01*
X119555000Y-60216921D01*
X119555000Y-60403078D01*
X119591314Y-60585638D01*
X119591316Y-60585646D01*
X119662550Y-60757622D01*
X119662555Y-60757631D01*
X119765970Y-60912401D01*
X119765973Y-60912405D01*
X119897594Y-61044026D01*
X119897598Y-61044029D01*
X120052368Y-61147444D01*
X120052374Y-61147447D01*
X120052375Y-61147448D01*
X120224354Y-61218684D01*
X120406921Y-61254999D01*
X120406924Y-61255000D01*
X120406926Y-61255000D01*
X120593076Y-61255000D01*
X120593077Y-61254999D01*
X120775646Y-61218684D01*
X120947625Y-61147448D01*
X121102402Y-61044029D01*
X121234029Y-60912402D01*
X121337448Y-60757625D01*
X121408684Y-60585646D01*
X121445000Y-60403074D01*
X121445000Y-60216926D01*
X121445000Y-60216923D01*
X121444999Y-60216921D01*
X121440767Y-60195645D01*
X121408684Y-60034354D01*
X121352988Y-59899893D01*
X121344215Y-59878711D01*
X143649500Y-59878711D01*
X143649500Y-60121288D01*
X143681161Y-60361785D01*
X143743947Y-60596104D01*
X143822718Y-60786273D01*
X143836776Y-60820212D01*
X143958064Y-61030289D01*
X143958066Y-61030292D01*
X143958067Y-61030293D01*
X144105733Y-61222736D01*
X144105739Y-61222743D01*
X144277256Y-61394260D01*
X144277262Y-61394265D01*
X144469711Y-61541936D01*
X144679788Y-61663224D01*
X144903900Y-61756054D01*
X145138211Y-61818838D01*
X145318586Y-61842584D01*
X145378711Y-61850500D01*
X145378712Y-61850500D01*
X145621289Y-61850500D01*
X145669388Y-61844167D01*
X145861789Y-61818838D01*
X146096100Y-61756054D01*
X146320212Y-61663224D01*
X146530289Y-61541936D01*
X146722738Y-61394265D01*
X146894265Y-61222738D01*
X147041936Y-61030289D01*
X147163224Y-60820212D01*
X147256054Y-60596100D01*
X147318838Y-60361789D01*
X147350500Y-60121288D01*
X147350500Y-59878712D01*
X147348349Y-59862377D01*
X147327972Y-59707594D01*
X147318838Y-59638211D01*
X147256054Y-59403900D01*
X147163224Y-59179788D01*
X147041936Y-58969711D01*
X146894265Y-58777262D01*
X146894260Y-58777256D01*
X146722743Y-58605739D01*
X146722736Y-58605733D01*
X146530293Y-58458067D01*
X146530292Y-58458066D01*
X146530289Y-58458064D01*
X146320212Y-58336776D01*
X146320205Y-58336773D01*
X146096104Y-58243947D01*
X145861785Y-58181161D01*
X145621289Y-58149500D01*
X145621288Y-58149500D01*
X145378712Y-58149500D01*
X145378711Y-58149500D01*
X145138214Y-58181161D01*
X144903895Y-58243947D01*
X144679794Y-58336773D01*
X144679785Y-58336777D01*
X144469706Y-58458067D01*
X144277263Y-58605733D01*
X144277256Y-58605739D01*
X144105739Y-58777256D01*
X144105733Y-58777263D01*
X143958067Y-58969706D01*
X143836777Y-59179785D01*
X143836773Y-59179794D01*
X143743947Y-59403895D01*
X143681161Y-59638214D01*
X143649500Y-59878711D01*
X121344215Y-59878711D01*
X121337451Y-59862380D01*
X121337444Y-59862368D01*
X121234029Y-59707598D01*
X121234026Y-59707594D01*
X121102405Y-59575973D01*
X121102401Y-59575970D01*
X120947631Y-59472555D01*
X120947622Y-59472550D01*
X120775646Y-59401316D01*
X120775638Y-59401314D01*
X120593077Y-59365000D01*
X120593074Y-59365000D01*
X120406926Y-59365000D01*
X120406923Y-59365000D01*
X120224361Y-59401314D01*
X120224353Y-59401316D01*
X120052377Y-59472550D01*
X120052368Y-59472555D01*
X119897598Y-59575970D01*
X119897594Y-59575973D01*
X119765973Y-59707594D01*
X119765970Y-59707598D01*
X119662555Y-59862368D01*
X119662550Y-59862377D01*
X119591316Y-60034353D01*
X119591314Y-60034361D01*
X119555000Y-60216921D01*
X117639872Y-60216921D01*
X117648684Y-60195646D01*
X117669437Y-60091314D01*
X117685000Y-60013076D01*
X117685000Y-59826923D01*
X117684999Y-59826921D01*
X117648685Y-59644361D01*
X117648684Y-59644354D01*
X117577521Y-59472552D01*
X117577449Y-59472377D01*
X117577444Y-59472368D01*
X117474029Y-59317598D01*
X117474026Y-59317594D01*
X117342405Y-59185973D01*
X117342401Y-59185970D01*
X117187631Y-59082555D01*
X117187622Y-59082550D01*
X117015646Y-59011316D01*
X117015638Y-59011314D01*
X116833077Y-58975000D01*
X116833074Y-58975000D01*
X116646926Y-58975000D01*
X116646923Y-58975000D01*
X116464361Y-59011314D01*
X116464353Y-59011316D01*
X116292377Y-59082550D01*
X116292368Y-59082555D01*
X116137598Y-59185970D01*
X116137594Y-59185973D01*
X116005973Y-59317594D01*
X116005970Y-59317598D01*
X115902555Y-59472368D01*
X115902550Y-59472377D01*
X115831316Y-59644353D01*
X115831314Y-59644361D01*
X115795000Y-59826921D01*
X102444999Y-59826921D01*
X102408685Y-59644361D01*
X102408684Y-59644354D01*
X102337521Y-59472552D01*
X102337449Y-59472377D01*
X102337444Y-59472368D01*
X102234029Y-59317598D01*
X102234026Y-59317594D01*
X102102405Y-59185973D01*
X102102401Y-59185970D01*
X101947631Y-59082555D01*
X101947622Y-59082550D01*
X101775646Y-59011316D01*
X101775638Y-59011314D01*
X101593077Y-58975000D01*
X101593074Y-58975000D01*
X101406926Y-58975000D01*
X101406923Y-58975000D01*
X101224361Y-59011314D01*
X101224353Y-59011316D01*
X101052377Y-59082550D01*
X101052368Y-59082555D01*
X100897598Y-59185970D01*
X100897594Y-59185973D01*
X100765973Y-59317594D01*
X100765970Y-59317598D01*
X100662555Y-59472368D01*
X100662550Y-59472377D01*
X100591316Y-59644353D01*
X100591314Y-59644361D01*
X100555000Y-59826921D01*
X89343682Y-59826921D01*
X89318838Y-59638211D01*
X89256054Y-59403900D01*
X89163224Y-59179788D01*
X89041936Y-58969711D01*
X88894265Y-58777262D01*
X88894260Y-58777256D01*
X88722743Y-58605739D01*
X88722736Y-58605733D01*
X88575920Y-58493078D01*
X88530289Y-58458064D01*
X88320212Y-58336776D01*
X88320205Y-58336773D01*
X88096104Y-58243947D01*
X87861785Y-58181161D01*
X87621289Y-58149500D01*
X87621288Y-58149500D01*
X87378712Y-58149500D01*
X87378711Y-58149500D01*
X87138214Y-58181161D01*
X86903895Y-58243947D01*
X86679794Y-58336773D01*
X86679785Y-58336777D01*
X86469706Y-58458067D01*
X86277263Y-58605733D01*
X86277256Y-58605739D01*
X86105739Y-58777256D01*
X86105733Y-58777263D01*
X85958067Y-58969706D01*
X85836777Y-59179785D01*
X85836773Y-59179794D01*
X85743947Y-59403895D01*
X85681161Y-59638214D01*
X85649500Y-59878711D01*
X84000500Y-59878711D01*
X84000500Y-57280678D01*
X100238000Y-57280678D01*
X100238000Y-57479321D01*
X100269075Y-57675520D01*
X100269075Y-57675523D01*
X100330457Y-57864437D01*
X100420641Y-58041432D01*
X100447730Y-58078715D01*
X100447731Y-58078716D01*
X101062352Y-57464094D01*
X101085792Y-57551571D01*
X101144311Y-57652930D01*
X101227070Y-57735689D01*
X101328429Y-57794208D01*
X101415905Y-57817647D01*
X100801283Y-58432268D01*
X100801283Y-58432269D01*
X100838567Y-58459358D01*
X101015562Y-58549542D01*
X101204477Y-58610924D01*
X101400679Y-58642000D01*
X101599321Y-58642000D01*
X101795520Y-58610924D01*
X101795523Y-58610924D01*
X101984437Y-58549542D01*
X102161425Y-58459362D01*
X102198715Y-58432268D01*
X102154962Y-58388515D01*
X102073368Y-58306921D01*
X107130000Y-58306921D01*
X107130000Y-58493078D01*
X107166314Y-58675638D01*
X107166316Y-58675646D01*
X107237550Y-58847622D01*
X107237555Y-58847631D01*
X107340970Y-59002401D01*
X107340973Y-59002405D01*
X107472594Y-59134026D01*
X107472598Y-59134029D01*
X107627368Y-59237444D01*
X107627374Y-59237447D01*
X107627375Y-59237448D01*
X107799354Y-59308684D01*
X107981921Y-59344999D01*
X107981924Y-59345000D01*
X107981926Y-59345000D01*
X108168076Y-59345000D01*
X108168077Y-59344999D01*
X108350646Y-59308684D01*
X108522625Y-59237448D01*
X108677402Y-59134029D01*
X108809029Y-59002402D01*
X108912448Y-58847625D01*
X108983684Y-58675646D01*
X109020000Y-58493074D01*
X109020000Y-58306926D01*
X109020000Y-58306923D01*
X109019999Y-58306921D01*
X109630000Y-58306921D01*
X109630000Y-58493078D01*
X109666314Y-58675638D01*
X109666316Y-58675646D01*
X109737550Y-58847622D01*
X109737555Y-58847631D01*
X109840970Y-59002401D01*
X109840973Y-59002405D01*
X109972594Y-59134026D01*
X109972598Y-59134029D01*
X110127368Y-59237444D01*
X110127374Y-59237447D01*
X110127375Y-59237448D01*
X110299354Y-59308684D01*
X110481921Y-59344999D01*
X110481924Y-59345000D01*
X110481926Y-59345000D01*
X110668076Y-59345000D01*
X110668077Y-59344999D01*
X110850646Y-59308684D01*
X111022625Y-59237448D01*
X111177402Y-59134029D01*
X111309029Y-59002402D01*
X111412448Y-58847625D01*
X111483684Y-58675646D01*
X111520000Y-58493074D01*
X111520000Y-58306926D01*
X111520000Y-58306923D01*
X111519999Y-58306921D01*
X111502202Y-58217449D01*
X111483684Y-58124354D01*
X111412448Y-57952375D01*
X111412447Y-57952374D01*
X111412444Y-57952368D01*
X111309029Y-57797598D01*
X111309026Y-57797594D01*
X111177405Y-57665973D01*
X111177401Y-57665970D01*
X111022631Y-57562555D01*
X111022622Y-57562550D01*
X110850646Y-57491316D01*
X110850638Y-57491314D01*
X110668077Y-57455000D01*
X110668074Y-57455000D01*
X110481926Y-57455000D01*
X110481923Y-57455000D01*
X110299361Y-57491314D01*
X110299353Y-57491316D01*
X110127377Y-57562550D01*
X110127368Y-57562555D01*
X109972598Y-57665970D01*
X109972594Y-57665973D01*
X109840973Y-57797594D01*
X109840970Y-57797598D01*
X109737555Y-57952368D01*
X109737550Y-57952377D01*
X109666316Y-58124353D01*
X109666314Y-58124361D01*
X109630000Y-58306921D01*
X109019999Y-58306921D01*
X109002202Y-58217449D01*
X108983684Y-58124354D01*
X108912448Y-57952375D01*
X108912447Y-57952374D01*
X108912444Y-57952368D01*
X108809029Y-57797598D01*
X108809026Y-57797594D01*
X108677405Y-57665973D01*
X108677401Y-57665970D01*
X108522631Y-57562555D01*
X108522622Y-57562550D01*
X108350646Y-57491316D01*
X108350638Y-57491314D01*
X108168077Y-57455000D01*
X108168074Y-57455000D01*
X107981926Y-57455000D01*
X107981923Y-57455000D01*
X107799361Y-57491314D01*
X107799353Y-57491316D01*
X107627377Y-57562550D01*
X107627368Y-57562555D01*
X107472598Y-57665970D01*
X107472594Y-57665973D01*
X107340973Y-57797594D01*
X107340970Y-57797598D01*
X107237555Y-57952368D01*
X107237550Y-57952377D01*
X107166316Y-58124353D01*
X107166314Y-58124361D01*
X107130000Y-58306921D01*
X102073368Y-58306921D01*
X101584095Y-57817647D01*
X101671571Y-57794208D01*
X101772930Y-57735689D01*
X101855689Y-57652930D01*
X101914208Y-57551571D01*
X101937647Y-57464094D01*
X102552268Y-58078715D01*
X102579362Y-58041425D01*
X102669542Y-57864437D01*
X102730924Y-57675523D01*
X102730924Y-57675520D01*
X102762000Y-57479321D01*
X102762000Y-57286921D01*
X115795000Y-57286921D01*
X115795000Y-57473078D01*
X115831314Y-57655638D01*
X115831316Y-57655646D01*
X115902550Y-57827622D01*
X115902555Y-57827631D01*
X116005970Y-57982401D01*
X116005973Y-57982405D01*
X116137594Y-58114026D01*
X116137598Y-58114029D01*
X116292368Y-58217444D01*
X116292374Y-58217447D01*
X116292375Y-58217448D01*
X116464354Y-58288684D01*
X116646921Y-58324999D01*
X116646924Y-58325000D01*
X116646926Y-58325000D01*
X116833076Y-58325000D01*
X116833077Y-58324999D01*
X117015646Y-58288684D01*
X117187625Y-58217448D01*
X117342402Y-58114029D01*
X117474029Y-57982402D01*
X117577448Y-57827625D01*
X117648684Y-57655646D01*
X117685000Y-57473074D01*
X117685000Y-57286926D01*
X117685000Y-57286923D01*
X117684999Y-57286921D01*
X117648685Y-57104361D01*
X117648684Y-57104354D01*
X117591290Y-56965792D01*
X117577449Y-56932377D01*
X117577444Y-56932368D01*
X117474029Y-56777598D01*
X117474026Y-56777594D01*
X117342405Y-56645973D01*
X117342401Y-56645970D01*
X117187631Y-56542555D01*
X117187622Y-56542550D01*
X117015646Y-56471316D01*
X117015638Y-56471314D01*
X116833077Y-56435000D01*
X116833074Y-56435000D01*
X116646926Y-56435000D01*
X116646923Y-56435000D01*
X116464361Y-56471314D01*
X116464353Y-56471316D01*
X116292377Y-56542550D01*
X116292368Y-56542555D01*
X116137598Y-56645970D01*
X116137594Y-56645973D01*
X116005973Y-56777594D01*
X116005970Y-56777598D01*
X115902555Y-56932368D01*
X115902550Y-56932377D01*
X115831316Y-57104353D01*
X115831314Y-57104361D01*
X115795000Y-57286921D01*
X102762000Y-57286921D01*
X102762000Y-57280678D01*
X102730924Y-57084479D01*
X102730924Y-57084476D01*
X102669542Y-56895562D01*
X102579358Y-56718567D01*
X102552268Y-56681283D01*
X101937647Y-57295904D01*
X101914208Y-57208429D01*
X101855689Y-57107070D01*
X101772930Y-57024311D01*
X101671571Y-56965792D01*
X101584094Y-56942352D01*
X102198716Y-56327731D01*
X102198715Y-56327730D01*
X102161432Y-56300641D01*
X101984437Y-56210457D01*
X101795522Y-56149075D01*
X101599321Y-56118000D01*
X101400679Y-56118000D01*
X101204479Y-56149075D01*
X101204476Y-56149075D01*
X101015562Y-56210457D01*
X100838564Y-56300643D01*
X100801283Y-56327729D01*
X100801282Y-56327730D01*
X101415906Y-56942352D01*
X101328429Y-56965792D01*
X101227070Y-57024311D01*
X101144311Y-57107070D01*
X101085792Y-57208429D01*
X101062352Y-57295905D01*
X100447730Y-56681282D01*
X100447729Y-56681283D01*
X100420643Y-56718564D01*
X100330457Y-56895562D01*
X100269075Y-57084476D01*
X100269075Y-57084479D01*
X100238000Y-57280678D01*
X84000500Y-57280678D01*
X84000500Y-55806921D01*
X107130000Y-55806921D01*
X107130000Y-55993078D01*
X107166314Y-56175638D01*
X107166316Y-56175646D01*
X107237550Y-56347622D01*
X107237555Y-56347631D01*
X107340970Y-56502401D01*
X107340973Y-56502405D01*
X107472594Y-56634026D01*
X107472598Y-56634029D01*
X107627368Y-56737444D01*
X107627374Y-56737447D01*
X107627375Y-56737448D01*
X107799354Y-56808684D01*
X107981921Y-56844999D01*
X107981924Y-56845000D01*
X107981926Y-56845000D01*
X108168076Y-56845000D01*
X108168077Y-56844999D01*
X108350646Y-56808684D01*
X108522625Y-56737448D01*
X108677402Y-56634029D01*
X108809029Y-56502402D01*
X108912448Y-56347625D01*
X108983684Y-56175646D01*
X109020000Y-55993074D01*
X109020000Y-55806926D01*
X109020000Y-55806923D01*
X109019999Y-55806921D01*
X109630000Y-55806921D01*
X109630000Y-55993078D01*
X109666314Y-56175638D01*
X109666316Y-56175646D01*
X109737550Y-56347622D01*
X109737555Y-56347631D01*
X109840970Y-56502401D01*
X109840973Y-56502405D01*
X109972594Y-56634026D01*
X109972598Y-56634029D01*
X110127368Y-56737444D01*
X110127374Y-56737447D01*
X110127375Y-56737448D01*
X110299354Y-56808684D01*
X110481921Y-56844999D01*
X110481924Y-56845000D01*
X110481926Y-56845000D01*
X110668076Y-56845000D01*
X110668077Y-56844999D01*
X110850646Y-56808684D01*
X111022625Y-56737448D01*
X111177402Y-56634029D01*
X111309029Y-56502402D01*
X111412448Y-56347625D01*
X111483684Y-56175646D01*
X111520000Y-55993074D01*
X111520000Y-55806926D01*
X111520000Y-55806923D01*
X111519999Y-55806921D01*
X111508414Y-55748682D01*
X111483684Y-55624354D01*
X111412448Y-55452375D01*
X111412447Y-55452374D01*
X111412444Y-55452368D01*
X111309029Y-55297598D01*
X111309026Y-55297594D01*
X111177405Y-55165973D01*
X111177401Y-55165970D01*
X111022631Y-55062555D01*
X111022622Y-55062550D01*
X110850646Y-54991316D01*
X110850638Y-54991314D01*
X110668077Y-54955000D01*
X110668074Y-54955000D01*
X110481926Y-54955000D01*
X110481923Y-54955000D01*
X110299361Y-54991314D01*
X110299353Y-54991316D01*
X110127377Y-55062550D01*
X110127368Y-55062555D01*
X109972598Y-55165970D01*
X109972594Y-55165973D01*
X109840973Y-55297594D01*
X109840970Y-55297598D01*
X109737555Y-55452368D01*
X109737550Y-55452377D01*
X109666316Y-55624353D01*
X109666314Y-55624361D01*
X109630000Y-55806921D01*
X109019999Y-55806921D01*
X109008414Y-55748682D01*
X108983684Y-55624354D01*
X108912448Y-55452375D01*
X108912447Y-55452374D01*
X108912444Y-55452368D01*
X108809029Y-55297598D01*
X108809026Y-55297594D01*
X108677405Y-55165973D01*
X108677401Y-55165970D01*
X108522631Y-55062555D01*
X108522622Y-55062550D01*
X108350646Y-54991316D01*
X108350638Y-54991314D01*
X108168077Y-54955000D01*
X108168074Y-54955000D01*
X107981926Y-54955000D01*
X107981923Y-54955000D01*
X107799361Y-54991314D01*
X107799353Y-54991316D01*
X107627377Y-55062550D01*
X107627368Y-55062555D01*
X107472598Y-55165970D01*
X107472594Y-55165973D01*
X107340973Y-55297594D01*
X107340970Y-55297598D01*
X107237555Y-55452368D01*
X107237550Y-55452377D01*
X107166316Y-55624353D01*
X107166314Y-55624361D01*
X107130000Y-55806921D01*
X84000500Y-55806921D01*
X84000500Y-54746921D01*
X100555000Y-54746921D01*
X100555000Y-54933078D01*
X100591314Y-55115638D01*
X100591316Y-55115646D01*
X100662550Y-55287622D01*
X100662555Y-55287631D01*
X100765970Y-55442401D01*
X100765973Y-55442405D01*
X100897594Y-55574026D01*
X100897598Y-55574029D01*
X101052368Y-55677444D01*
X101052374Y-55677447D01*
X101052375Y-55677448D01*
X101224354Y-55748684D01*
X101406921Y-55784999D01*
X101406924Y-55785000D01*
X101406926Y-55785000D01*
X101593076Y-55785000D01*
X101593077Y-55784999D01*
X101775646Y-55748684D01*
X101947625Y-55677448D01*
X102102402Y-55574029D01*
X102234029Y-55442402D01*
X102337448Y-55287625D01*
X102408684Y-55115646D01*
X102445000Y-54933074D01*
X102445000Y-54746926D01*
X102445000Y-54746923D01*
X102444999Y-54746921D01*
X115795000Y-54746921D01*
X115795000Y-54933078D01*
X115831314Y-55115638D01*
X115831316Y-55115646D01*
X115902550Y-55287622D01*
X115902555Y-55287631D01*
X116005970Y-55442401D01*
X116005973Y-55442405D01*
X116137594Y-55574026D01*
X116137598Y-55574029D01*
X116292368Y-55677444D01*
X116292374Y-55677447D01*
X116292375Y-55677448D01*
X116464354Y-55748684D01*
X116646921Y-55784999D01*
X116646924Y-55785000D01*
X116646926Y-55785000D01*
X116833076Y-55785000D01*
X116833077Y-55784999D01*
X117015646Y-55748684D01*
X117187625Y-55677448D01*
X117342402Y-55574029D01*
X117474029Y-55442402D01*
X117577448Y-55287625D01*
X117648684Y-55115646D01*
X117685000Y-54933074D01*
X117685000Y-54746926D01*
X117685000Y-54746923D01*
X117684999Y-54746921D01*
X117666939Y-54656129D01*
X117648684Y-54564354D01*
X117577448Y-54392375D01*
X117577447Y-54392374D01*
X117577444Y-54392368D01*
X117474029Y-54237598D01*
X117474026Y-54237594D01*
X117342405Y-54105973D01*
X117342401Y-54105970D01*
X117187631Y-54002555D01*
X117187622Y-54002550D01*
X117030563Y-53937495D01*
X117015646Y-53931316D01*
X117015638Y-53931314D01*
X116833077Y-53895000D01*
X116833074Y-53895000D01*
X116646926Y-53895000D01*
X116646923Y-53895000D01*
X116464361Y-53931314D01*
X116464353Y-53931316D01*
X116292377Y-54002550D01*
X116292368Y-54002555D01*
X116137598Y-54105970D01*
X116137594Y-54105973D01*
X116005973Y-54237594D01*
X116005970Y-54237598D01*
X115902555Y-54392368D01*
X115902550Y-54392377D01*
X115831316Y-54564353D01*
X115831314Y-54564361D01*
X115795000Y-54746921D01*
X102444999Y-54746921D01*
X102426939Y-54656129D01*
X102408684Y-54564354D01*
X102337448Y-54392375D01*
X102337447Y-54392374D01*
X102337444Y-54392368D01*
X102234029Y-54237598D01*
X102234026Y-54237594D01*
X102102405Y-54105973D01*
X102102401Y-54105970D01*
X101947631Y-54002555D01*
X101947622Y-54002550D01*
X101775646Y-53931316D01*
X101775638Y-53931314D01*
X101593077Y-53895000D01*
X101593074Y-53895000D01*
X101406926Y-53895000D01*
X101406923Y-53895000D01*
X101224361Y-53931314D01*
X101224353Y-53931316D01*
X101052377Y-54002550D01*
X101052368Y-54002555D01*
X100897598Y-54105970D01*
X100897594Y-54105973D01*
X100765973Y-54237594D01*
X100765970Y-54237598D01*
X100662555Y-54392368D01*
X100662550Y-54392377D01*
X100591316Y-54564353D01*
X100591314Y-54564361D01*
X100555000Y-54746921D01*
X84000500Y-54746921D01*
X84000500Y-50600013D01*
X94475000Y-50600013D01*
X94475000Y-50750000D01*
X95569670Y-50750000D01*
X95549925Y-50769745D01*
X95500556Y-50855255D01*
X95475000Y-50950630D01*
X95475000Y-51049370D01*
X95500556Y-51144745D01*
X95549925Y-51230255D01*
X95569670Y-51250000D01*
X94475001Y-51250000D01*
X94475001Y-51399986D01*
X94485494Y-51502697D01*
X94540641Y-51669119D01*
X94540643Y-51669124D01*
X94632684Y-51818345D01*
X94756654Y-51942315D01*
X94905875Y-52034356D01*
X94905880Y-52034358D01*
X95072302Y-52089505D01*
X95072309Y-52089506D01*
X95175019Y-52099999D01*
X95213356Y-52099999D01*
X95280396Y-52119682D01*
X95326152Y-52172485D01*
X95336097Y-52241643D01*
X95307074Y-52305199D01*
X95292041Y-52319838D01*
X95291906Y-52319948D01*
X95169957Y-52441897D01*
X95169954Y-52441901D01*
X95074145Y-52585288D01*
X95074138Y-52585301D01*
X95008146Y-52744621D01*
X95008143Y-52744633D01*
X94974500Y-52913766D01*
X94974500Y-53086233D01*
X95008143Y-53255366D01*
X95008146Y-53255378D01*
X95074138Y-53414698D01*
X95074145Y-53414711D01*
X95169954Y-53558098D01*
X95169957Y-53558102D01*
X95291897Y-53680042D01*
X95291901Y-53680045D01*
X95435288Y-53775854D01*
X95435301Y-53775861D01*
X95563654Y-53829026D01*
X95594626Y-53841855D01*
X95763766Y-53875499D01*
X95763769Y-53875500D01*
X95763771Y-53875500D01*
X95936231Y-53875500D01*
X95936232Y-53875499D01*
X96105374Y-53841855D01*
X96264705Y-53775858D01*
X96408099Y-53680045D01*
X96530045Y-53558099D01*
X96625858Y-53414705D01*
X96670504Y-53306921D01*
X107230000Y-53306921D01*
X107230000Y-53493078D01*
X107266314Y-53675638D01*
X107266316Y-53675646D01*
X107337550Y-53847622D01*
X107337555Y-53847631D01*
X107440970Y-54002401D01*
X107440973Y-54002405D01*
X107572594Y-54134026D01*
X107572598Y-54134029D01*
X107727368Y-54237444D01*
X107727374Y-54237447D01*
X107727375Y-54237448D01*
X107899354Y-54308684D01*
X108081921Y-54344999D01*
X108081924Y-54345000D01*
X108081926Y-54345000D01*
X108268076Y-54345000D01*
X108268077Y-54344999D01*
X108450646Y-54308684D01*
X108622625Y-54237448D01*
X108777402Y-54134029D01*
X108909029Y-54002402D01*
X109012448Y-53847625D01*
X109083684Y-53675646D01*
X109120000Y-53493074D01*
X109120000Y-53306926D01*
X109120000Y-53306923D01*
X109119999Y-53306921D01*
X109730000Y-53306921D01*
X109730000Y-53493078D01*
X109766314Y-53675638D01*
X109766316Y-53675646D01*
X109837550Y-53847622D01*
X109837555Y-53847631D01*
X109940970Y-54002401D01*
X109940973Y-54002405D01*
X110072594Y-54134026D01*
X110072598Y-54134029D01*
X110227368Y-54237444D01*
X110227374Y-54237447D01*
X110227375Y-54237448D01*
X110399354Y-54308684D01*
X110581921Y-54344999D01*
X110581924Y-54345000D01*
X110581926Y-54345000D01*
X110768076Y-54345000D01*
X110768077Y-54344999D01*
X110950646Y-54308684D01*
X111122625Y-54237448D01*
X111277402Y-54134029D01*
X111409029Y-54002402D01*
X111512448Y-53847625D01*
X111520154Y-53829021D01*
X122931600Y-53829021D01*
X122931600Y-54015178D01*
X122967914Y-54197738D01*
X122967916Y-54197746D01*
X123039150Y-54369722D01*
X123039155Y-54369731D01*
X123142570Y-54524501D01*
X123142573Y-54524505D01*
X123274194Y-54656126D01*
X123274198Y-54656129D01*
X123428968Y-54759544D01*
X123428974Y-54759547D01*
X123428975Y-54759548D01*
X123600954Y-54830784D01*
X123783521Y-54867099D01*
X123783524Y-54867100D01*
X123783526Y-54867100D01*
X123969676Y-54867100D01*
X123969677Y-54867099D01*
X124152246Y-54830784D01*
X124324225Y-54759548D01*
X124479002Y-54656129D01*
X124610629Y-54524502D01*
X124714048Y-54369725D01*
X124785284Y-54197746D01*
X124821600Y-54015174D01*
X124821600Y-53829026D01*
X124821600Y-53829023D01*
X124821599Y-53829021D01*
X124811023Y-53775854D01*
X124785284Y-53646454D01*
X124714048Y-53474475D01*
X124714047Y-53474474D01*
X124714044Y-53474468D01*
X124610629Y-53319698D01*
X124610626Y-53319694D01*
X124479005Y-53188073D01*
X124479001Y-53188070D01*
X124324231Y-53084655D01*
X124324222Y-53084650D01*
X124152246Y-53013416D01*
X124152238Y-53013414D01*
X123969677Y-52977100D01*
X123969674Y-52977100D01*
X123783526Y-52977100D01*
X123783523Y-52977100D01*
X123600961Y-53013414D01*
X123600953Y-53013416D01*
X123428977Y-53084650D01*
X123428968Y-53084655D01*
X123274198Y-53188070D01*
X123274194Y-53188073D01*
X123142573Y-53319694D01*
X123142570Y-53319698D01*
X123039155Y-53474468D01*
X123039150Y-53474477D01*
X122967916Y-53646453D01*
X122967914Y-53646461D01*
X122931600Y-53829021D01*
X111520154Y-53829021D01*
X111583684Y-53675646D01*
X111620000Y-53493074D01*
X111620000Y-53306926D01*
X111620000Y-53306923D01*
X111619999Y-53306921D01*
X111607682Y-53244999D01*
X111583684Y-53124354D01*
X111512448Y-52952375D01*
X111512447Y-52952374D01*
X111512444Y-52952368D01*
X111409029Y-52797598D01*
X111409026Y-52797594D01*
X111277405Y-52665973D01*
X111277401Y-52665970D01*
X111122631Y-52562555D01*
X111122622Y-52562550D01*
X110950646Y-52491316D01*
X110950638Y-52491314D01*
X110768077Y-52455000D01*
X110768074Y-52455000D01*
X110581926Y-52455000D01*
X110581923Y-52455000D01*
X110399361Y-52491314D01*
X110399353Y-52491316D01*
X110227377Y-52562550D01*
X110227368Y-52562555D01*
X110072598Y-52665970D01*
X110072594Y-52665973D01*
X109940973Y-52797594D01*
X109940970Y-52797598D01*
X109837555Y-52952368D01*
X109837550Y-52952377D01*
X109766316Y-53124353D01*
X109766314Y-53124361D01*
X109730000Y-53306921D01*
X109119999Y-53306921D01*
X109107682Y-53244999D01*
X109083684Y-53124354D01*
X109012448Y-52952375D01*
X109012447Y-52952374D01*
X109012444Y-52952368D01*
X108909029Y-52797598D01*
X108909026Y-52797594D01*
X108777405Y-52665973D01*
X108777401Y-52665970D01*
X108622631Y-52562555D01*
X108622622Y-52562550D01*
X108450646Y-52491316D01*
X108450638Y-52491314D01*
X108268077Y-52455000D01*
X108268074Y-52455000D01*
X108081926Y-52455000D01*
X108081923Y-52455000D01*
X107899361Y-52491314D01*
X107899353Y-52491316D01*
X107727377Y-52562550D01*
X107727368Y-52562555D01*
X107572598Y-52665970D01*
X107572594Y-52665973D01*
X107440973Y-52797594D01*
X107440970Y-52797598D01*
X107337555Y-52952368D01*
X107337550Y-52952377D01*
X107266316Y-53124353D01*
X107266314Y-53124361D01*
X107230000Y-53306921D01*
X96670504Y-53306921D01*
X96691855Y-53255374D01*
X96725500Y-53086229D01*
X96725500Y-52913771D01*
X96725500Y-52913768D01*
X96725499Y-52913766D01*
X96702391Y-52797594D01*
X96691855Y-52744626D01*
X96630676Y-52596926D01*
X96625861Y-52585301D01*
X96625854Y-52585288D01*
X96530045Y-52441901D01*
X96530042Y-52441897D01*
X96408104Y-52319959D01*
X96407976Y-52319854D01*
X96407926Y-52319781D01*
X96403792Y-52315647D01*
X96404576Y-52314862D01*
X96396103Y-52302424D01*
X96380546Y-52288188D01*
X96376828Y-52274128D01*
X96368641Y-52262109D01*
X96368075Y-52241028D01*
X96362685Y-52220640D01*
X96367120Y-52206921D01*
X100555000Y-52206921D01*
X100555000Y-52393078D01*
X100591314Y-52575638D01*
X100591316Y-52575646D01*
X100662550Y-52747622D01*
X100662555Y-52747631D01*
X100765970Y-52902401D01*
X100765973Y-52902405D01*
X100897594Y-53034026D01*
X100897598Y-53034029D01*
X101052368Y-53137444D01*
X101052377Y-53137449D01*
X101091336Y-53153586D01*
X101224354Y-53208684D01*
X101406921Y-53244999D01*
X101406924Y-53245000D01*
X101406926Y-53245000D01*
X101593076Y-53245000D01*
X101593077Y-53244999D01*
X101775646Y-53208684D01*
X101947625Y-53137448D01*
X102102402Y-53034029D01*
X102234029Y-52902402D01*
X102337448Y-52747625D01*
X102408684Y-52575646D01*
X102445000Y-52393074D01*
X102445000Y-52206926D01*
X102445000Y-52206923D01*
X102444999Y-52206921D01*
X115795000Y-52206921D01*
X115795000Y-52393078D01*
X115831314Y-52575638D01*
X115831316Y-52575646D01*
X115902550Y-52747622D01*
X115902555Y-52747631D01*
X116005970Y-52902401D01*
X116005973Y-52902405D01*
X116137594Y-53034026D01*
X116137598Y-53034029D01*
X116292368Y-53137444D01*
X116292377Y-53137449D01*
X116331336Y-53153586D01*
X116464354Y-53208684D01*
X116646921Y-53244999D01*
X116646924Y-53245000D01*
X116646926Y-53245000D01*
X116833076Y-53245000D01*
X116833077Y-53244999D01*
X117015646Y-53208684D01*
X117187625Y-53137448D01*
X117342402Y-53034029D01*
X117474029Y-52902402D01*
X117577448Y-52747625D01*
X117639872Y-52596921D01*
X119555000Y-52596921D01*
X119555000Y-52783078D01*
X119591314Y-52965638D01*
X119591316Y-52965646D01*
X119662550Y-53137622D01*
X119662555Y-53137631D01*
X119765970Y-53292401D01*
X119765973Y-53292405D01*
X119897594Y-53424026D01*
X119897598Y-53424029D01*
X120052368Y-53527444D01*
X120052374Y-53527447D01*
X120052375Y-53527448D01*
X120224354Y-53598684D01*
X120406921Y-53634999D01*
X120406924Y-53635000D01*
X120406926Y-53635000D01*
X120593076Y-53635000D01*
X120593077Y-53634999D01*
X120775646Y-53598684D01*
X120947625Y-53527448D01*
X121102402Y-53424029D01*
X121234029Y-53292402D01*
X121337448Y-53137625D01*
X121408684Y-52965646D01*
X121445000Y-52783074D01*
X121445000Y-52596926D01*
X121445000Y-52596923D01*
X121444999Y-52596921D01*
X121440767Y-52575645D01*
X121408684Y-52414354D01*
X121337448Y-52242375D01*
X121337447Y-52242374D01*
X121337444Y-52242368D01*
X121234029Y-52087598D01*
X121234026Y-52087594D01*
X121102405Y-51955973D01*
X121102401Y-51955970D01*
X120947631Y-51852555D01*
X120947622Y-51852550D01*
X120775646Y-51781316D01*
X120775638Y-51781314D01*
X120593077Y-51745000D01*
X120593074Y-51745000D01*
X120406926Y-51745000D01*
X120406923Y-51745000D01*
X120224361Y-51781314D01*
X120224353Y-51781316D01*
X120052377Y-51852550D01*
X120052368Y-51852555D01*
X119897598Y-51955970D01*
X119897594Y-51955973D01*
X119765973Y-52087594D01*
X119765970Y-52087598D01*
X119662555Y-52242368D01*
X119662550Y-52242377D01*
X119591316Y-52414353D01*
X119591314Y-52414361D01*
X119555000Y-52596921D01*
X117639872Y-52596921D01*
X117648684Y-52575646D01*
X117651761Y-52560172D01*
X117685000Y-52393076D01*
X117685000Y-52206923D01*
X117684999Y-52206921D01*
X117684975Y-52206802D01*
X117648684Y-52024354D01*
X117577521Y-51852552D01*
X117577449Y-51852377D01*
X117577444Y-51852368D01*
X117474029Y-51697598D01*
X117474026Y-51697594D01*
X117342405Y-51565973D01*
X117342401Y-51565970D01*
X117187631Y-51462555D01*
X117187622Y-51462550D01*
X117015646Y-51391316D01*
X117015638Y-51391314D01*
X116833077Y-51355000D01*
X116833074Y-51355000D01*
X116646926Y-51355000D01*
X116646923Y-51355000D01*
X116464361Y-51391314D01*
X116464353Y-51391316D01*
X116292377Y-51462550D01*
X116292368Y-51462555D01*
X116137598Y-51565970D01*
X116137594Y-51565973D01*
X116005973Y-51697594D01*
X116005970Y-51697598D01*
X115902555Y-51852368D01*
X115902550Y-51852377D01*
X115831316Y-52024353D01*
X115831314Y-52024361D01*
X115795000Y-52206921D01*
X102444999Y-52206921D01*
X102444975Y-52206802D01*
X102408684Y-52024354D01*
X102337521Y-51852552D01*
X102337449Y-51852377D01*
X102337444Y-51852368D01*
X102234029Y-51697598D01*
X102234026Y-51697594D01*
X102102405Y-51565973D01*
X102102401Y-51565970D01*
X101947631Y-51462555D01*
X101947622Y-51462550D01*
X101775646Y-51391316D01*
X101775638Y-51391314D01*
X101593077Y-51355000D01*
X101593074Y-51355000D01*
X101406926Y-51355000D01*
X101406923Y-51355000D01*
X101224361Y-51391314D01*
X101224353Y-51391316D01*
X101052377Y-51462550D01*
X101052368Y-51462555D01*
X100897598Y-51565970D01*
X100897594Y-51565973D01*
X100765973Y-51697594D01*
X100765970Y-51697598D01*
X100662555Y-51852368D01*
X100662550Y-51852377D01*
X100591316Y-52024353D01*
X100591314Y-52024361D01*
X100555000Y-52206921D01*
X96367120Y-52206921D01*
X96367158Y-52206802D01*
X96366769Y-52192264D01*
X96377690Y-52174224D01*
X96384178Y-52154158D01*
X96395423Y-52144935D01*
X96402955Y-52132495D01*
X96421896Y-52123223D01*
X96438202Y-52109851D01*
X96457048Y-52106017D01*
X96465710Y-52101778D01*
X96472323Y-52100828D01*
X96659008Y-52079130D01*
X96794119Y-52034358D01*
X96794124Y-52034356D01*
X96943345Y-51942315D01*
X97067315Y-51818345D01*
X97159356Y-51669124D01*
X97159358Y-51669119D01*
X97214505Y-51502697D01*
X97214506Y-51502690D01*
X97224999Y-51399986D01*
X97225000Y-51399973D01*
X97225000Y-51289021D01*
X122931600Y-51289021D01*
X122931600Y-51475178D01*
X122967914Y-51657738D01*
X122967916Y-51657746D01*
X123039150Y-51829722D01*
X123039155Y-51829731D01*
X123142570Y-51984501D01*
X123142573Y-51984505D01*
X123274194Y-52116126D01*
X123274198Y-52116129D01*
X123428968Y-52219544D01*
X123428974Y-52219547D01*
X123428975Y-52219548D01*
X123600954Y-52290784D01*
X123746731Y-52319781D01*
X123783521Y-52327099D01*
X123783524Y-52327100D01*
X123783526Y-52327100D01*
X123969676Y-52327100D01*
X123969677Y-52327099D01*
X124152246Y-52290784D01*
X124324225Y-52219548D01*
X124479002Y-52116129D01*
X124610629Y-51984502D01*
X124714048Y-51829725D01*
X124785284Y-51657746D01*
X124821600Y-51475174D01*
X124821600Y-51289026D01*
X124821600Y-51289023D01*
X124821599Y-51289021D01*
X124814832Y-51255000D01*
X124785284Y-51106454D01*
X124714048Y-50934475D01*
X124714047Y-50934474D01*
X124714044Y-50934468D01*
X124610629Y-50779698D01*
X124610626Y-50779694D01*
X124479005Y-50648073D01*
X124479001Y-50648070D01*
X124324231Y-50544655D01*
X124324222Y-50544650D01*
X124152246Y-50473416D01*
X124152238Y-50473414D01*
X123969677Y-50437100D01*
X123969674Y-50437100D01*
X123783526Y-50437100D01*
X123783523Y-50437100D01*
X123600961Y-50473414D01*
X123600953Y-50473416D01*
X123428977Y-50544650D01*
X123428968Y-50544655D01*
X123274198Y-50648070D01*
X123274194Y-50648073D01*
X123142573Y-50779694D01*
X123142570Y-50779698D01*
X123039155Y-50934468D01*
X123039150Y-50934477D01*
X122967916Y-51106453D01*
X122967914Y-51106461D01*
X122931600Y-51289021D01*
X97225000Y-51289021D01*
X97225000Y-51250000D01*
X96130330Y-51250000D01*
X96150075Y-51230255D01*
X96199444Y-51144745D01*
X96225000Y-51049370D01*
X96225000Y-50950630D01*
X96199444Y-50855255D01*
X96150075Y-50769745D01*
X96130330Y-50750000D01*
X97224999Y-50750000D01*
X97224999Y-50600028D01*
X97224998Y-50600013D01*
X97214505Y-50497302D01*
X97159358Y-50330880D01*
X97159356Y-50330875D01*
X97067315Y-50181654D01*
X96943345Y-50057684D01*
X96794124Y-49965643D01*
X96794119Y-49965641D01*
X96627697Y-49910494D01*
X96627690Y-49910493D01*
X96524986Y-49900000D01*
X96100000Y-49900000D01*
X96100000Y-50719670D01*
X96080255Y-50699925D01*
X95994745Y-50650556D01*
X95899370Y-50625000D01*
X95800630Y-50625000D01*
X95705255Y-50650556D01*
X95619745Y-50699925D01*
X95600000Y-50719670D01*
X95600000Y-49900000D01*
X95175028Y-49900000D01*
X95175012Y-49900001D01*
X95072302Y-49910494D01*
X94905880Y-49965641D01*
X94905875Y-49965643D01*
X94756654Y-50057684D01*
X94632684Y-50181654D01*
X94540643Y-50330875D01*
X94540641Y-50330880D01*
X94485494Y-50497302D01*
X94485493Y-50497309D01*
X94475000Y-50600013D01*
X84000500Y-50600013D01*
X84000500Y-49666921D01*
X100555000Y-49666921D01*
X100555000Y-49853078D01*
X100591314Y-50035638D01*
X100591316Y-50035646D01*
X100662550Y-50207622D01*
X100662555Y-50207631D01*
X100765970Y-50362401D01*
X100765973Y-50362405D01*
X100897594Y-50494026D01*
X100897598Y-50494029D01*
X101052368Y-50597444D01*
X101052377Y-50597449D01*
X101091336Y-50613586D01*
X101224354Y-50668684D01*
X101406921Y-50704999D01*
X101406924Y-50705000D01*
X101406926Y-50705000D01*
X101593076Y-50705000D01*
X101593077Y-50704999D01*
X101775646Y-50668684D01*
X101947625Y-50597448D01*
X102102402Y-50494029D01*
X102234029Y-50362402D01*
X102337448Y-50207625D01*
X102408684Y-50035646D01*
X102445000Y-49853074D01*
X102445000Y-49666926D01*
X102445000Y-49666923D01*
X102444999Y-49666921D01*
X115795000Y-49666921D01*
X115795000Y-49853078D01*
X115831314Y-50035638D01*
X115831316Y-50035646D01*
X115902550Y-50207622D01*
X115902555Y-50207631D01*
X116005970Y-50362401D01*
X116005973Y-50362405D01*
X116137594Y-50494026D01*
X116137598Y-50494029D01*
X116292368Y-50597444D01*
X116292377Y-50597449D01*
X116331336Y-50613586D01*
X116464354Y-50668684D01*
X116646921Y-50704999D01*
X116646924Y-50705000D01*
X116646926Y-50705000D01*
X116833076Y-50705000D01*
X116833077Y-50704999D01*
X117015646Y-50668684D01*
X117187625Y-50597448D01*
X117342402Y-50494029D01*
X117474029Y-50362402D01*
X117571237Y-50216921D01*
X119555000Y-50216921D01*
X119555000Y-50403078D01*
X119591314Y-50585638D01*
X119591316Y-50585646D01*
X119662550Y-50757622D01*
X119662555Y-50757631D01*
X119765970Y-50912401D01*
X119765973Y-50912405D01*
X119897594Y-51044026D01*
X119897598Y-51044029D01*
X120052368Y-51147444D01*
X120052374Y-51147447D01*
X120052375Y-51147448D01*
X120224354Y-51218684D01*
X120406921Y-51254999D01*
X120406924Y-51255000D01*
X120406926Y-51255000D01*
X120593076Y-51255000D01*
X120593077Y-51254999D01*
X120775646Y-51218684D01*
X120947625Y-51147448D01*
X121102402Y-51044029D01*
X121234029Y-50912402D01*
X121337448Y-50757625D01*
X121408684Y-50585646D01*
X121445000Y-50403074D01*
X121445000Y-50216926D01*
X121445000Y-50216923D01*
X121444999Y-50216921D01*
X121434349Y-50163379D01*
X121408684Y-50034354D01*
X121337448Y-49862375D01*
X121337447Y-49862374D01*
X121337444Y-49862368D01*
X121234029Y-49707598D01*
X121234026Y-49707594D01*
X121102405Y-49575973D01*
X121102401Y-49575970D01*
X120947631Y-49472555D01*
X120947622Y-49472550D01*
X120775646Y-49401316D01*
X120775638Y-49401314D01*
X120593077Y-49365000D01*
X120593074Y-49365000D01*
X120406926Y-49365000D01*
X120406923Y-49365000D01*
X120224361Y-49401314D01*
X120224353Y-49401316D01*
X120052377Y-49472550D01*
X120052368Y-49472555D01*
X119897598Y-49575970D01*
X119897594Y-49575973D01*
X119765973Y-49707594D01*
X119765970Y-49707598D01*
X119662555Y-49862368D01*
X119662550Y-49862377D01*
X119591316Y-50034353D01*
X119591314Y-50034361D01*
X119555000Y-50216921D01*
X117571237Y-50216921D01*
X117577448Y-50207625D01*
X117588206Y-50181654D01*
X117595775Y-50163381D01*
X117595775Y-50163379D01*
X117648684Y-50035646D01*
X117685000Y-49853074D01*
X117685000Y-49666926D01*
X117685000Y-49666923D01*
X117684999Y-49666921D01*
X117666939Y-49576129D01*
X117648684Y-49484354D01*
X117577448Y-49312375D01*
X117577447Y-49312374D01*
X117577444Y-49312368D01*
X117474029Y-49157598D01*
X117474026Y-49157594D01*
X117342405Y-49025973D01*
X117342401Y-49025970D01*
X117187631Y-48922555D01*
X117187622Y-48922550D01*
X117030563Y-48857495D01*
X117015646Y-48851316D01*
X117015638Y-48851314D01*
X116833077Y-48815000D01*
X116833074Y-48815000D01*
X116646926Y-48815000D01*
X116646923Y-48815000D01*
X116464361Y-48851314D01*
X116464353Y-48851316D01*
X116292377Y-48922550D01*
X116292368Y-48922555D01*
X116137598Y-49025970D01*
X116137594Y-49025973D01*
X116005973Y-49157594D01*
X116005970Y-49157598D01*
X115902555Y-49312368D01*
X115902550Y-49312377D01*
X115831316Y-49484353D01*
X115831314Y-49484361D01*
X115795000Y-49666921D01*
X102444999Y-49666921D01*
X102426939Y-49576129D01*
X102408684Y-49484354D01*
X102337448Y-49312375D01*
X102337447Y-49312374D01*
X102337444Y-49312368D01*
X102234029Y-49157598D01*
X102234026Y-49157594D01*
X102102405Y-49025973D01*
X102102401Y-49025970D01*
X101947631Y-48922555D01*
X101947622Y-48922550D01*
X101775646Y-48851316D01*
X101775638Y-48851314D01*
X101593077Y-48815000D01*
X101593074Y-48815000D01*
X101406926Y-48815000D01*
X101406923Y-48815000D01*
X101224361Y-48851314D01*
X101224353Y-48851316D01*
X101052377Y-48922550D01*
X101052368Y-48922555D01*
X100897598Y-49025970D01*
X100897594Y-49025973D01*
X100765973Y-49157594D01*
X100765970Y-49157598D01*
X100662555Y-49312368D01*
X100662550Y-49312377D01*
X100591316Y-49484353D01*
X100591314Y-49484361D01*
X100555000Y-49666921D01*
X84000500Y-49666921D01*
X84000500Y-48749021D01*
X122931600Y-48749021D01*
X122931600Y-48935178D01*
X122967914Y-49117738D01*
X122967916Y-49117746D01*
X123039150Y-49289722D01*
X123039155Y-49289731D01*
X123142570Y-49444501D01*
X123142573Y-49444505D01*
X123274194Y-49576126D01*
X123274198Y-49576129D01*
X123428968Y-49679544D01*
X123428974Y-49679547D01*
X123428975Y-49679548D01*
X123600954Y-49750784D01*
X123783521Y-49787099D01*
X123783524Y-49787100D01*
X123783526Y-49787100D01*
X123969676Y-49787100D01*
X123969677Y-49787099D01*
X124152246Y-49750784D01*
X124324225Y-49679548D01*
X124479002Y-49576129D01*
X124610629Y-49444502D01*
X124714048Y-49289725D01*
X124785284Y-49117746D01*
X124821600Y-48935174D01*
X124821600Y-48749026D01*
X124821600Y-48749023D01*
X124821599Y-48749021D01*
X124785285Y-48566461D01*
X124785284Y-48566454D01*
X124714048Y-48394475D01*
X124714047Y-48394474D01*
X124714044Y-48394468D01*
X124610629Y-48239698D01*
X124610626Y-48239694D01*
X124479005Y-48108073D01*
X124479001Y-48108070D01*
X124324231Y-48004655D01*
X124324222Y-48004650D01*
X124152246Y-47933416D01*
X124152238Y-47933414D01*
X123969677Y-47897100D01*
X123969674Y-47897100D01*
X123783526Y-47897100D01*
X123783523Y-47897100D01*
X123600961Y-47933414D01*
X123600953Y-47933416D01*
X123428977Y-48004650D01*
X123428968Y-48004655D01*
X123274198Y-48108070D01*
X123274194Y-48108073D01*
X123142573Y-48239694D01*
X123142570Y-48239698D01*
X123039155Y-48394468D01*
X123039150Y-48394477D01*
X122967916Y-48566453D01*
X122967914Y-48566461D01*
X122931600Y-48749021D01*
X84000500Y-48749021D01*
X84000500Y-47126921D01*
X100555000Y-47126921D01*
X100555000Y-47313078D01*
X100591314Y-47495638D01*
X100591316Y-47495646D01*
X100662550Y-47667622D01*
X100662555Y-47667631D01*
X100765970Y-47822401D01*
X100765973Y-47822405D01*
X100897594Y-47954026D01*
X100897598Y-47954029D01*
X101052368Y-48057444D01*
X101052377Y-48057449D01*
X101091336Y-48073586D01*
X101224354Y-48128684D01*
X101406921Y-48164999D01*
X101406924Y-48165000D01*
X101406926Y-48165000D01*
X101593076Y-48165000D01*
X101593077Y-48164999D01*
X101775646Y-48128684D01*
X101947625Y-48057448D01*
X102102402Y-47954029D01*
X102234029Y-47822402D01*
X102285748Y-47745000D01*
X102291683Y-47736118D01*
X102337444Y-47667631D01*
X102337444Y-47667630D01*
X102337448Y-47667625D01*
X102408684Y-47495646D01*
X102445000Y-47313074D01*
X102445000Y-47126926D01*
X102445000Y-47126923D01*
X102444999Y-47126921D01*
X102408684Y-46944354D01*
X102337448Y-46772375D01*
X102289541Y-46700678D01*
X107313000Y-46700678D01*
X107313000Y-46899321D01*
X107344075Y-47095520D01*
X107344075Y-47095523D01*
X107405457Y-47284437D01*
X107495641Y-47461432D01*
X107522730Y-47498715D01*
X107522731Y-47498716D01*
X108137352Y-46884094D01*
X108160792Y-46971571D01*
X108219311Y-47072930D01*
X108302070Y-47155689D01*
X108403429Y-47214208D01*
X108490905Y-47237647D01*
X107876283Y-47852268D01*
X107876283Y-47852269D01*
X107913567Y-47879358D01*
X108090562Y-47969542D01*
X108279477Y-48030924D01*
X108475679Y-48062000D01*
X108674321Y-48062000D01*
X108870520Y-48030924D01*
X108870523Y-48030924D01*
X109059437Y-47969542D01*
X109236425Y-47879362D01*
X109273716Y-47852268D01*
X108659095Y-47237647D01*
X108746571Y-47214208D01*
X108847930Y-47155689D01*
X108930689Y-47072930D01*
X108989208Y-46971571D01*
X109012647Y-46884094D01*
X109627268Y-47498715D01*
X109654362Y-47461425D01*
X109744542Y-47284437D01*
X109805924Y-47095523D01*
X109805924Y-47095520D01*
X109837000Y-46899321D01*
X109837000Y-46706921D01*
X110130000Y-46706921D01*
X110130000Y-46893078D01*
X110166314Y-47075638D01*
X110166316Y-47075646D01*
X110237550Y-47247622D01*
X110237555Y-47247631D01*
X110340970Y-47402401D01*
X110340973Y-47402405D01*
X110472594Y-47534026D01*
X110472598Y-47534029D01*
X110627368Y-47637444D01*
X110627374Y-47637447D01*
X110627375Y-47637448D01*
X110799354Y-47708684D01*
X110981921Y-47744999D01*
X110981924Y-47745000D01*
X110981926Y-47745000D01*
X111168076Y-47745000D01*
X111168077Y-47744999D01*
X111350646Y-47708684D01*
X111522625Y-47637448D01*
X111677402Y-47534029D01*
X111809029Y-47402402D01*
X111912448Y-47247625D01*
X111962445Y-47126921D01*
X115795000Y-47126921D01*
X115795000Y-47313078D01*
X115831314Y-47495638D01*
X115831316Y-47495646D01*
X115902550Y-47667622D01*
X115902555Y-47667631D01*
X116005970Y-47822401D01*
X116005973Y-47822405D01*
X116137594Y-47954026D01*
X116137598Y-47954029D01*
X116292368Y-48057444D01*
X116292377Y-48057449D01*
X116331336Y-48073586D01*
X116464354Y-48128684D01*
X116646921Y-48164999D01*
X116646924Y-48165000D01*
X116646926Y-48165000D01*
X116833076Y-48165000D01*
X116833077Y-48164999D01*
X117015646Y-48128684D01*
X117187625Y-48057448D01*
X117342402Y-47954029D01*
X117474029Y-47822402D01*
X117577448Y-47667625D01*
X117648684Y-47495646D01*
X117685000Y-47313074D01*
X117685000Y-47126926D01*
X117685000Y-47126923D01*
X117684999Y-47126921D01*
X117648684Y-46944354D01*
X117577448Y-46772375D01*
X117577446Y-46772372D01*
X117577444Y-46772368D01*
X117474029Y-46617598D01*
X117474026Y-46617594D01*
X117342405Y-46485973D01*
X117342401Y-46485970D01*
X117187631Y-46382555D01*
X117187618Y-46382548D01*
X117018425Y-46312467D01*
X117018424Y-46312466D01*
X117018423Y-46312466D01*
X117015651Y-46311317D01*
X117015638Y-46311314D01*
X116833077Y-46275000D01*
X116833074Y-46275000D01*
X116646926Y-46275000D01*
X116646923Y-46275000D01*
X116464361Y-46311314D01*
X116464353Y-46311316D01*
X116292377Y-46382550D01*
X116292368Y-46382555D01*
X116137598Y-46485970D01*
X116137594Y-46485973D01*
X116005973Y-46617594D01*
X116005970Y-46617598D01*
X115902555Y-46772368D01*
X115902550Y-46772377D01*
X115831316Y-46944353D01*
X115831314Y-46944361D01*
X115795000Y-47126921D01*
X111962445Y-47126921D01*
X111983684Y-47075646D01*
X112020000Y-46893074D01*
X112020000Y-46706926D01*
X112020000Y-46706923D01*
X112019999Y-46706921D01*
X112002231Y-46617598D01*
X111983684Y-46524354D01*
X111915863Y-46360620D01*
X111912449Y-46352377D01*
X111912444Y-46352368D01*
X111812490Y-46202778D01*
X122614600Y-46202778D01*
X122614600Y-46401421D01*
X122645675Y-46597620D01*
X122645675Y-46597623D01*
X122707057Y-46786537D01*
X122797241Y-46963532D01*
X122824330Y-47000815D01*
X122824331Y-47000816D01*
X123438952Y-46386194D01*
X123462392Y-46473671D01*
X123520911Y-46575030D01*
X123603670Y-46657789D01*
X123705029Y-46716308D01*
X123792505Y-46739747D01*
X123177883Y-47354368D01*
X123177883Y-47354369D01*
X123215167Y-47381458D01*
X123392162Y-47471642D01*
X123581077Y-47533024D01*
X123777279Y-47564100D01*
X123975921Y-47564100D01*
X124172120Y-47533024D01*
X124172123Y-47533024D01*
X124361037Y-47471642D01*
X124538025Y-47381462D01*
X124575316Y-47354368D01*
X123960695Y-46739747D01*
X124048171Y-46716308D01*
X124149530Y-46657789D01*
X124232289Y-46575030D01*
X124290808Y-46473671D01*
X124314247Y-46386194D01*
X124928868Y-47000815D01*
X124955962Y-46963525D01*
X125046142Y-46786537D01*
X125107524Y-46597623D01*
X125107524Y-46597620D01*
X125138600Y-46401421D01*
X125138600Y-46202778D01*
X125107524Y-46006579D01*
X125107524Y-46006576D01*
X125046142Y-45817662D01*
X124955958Y-45640667D01*
X124928868Y-45603383D01*
X124314247Y-46218004D01*
X124290808Y-46130529D01*
X124232289Y-46029170D01*
X124149530Y-45946411D01*
X124048171Y-45887892D01*
X123960694Y-45864452D01*
X124575316Y-45249831D01*
X124575315Y-45249830D01*
X124538032Y-45222741D01*
X124361037Y-45132557D01*
X124172122Y-45071175D01*
X123975921Y-45040100D01*
X123777279Y-45040100D01*
X123581079Y-45071175D01*
X123581076Y-45071175D01*
X123392162Y-45132557D01*
X123215164Y-45222743D01*
X123177883Y-45249829D01*
X123177882Y-45249830D01*
X123792506Y-45864452D01*
X123705029Y-45887892D01*
X123603670Y-45946411D01*
X123520911Y-46029170D01*
X123462392Y-46130529D01*
X123438952Y-46218005D01*
X122824330Y-45603382D01*
X122824329Y-45603383D01*
X122797243Y-45640664D01*
X122707057Y-45817662D01*
X122645675Y-46006576D01*
X122645675Y-46006579D01*
X122614600Y-46202778D01*
X111812490Y-46202778D01*
X111809029Y-46197598D01*
X111809026Y-46197594D01*
X111677405Y-46065973D01*
X111677401Y-46065970D01*
X111522631Y-45962555D01*
X111522622Y-45962550D01*
X111350646Y-45891316D01*
X111350638Y-45891314D01*
X111168077Y-45855000D01*
X111168074Y-45855000D01*
X110981926Y-45855000D01*
X110981923Y-45855000D01*
X110799361Y-45891314D01*
X110799353Y-45891316D01*
X110627377Y-45962550D01*
X110627368Y-45962555D01*
X110472598Y-46065970D01*
X110472594Y-46065973D01*
X110340973Y-46197594D01*
X110340970Y-46197598D01*
X110237555Y-46352368D01*
X110237550Y-46352377D01*
X110166316Y-46524353D01*
X110166314Y-46524361D01*
X110130000Y-46706921D01*
X109837000Y-46706921D01*
X109837000Y-46700678D01*
X109805924Y-46504479D01*
X109805924Y-46504476D01*
X109744542Y-46315562D01*
X109654358Y-46138567D01*
X109627268Y-46101283D01*
X109012647Y-46715904D01*
X108989208Y-46628429D01*
X108930689Y-46527070D01*
X108847930Y-46444311D01*
X108746571Y-46385792D01*
X108659094Y-46362352D01*
X109273716Y-45747731D01*
X109273715Y-45747730D01*
X109236432Y-45720641D01*
X109059437Y-45630457D01*
X108870522Y-45569075D01*
X108674321Y-45538000D01*
X108475679Y-45538000D01*
X108279479Y-45569075D01*
X108279476Y-45569075D01*
X108090562Y-45630457D01*
X107913564Y-45720643D01*
X107876283Y-45747729D01*
X107876282Y-45747730D01*
X108490906Y-46362352D01*
X108403429Y-46385792D01*
X108302070Y-46444311D01*
X108219311Y-46527070D01*
X108160792Y-46628429D01*
X108137352Y-46715905D01*
X107522730Y-46101282D01*
X107522729Y-46101283D01*
X107495643Y-46138564D01*
X107405457Y-46315562D01*
X107344075Y-46504476D01*
X107344075Y-46504479D01*
X107313000Y-46700678D01*
X102289541Y-46700678D01*
X102234029Y-46617598D01*
X102234026Y-46617594D01*
X102102405Y-46485973D01*
X102102401Y-46485970D01*
X101947631Y-46382555D01*
X101947622Y-46382550D01*
X101775646Y-46311316D01*
X101775638Y-46311314D01*
X101593077Y-46275000D01*
X101593074Y-46275000D01*
X101406926Y-46275000D01*
X101406923Y-46275000D01*
X101224361Y-46311314D01*
X101224353Y-46311316D01*
X101052377Y-46382550D01*
X101052368Y-46382555D01*
X100897598Y-46485970D01*
X100897594Y-46485973D01*
X100765973Y-46617594D01*
X100765970Y-46617598D01*
X100662555Y-46772368D01*
X100662550Y-46772377D01*
X100591316Y-46944353D01*
X100591314Y-46944361D01*
X100555000Y-47126921D01*
X84000500Y-47126921D01*
X84000500Y-44586921D01*
X100555000Y-44586921D01*
X100555000Y-44773078D01*
X100591314Y-44955638D01*
X100591316Y-44955646D01*
X100662550Y-45127622D01*
X100662555Y-45127631D01*
X100765970Y-45282401D01*
X100765973Y-45282405D01*
X100897594Y-45414026D01*
X100897598Y-45414029D01*
X101052368Y-45517444D01*
X101052374Y-45517447D01*
X101052375Y-45517448D01*
X101224354Y-45588684D01*
X101406921Y-45624999D01*
X101406924Y-45625000D01*
X101406926Y-45625000D01*
X101593076Y-45625000D01*
X101593077Y-45624999D01*
X101775646Y-45588684D01*
X101947625Y-45517448D01*
X102102402Y-45414029D01*
X102234029Y-45282402D01*
X102337448Y-45127625D01*
X102408684Y-44955646D01*
X102445000Y-44773074D01*
X102445000Y-44586926D01*
X102445000Y-44586923D01*
X102444999Y-44586921D01*
X115795000Y-44586921D01*
X115795000Y-44773078D01*
X115831314Y-44955638D01*
X115831316Y-44955646D01*
X115902550Y-45127622D01*
X115902555Y-45127631D01*
X116005970Y-45282401D01*
X116005973Y-45282405D01*
X116137594Y-45414026D01*
X116137598Y-45414029D01*
X116292368Y-45517444D01*
X116292374Y-45517447D01*
X116292375Y-45517448D01*
X116464354Y-45588684D01*
X116646921Y-45624999D01*
X116646924Y-45625000D01*
X116646926Y-45625000D01*
X116833076Y-45625000D01*
X116833077Y-45624999D01*
X117015646Y-45588684D01*
X117187625Y-45517448D01*
X117342402Y-45414029D01*
X117474029Y-45282402D01*
X117495794Y-45249829D01*
X117510247Y-45228199D01*
X117577444Y-45127631D01*
X117577444Y-45127630D01*
X117577448Y-45127625D01*
X117648684Y-44955646D01*
X117685000Y-44773074D01*
X117685000Y-44586926D01*
X117685000Y-44586923D01*
X117684999Y-44586921D01*
X117666939Y-44496129D01*
X117648684Y-44404354D01*
X117577448Y-44232375D01*
X117577447Y-44232374D01*
X117577444Y-44232368D01*
X117474029Y-44077598D01*
X117474026Y-44077594D01*
X117342405Y-43945973D01*
X117342401Y-43945970D01*
X117187631Y-43842555D01*
X117187618Y-43842548D01*
X117108000Y-43809570D01*
X117107999Y-43809570D01*
X117015646Y-43771316D01*
X117015638Y-43771314D01*
X116833077Y-43735000D01*
X116833074Y-43735000D01*
X116646926Y-43735000D01*
X116646923Y-43735000D01*
X116464361Y-43771314D01*
X116464353Y-43771316D01*
X116292377Y-43842550D01*
X116292368Y-43842555D01*
X116137598Y-43945970D01*
X116137594Y-43945973D01*
X116005973Y-44077594D01*
X116005970Y-44077598D01*
X115902555Y-44232368D01*
X115902550Y-44232377D01*
X115831316Y-44404353D01*
X115831314Y-44404361D01*
X115795000Y-44586921D01*
X102444999Y-44586921D01*
X102426939Y-44496129D01*
X102408684Y-44404354D01*
X102337448Y-44232375D01*
X102337447Y-44232374D01*
X102337444Y-44232368D01*
X102234029Y-44077598D01*
X102234026Y-44077594D01*
X102102405Y-43945973D01*
X102102401Y-43945970D01*
X101947631Y-43842555D01*
X101947622Y-43842550D01*
X101775646Y-43771316D01*
X101775638Y-43771314D01*
X101593077Y-43735000D01*
X101593074Y-43735000D01*
X101406926Y-43735000D01*
X101406923Y-43735000D01*
X101224361Y-43771314D01*
X101224353Y-43771316D01*
X101052377Y-43842550D01*
X101052368Y-43842555D01*
X100897598Y-43945970D01*
X100897594Y-43945973D01*
X100765973Y-44077594D01*
X100765970Y-44077598D01*
X100662555Y-44232368D01*
X100662550Y-44232377D01*
X100591316Y-44404353D01*
X100591314Y-44404361D01*
X100555000Y-44586921D01*
X84000500Y-44586921D01*
X84000500Y-42590678D01*
X119238000Y-42590678D01*
X119238000Y-42789321D01*
X119269075Y-42985520D01*
X119269075Y-42985523D01*
X119330457Y-43174437D01*
X119420641Y-43351432D01*
X119447730Y-43388715D01*
X119447731Y-43388716D01*
X120062352Y-42774094D01*
X120085792Y-42861571D01*
X120144311Y-42962930D01*
X120227070Y-43045689D01*
X120328429Y-43104208D01*
X120415905Y-43127647D01*
X119801283Y-43742268D01*
X119801283Y-43742269D01*
X119838567Y-43769358D01*
X120015562Y-43859542D01*
X120204477Y-43920924D01*
X120400679Y-43952000D01*
X120599321Y-43952000D01*
X120795520Y-43920924D01*
X120795523Y-43920924D01*
X120984437Y-43859542D01*
X121161425Y-43769362D01*
X121198715Y-43742268D01*
X121125468Y-43669021D01*
X122931600Y-43669021D01*
X122931600Y-43855178D01*
X122967914Y-44037738D01*
X122967916Y-44037746D01*
X123039150Y-44209722D01*
X123039155Y-44209731D01*
X123142570Y-44364501D01*
X123142573Y-44364505D01*
X123274194Y-44496126D01*
X123274198Y-44496129D01*
X123428968Y-44599544D01*
X123428974Y-44599547D01*
X123428975Y-44599548D01*
X123600954Y-44670784D01*
X123783521Y-44707099D01*
X123783524Y-44707100D01*
X123783526Y-44707100D01*
X123969676Y-44707100D01*
X123969677Y-44707099D01*
X124152246Y-44670784D01*
X124324225Y-44599548D01*
X124479002Y-44496129D01*
X124610629Y-44364502D01*
X124714048Y-44209725D01*
X124785284Y-44037746D01*
X124821600Y-43855174D01*
X124821600Y-43669026D01*
X124821600Y-43669023D01*
X124821599Y-43669021D01*
X124785285Y-43486461D01*
X124785284Y-43486454D01*
X124714048Y-43314475D01*
X124714047Y-43314474D01*
X124714044Y-43314468D01*
X124610629Y-43159698D01*
X124610626Y-43159694D01*
X124479005Y-43028073D01*
X124479001Y-43028070D01*
X124324231Y-42924655D01*
X124324222Y-42924650D01*
X124152246Y-42853416D01*
X124152238Y-42853414D01*
X123969677Y-42817100D01*
X123969674Y-42817100D01*
X123783526Y-42817100D01*
X123783523Y-42817100D01*
X123600961Y-42853414D01*
X123600953Y-42853416D01*
X123428977Y-42924650D01*
X123428968Y-42924655D01*
X123274198Y-43028070D01*
X123274194Y-43028073D01*
X123142573Y-43159694D01*
X123142570Y-43159698D01*
X123039155Y-43314468D01*
X123039150Y-43314477D01*
X122967916Y-43486453D01*
X122967914Y-43486461D01*
X122931600Y-43669021D01*
X121125468Y-43669021D01*
X120584095Y-43127647D01*
X120671571Y-43104208D01*
X120772930Y-43045689D01*
X120855689Y-42962930D01*
X120914208Y-42861571D01*
X120937647Y-42774094D01*
X121552268Y-43388715D01*
X121579362Y-43351425D01*
X121669542Y-43174437D01*
X121730924Y-42985523D01*
X121730924Y-42985520D01*
X121762000Y-42789321D01*
X121762000Y-42590678D01*
X121730924Y-42394479D01*
X121730924Y-42394476D01*
X121669542Y-42205562D01*
X121579358Y-42028567D01*
X121552268Y-41991283D01*
X120937647Y-42605904D01*
X120914208Y-42518429D01*
X120855689Y-42417070D01*
X120772930Y-42334311D01*
X120671571Y-42275792D01*
X120584094Y-42252352D01*
X121198716Y-41637731D01*
X121198715Y-41637730D01*
X121161432Y-41610641D01*
X120984437Y-41520457D01*
X120795522Y-41459075D01*
X120599321Y-41428000D01*
X120400679Y-41428000D01*
X120204479Y-41459075D01*
X120204476Y-41459075D01*
X120015562Y-41520457D01*
X119838564Y-41610643D01*
X119801283Y-41637729D01*
X119801282Y-41637730D01*
X120415906Y-42252352D01*
X120328429Y-42275792D01*
X120227070Y-42334311D01*
X120144311Y-42417070D01*
X120085792Y-42518429D01*
X120062352Y-42605905D01*
X119447730Y-41991282D01*
X119447729Y-41991283D01*
X119420643Y-42028564D01*
X119330457Y-42205562D01*
X119269075Y-42394476D01*
X119269075Y-42394479D01*
X119238000Y-42590678D01*
X84000500Y-42590678D01*
X84000500Y-39113921D01*
X108325000Y-39113921D01*
X108325000Y-39300078D01*
X108361314Y-39482638D01*
X108361316Y-39482646D01*
X108432550Y-39654622D01*
X108432555Y-39654631D01*
X108535970Y-39809401D01*
X108535973Y-39809405D01*
X108667594Y-39941026D01*
X108667598Y-39941029D01*
X108822368Y-40044444D01*
X108822374Y-40044447D01*
X108822375Y-40044448D01*
X108994354Y-40115684D01*
X109176921Y-40151999D01*
X109176924Y-40152000D01*
X109176926Y-40152000D01*
X109363076Y-40152000D01*
X109363077Y-40151999D01*
X109545646Y-40115684D01*
X109717625Y-40044448D01*
X109872402Y-39941029D01*
X110004029Y-39809402D01*
X110107448Y-39654625D01*
X110178684Y-39482646D01*
X110215000Y-39300074D01*
X110215000Y-39113926D01*
X110215000Y-39113923D01*
X110214999Y-39113921D01*
X110178685Y-38931361D01*
X110178684Y-38931354D01*
X110107448Y-38759375D01*
X110107447Y-38759374D01*
X110107444Y-38759368D01*
X110004029Y-38604598D01*
X110004026Y-38604594D01*
X109872405Y-38472973D01*
X109872401Y-38472970D01*
X109717631Y-38369555D01*
X109717622Y-38369550D01*
X109545646Y-38298316D01*
X109545638Y-38298314D01*
X109363077Y-38262000D01*
X109363074Y-38262000D01*
X109176926Y-38262000D01*
X109176923Y-38262000D01*
X108994361Y-38298314D01*
X108994353Y-38298316D01*
X108822377Y-38369550D01*
X108822368Y-38369555D01*
X108667598Y-38472970D01*
X108667594Y-38472973D01*
X108535973Y-38604594D01*
X108535970Y-38604598D01*
X108432555Y-38759368D01*
X108432550Y-38759377D01*
X108361316Y-38931353D01*
X108361314Y-38931361D01*
X108325000Y-39113921D01*
X84000500Y-39113921D01*
X84000500Y-36567678D01*
X108008000Y-36567678D01*
X108008000Y-36766321D01*
X108039075Y-36962520D01*
X108039075Y-36962523D01*
X108100457Y-37151437D01*
X108190641Y-37328432D01*
X108217730Y-37365715D01*
X108217731Y-37365716D01*
X108832352Y-36751094D01*
X108855792Y-36838571D01*
X108914311Y-36939930D01*
X108997070Y-37022689D01*
X109098429Y-37081208D01*
X109185905Y-37104647D01*
X108571283Y-37719268D01*
X108571283Y-37719269D01*
X108608567Y-37746358D01*
X108785562Y-37836542D01*
X108974477Y-37897924D01*
X109170679Y-37929000D01*
X109369321Y-37929000D01*
X109565520Y-37897924D01*
X109565523Y-37897924D01*
X109754437Y-37836542D01*
X109931425Y-37746362D01*
X109968716Y-37719268D01*
X109660752Y-37411304D01*
X113392000Y-37411304D01*
X113392000Y-37588695D01*
X113426603Y-37762658D01*
X113426606Y-37762667D01*
X113494483Y-37926540D01*
X113494490Y-37926553D01*
X113593035Y-38074034D01*
X113593038Y-38074038D01*
X113718461Y-38199461D01*
X113718465Y-38199464D01*
X113865946Y-38298009D01*
X113865959Y-38298016D01*
X113988863Y-38348923D01*
X114029834Y-38365894D01*
X114029836Y-38365894D01*
X114029841Y-38365896D01*
X114203804Y-38400499D01*
X114203807Y-38400500D01*
X114203809Y-38400500D01*
X114381193Y-38400500D01*
X114381194Y-38400499D01*
X114439182Y-38388964D01*
X114555158Y-38365896D01*
X114555161Y-38365894D01*
X114555166Y-38365894D01*
X114695035Y-38307958D01*
X114719040Y-38298016D01*
X114719040Y-38298015D01*
X114719047Y-38298013D01*
X114866535Y-38199464D01*
X114991964Y-38074035D01*
X115090513Y-37926547D01*
X115158394Y-37762666D01*
X115167027Y-37719269D01*
X115192999Y-37588695D01*
X115193000Y-37588693D01*
X115193000Y-37411306D01*
X115192999Y-37411304D01*
X115158396Y-37237341D01*
X115158393Y-37237332D01*
X115090516Y-37073459D01*
X115090509Y-37073446D01*
X114991964Y-36925965D01*
X114991961Y-36925961D01*
X114866538Y-36800538D01*
X114866534Y-36800535D01*
X114719053Y-36701990D01*
X114719040Y-36701983D01*
X114555167Y-36634106D01*
X114555158Y-36634103D01*
X114381194Y-36599500D01*
X114381191Y-36599500D01*
X114203809Y-36599500D01*
X114203806Y-36599500D01*
X114029841Y-36634103D01*
X114029832Y-36634106D01*
X113865959Y-36701983D01*
X113865946Y-36701990D01*
X113718465Y-36800535D01*
X113718461Y-36800538D01*
X113593038Y-36925961D01*
X113593035Y-36925965D01*
X113494490Y-37073446D01*
X113494483Y-37073459D01*
X113426606Y-37237332D01*
X113426603Y-37237341D01*
X113392000Y-37411304D01*
X109660752Y-37411304D01*
X109354095Y-37104647D01*
X109441571Y-37081208D01*
X109542930Y-37022689D01*
X109625689Y-36939930D01*
X109684208Y-36838571D01*
X109707647Y-36751094D01*
X110322268Y-37365715D01*
X110346526Y-37332330D01*
X110346528Y-37332328D01*
X110346529Y-37332326D01*
X110349361Y-37328427D01*
X110439542Y-37151437D01*
X110500924Y-36962523D01*
X110500924Y-36962520D01*
X110532000Y-36766321D01*
X110532000Y-36567678D01*
X110500924Y-36371479D01*
X110500924Y-36371476D01*
X110439542Y-36182562D01*
X110353000Y-36012714D01*
X110352999Y-36012710D01*
X110349363Y-36005575D01*
X110349360Y-36005569D01*
X110322268Y-35968283D01*
X109707647Y-36582904D01*
X109684208Y-36495429D01*
X109625689Y-36394070D01*
X109542930Y-36311311D01*
X109441571Y-36252792D01*
X109354094Y-36229352D01*
X109968716Y-35614731D01*
X109968715Y-35614730D01*
X109931432Y-35587641D01*
X109754437Y-35497457D01*
X109565522Y-35436075D01*
X109369321Y-35405000D01*
X109170679Y-35405000D01*
X108974479Y-35436075D01*
X108974476Y-35436075D01*
X108785562Y-35497457D01*
X108608564Y-35587643D01*
X108571283Y-35614729D01*
X108571282Y-35614730D01*
X109185906Y-36229352D01*
X109098429Y-36252792D01*
X108997070Y-36311311D01*
X108914311Y-36394070D01*
X108855792Y-36495429D01*
X108832352Y-36582905D01*
X108217730Y-35968282D01*
X108217729Y-35968283D01*
X108190643Y-36005564D01*
X108100457Y-36182562D01*
X108039075Y-36371476D01*
X108039075Y-36371479D01*
X108008000Y-36567678D01*
X84000500Y-36567678D01*
X84000500Y-34033921D01*
X108325000Y-34033921D01*
X108325000Y-34220078D01*
X108361314Y-34402638D01*
X108361316Y-34402646D01*
X108432550Y-34574622D01*
X108432555Y-34574631D01*
X108535970Y-34729401D01*
X108535973Y-34729405D01*
X108667594Y-34861026D01*
X108667598Y-34861029D01*
X108822368Y-34964444D01*
X108822374Y-34964447D01*
X108822375Y-34964448D01*
X108994354Y-35035684D01*
X109176921Y-35071999D01*
X109176924Y-35072000D01*
X109176926Y-35072000D01*
X109363076Y-35072000D01*
X109363077Y-35071999D01*
X109545646Y-35035684D01*
X109717625Y-34964448D01*
X109871522Y-34861617D01*
X113042500Y-34861617D01*
X113042500Y-35058382D01*
X113073278Y-35252705D01*
X113134081Y-35439835D01*
X113223405Y-35615145D01*
X113248819Y-35650125D01*
X113248820Y-35650125D01*
X113892500Y-35006445D01*
X113892500Y-35012661D01*
X113919759Y-35114394D01*
X113972420Y-35205606D01*
X114046894Y-35280080D01*
X114138106Y-35332741D01*
X114239839Y-35360000D01*
X114246053Y-35360000D01*
X113602373Y-36003677D01*
X113602373Y-36003678D01*
X113637358Y-36029096D01*
X113812664Y-36118418D01*
X113999794Y-36179221D01*
X114194118Y-36210000D01*
X114390882Y-36210000D01*
X114585205Y-36179221D01*
X114772335Y-36118418D01*
X114947643Y-36029095D01*
X114982625Y-36003678D01*
X114982626Y-36003678D01*
X114338948Y-35360000D01*
X114345161Y-35360000D01*
X114446894Y-35332741D01*
X114538106Y-35280080D01*
X114612580Y-35205606D01*
X114665241Y-35114394D01*
X114692500Y-35012661D01*
X114692500Y-35006448D01*
X115336178Y-35650126D01*
X115336178Y-35650125D01*
X115361595Y-35615143D01*
X115450918Y-35439835D01*
X115511721Y-35252705D01*
X115542500Y-35058382D01*
X115542500Y-34861617D01*
X115511721Y-34667294D01*
X115450918Y-34480164D01*
X115361596Y-34304858D01*
X115336178Y-34269873D01*
X115336177Y-34269873D01*
X114692500Y-34913551D01*
X114692500Y-34907339D01*
X114665241Y-34805606D01*
X114612580Y-34714394D01*
X114538106Y-34639920D01*
X114446894Y-34587259D01*
X114345161Y-34560000D01*
X114338947Y-34560000D01*
X114982625Y-33916320D01*
X114982625Y-33916319D01*
X114947645Y-33890905D01*
X114772335Y-33801581D01*
X114585205Y-33740778D01*
X114390882Y-33710000D01*
X114194118Y-33710000D01*
X113999794Y-33740778D01*
X113812661Y-33801582D01*
X113637363Y-33890899D01*
X113637359Y-33890902D01*
X113602373Y-33916320D01*
X113602372Y-33916320D01*
X114246054Y-34560000D01*
X114239839Y-34560000D01*
X114138106Y-34587259D01*
X114046894Y-34639920D01*
X113972420Y-34714394D01*
X113919759Y-34805606D01*
X113892500Y-34907339D01*
X113892500Y-34913552D01*
X113248820Y-34269872D01*
X113248820Y-34269873D01*
X113223402Y-34304859D01*
X113223399Y-34304863D01*
X113134082Y-34480161D01*
X113073278Y-34667294D01*
X113042500Y-34861617D01*
X109871522Y-34861617D01*
X109872402Y-34861029D01*
X109886770Y-34846661D01*
X109964362Y-34769070D01*
X110004026Y-34729405D01*
X110004029Y-34729402D01*
X110107448Y-34574625D01*
X110178684Y-34402646D01*
X110215000Y-34220074D01*
X110215000Y-34033926D01*
X110205819Y-33987770D01*
X110205819Y-33987767D01*
X110178685Y-33851359D01*
X110178684Y-33851358D01*
X110178684Y-33851354D01*
X110107448Y-33679375D01*
X110037879Y-33575258D01*
X137842000Y-33575258D01*
X137842000Y-33804741D01*
X137866097Y-33987767D01*
X137871952Y-34032238D01*
X137922283Y-34220078D01*
X137931342Y-34253887D01*
X138019150Y-34465876D01*
X138019157Y-34465890D01*
X138133892Y-34664617D01*
X138273581Y-34846661D01*
X138273589Y-34846670D01*
X138435830Y-35008911D01*
X138435838Y-35008918D01*
X138617882Y-35148607D01*
X138617885Y-35148608D01*
X138617888Y-35148611D01*
X138816612Y-35263344D01*
X138816617Y-35263346D01*
X138816623Y-35263349D01*
X138857016Y-35280080D01*
X139028613Y-35351158D01*
X139250262Y-35410548D01*
X139477766Y-35440500D01*
X139477773Y-35440500D01*
X139707227Y-35440500D01*
X139707234Y-35440500D01*
X139934738Y-35410548D01*
X140156387Y-35351158D01*
X140368388Y-35263344D01*
X140567112Y-35148611D01*
X140749161Y-35008919D01*
X140749165Y-35008914D01*
X140749170Y-35008911D01*
X140911411Y-34846670D01*
X140911414Y-34846665D01*
X140911419Y-34846661D01*
X141051111Y-34664612D01*
X141165844Y-34465888D01*
X141253658Y-34253887D01*
X141313048Y-34032238D01*
X141343000Y-33804734D01*
X141343000Y-33575266D01*
X141313048Y-33347762D01*
X141253658Y-33126113D01*
X141165844Y-32914112D01*
X141051111Y-32715388D01*
X141051108Y-32715385D01*
X141051107Y-32715382D01*
X140911418Y-32533338D01*
X140911411Y-32533330D01*
X140749170Y-32371089D01*
X140749161Y-32371081D01*
X140567117Y-32231392D01*
X140368390Y-32116657D01*
X140368376Y-32116650D01*
X140156387Y-32028842D01*
X139934738Y-31969452D01*
X139896715Y-31964446D01*
X139707241Y-31939500D01*
X139707234Y-31939500D01*
X139477766Y-31939500D01*
X139477758Y-31939500D01*
X139261215Y-31968009D01*
X139250262Y-31969452D01*
X139160714Y-31993446D01*
X139028612Y-32028842D01*
X138816623Y-32116650D01*
X138816609Y-32116657D01*
X138617882Y-32231392D01*
X138435838Y-32371081D01*
X138273581Y-32533338D01*
X138133892Y-32715382D01*
X138019157Y-32914109D01*
X138019150Y-32914123D01*
X137931342Y-33126112D01*
X137871953Y-33347759D01*
X137871951Y-33347770D01*
X137842000Y-33575258D01*
X110037879Y-33575258D01*
X110004029Y-33524598D01*
X110004026Y-33524594D01*
X109872405Y-33392973D01*
X109872401Y-33392970D01*
X109717631Y-33289555D01*
X109717622Y-33289550D01*
X109545646Y-33218316D01*
X109545638Y-33218314D01*
X109363077Y-33182000D01*
X109363074Y-33182000D01*
X109176926Y-33182000D01*
X109176923Y-33182000D01*
X108994361Y-33218314D01*
X108994353Y-33218316D01*
X108822377Y-33289550D01*
X108822368Y-33289555D01*
X108667598Y-33392970D01*
X108667594Y-33392973D01*
X108535973Y-33524594D01*
X108535970Y-33524598D01*
X108432555Y-33679368D01*
X108432550Y-33679377D01*
X108361316Y-33851353D01*
X108361314Y-33851361D01*
X108325000Y-34033921D01*
X84000500Y-34033921D01*
X84000500Y-31493921D01*
X108325000Y-31493921D01*
X108325000Y-31680078D01*
X108361314Y-31862638D01*
X108361316Y-31862646D01*
X108432550Y-32034622D01*
X108432555Y-32034631D01*
X108535970Y-32189401D01*
X108535973Y-32189405D01*
X108667594Y-32321026D01*
X108667598Y-32321029D01*
X108822368Y-32424444D01*
X108822374Y-32424447D01*
X108822375Y-32424448D01*
X108994354Y-32495684D01*
X109176921Y-32531999D01*
X109176924Y-32532000D01*
X109176926Y-32532000D01*
X109363076Y-32532000D01*
X109363077Y-32531999D01*
X109545646Y-32495684D01*
X109717625Y-32424448D01*
X109857024Y-32331304D01*
X113392000Y-32331304D01*
X113392000Y-32508695D01*
X113426603Y-32682658D01*
X113426606Y-32682667D01*
X113494483Y-32846540D01*
X113494490Y-32846553D01*
X113593035Y-32994034D01*
X113593038Y-32994038D01*
X113718461Y-33119461D01*
X113718465Y-33119464D01*
X113865946Y-33218009D01*
X113865959Y-33218016D01*
X113988863Y-33268923D01*
X114029834Y-33285894D01*
X114029836Y-33285894D01*
X114029841Y-33285896D01*
X114203804Y-33320499D01*
X114203807Y-33320500D01*
X114203809Y-33320500D01*
X114381193Y-33320500D01*
X114381194Y-33320499D01*
X114439182Y-33308964D01*
X114555158Y-33285896D01*
X114555161Y-33285894D01*
X114555166Y-33285894D01*
X114695035Y-33227958D01*
X114719040Y-33218016D01*
X114719040Y-33218015D01*
X114719047Y-33218013D01*
X114866535Y-33119464D01*
X114991964Y-32994035D01*
X115090513Y-32846547D01*
X115158394Y-32682666D01*
X115193000Y-32508691D01*
X115193000Y-32331309D01*
X115193000Y-32331306D01*
X115192999Y-32331304D01*
X115158396Y-32157341D01*
X115158393Y-32157332D01*
X115090516Y-31993459D01*
X115090509Y-31993446D01*
X114991964Y-31845965D01*
X114991961Y-31845961D01*
X114866538Y-31720538D01*
X114866534Y-31720535D01*
X114719053Y-31621990D01*
X114719040Y-31621983D01*
X114555167Y-31554106D01*
X114555158Y-31554103D01*
X114381194Y-31519500D01*
X114381191Y-31519500D01*
X114203809Y-31519500D01*
X114203806Y-31519500D01*
X114029841Y-31554103D01*
X114029832Y-31554106D01*
X113865959Y-31621983D01*
X113865946Y-31621990D01*
X113718465Y-31720535D01*
X113718461Y-31720538D01*
X113593038Y-31845961D01*
X113593035Y-31845965D01*
X113494490Y-31993446D01*
X113494483Y-31993459D01*
X113426606Y-32157332D01*
X113426603Y-32157341D01*
X113392000Y-32331304D01*
X109857024Y-32331304D01*
X109872402Y-32321029D01*
X109872405Y-32321026D01*
X109955896Y-32237536D01*
X110004026Y-32189405D01*
X110004029Y-32189402D01*
X110107448Y-32034625D01*
X110178684Y-31862646D01*
X110215000Y-31680074D01*
X110215000Y-31493926D01*
X110215000Y-31493923D01*
X110214999Y-31493921D01*
X110178685Y-31311361D01*
X110178684Y-31311354D01*
X110107448Y-31139375D01*
X110107447Y-31139374D01*
X110107444Y-31139368D01*
X110004029Y-30984598D01*
X110004026Y-30984594D01*
X109872405Y-30852973D01*
X109872401Y-30852970D01*
X109717631Y-30749555D01*
X109717622Y-30749550D01*
X109545646Y-30678316D01*
X109545638Y-30678314D01*
X109363077Y-30642000D01*
X109363074Y-30642000D01*
X109176926Y-30642000D01*
X109176923Y-30642000D01*
X108994361Y-30678314D01*
X108994353Y-30678316D01*
X108822377Y-30749550D01*
X108822368Y-30749555D01*
X108667598Y-30852970D01*
X108667594Y-30852973D01*
X108535973Y-30984594D01*
X108535970Y-30984598D01*
X108432555Y-31139368D01*
X108432550Y-31139377D01*
X108361316Y-31311353D01*
X108361314Y-31311361D01*
X108325000Y-31493921D01*
X84000500Y-31493921D01*
X84000500Y-28378711D01*
X85649500Y-28378711D01*
X85649500Y-28621288D01*
X85681161Y-28861785D01*
X85743947Y-29096104D01*
X85762161Y-29140076D01*
X85836776Y-29320212D01*
X85958064Y-29530289D01*
X85958066Y-29530292D01*
X85958067Y-29530293D01*
X86105733Y-29722736D01*
X86105739Y-29722743D01*
X86277256Y-29894260D01*
X86277262Y-29894265D01*
X86469711Y-30041936D01*
X86679788Y-30163224D01*
X86903900Y-30256054D01*
X87138211Y-30318838D01*
X87318586Y-30342584D01*
X87378711Y-30350500D01*
X87378712Y-30350500D01*
X87621289Y-30350500D01*
X87669388Y-30344167D01*
X87861789Y-30318838D01*
X88096100Y-30256054D01*
X88320212Y-30163224D01*
X88530289Y-30041936D01*
X88722738Y-29894265D01*
X88894265Y-29722738D01*
X89041936Y-29530289D01*
X89163224Y-29320212D01*
X89256054Y-29096100D01*
X89294151Y-28953921D01*
X108325000Y-28953921D01*
X108325000Y-29140078D01*
X108361314Y-29322638D01*
X108361316Y-29322646D01*
X108432550Y-29494622D01*
X108432555Y-29494631D01*
X108535970Y-29649401D01*
X108535973Y-29649405D01*
X108667594Y-29781026D01*
X108667598Y-29781029D01*
X108822368Y-29884444D01*
X108822374Y-29884447D01*
X108822375Y-29884448D01*
X108994354Y-29955684D01*
X109176921Y-29991999D01*
X109176924Y-29992000D01*
X109176926Y-29992000D01*
X109363076Y-29992000D01*
X109363077Y-29991999D01*
X109545646Y-29955684D01*
X109717625Y-29884448D01*
X109857024Y-29791304D01*
X113392000Y-29791304D01*
X113392000Y-29968695D01*
X113426603Y-30142658D01*
X113426606Y-30142667D01*
X113494483Y-30306540D01*
X113494490Y-30306553D01*
X113593035Y-30454034D01*
X113593038Y-30454038D01*
X113718461Y-30579461D01*
X113718465Y-30579464D01*
X113865946Y-30678009D01*
X113865959Y-30678016D01*
X113988863Y-30728923D01*
X114029834Y-30745894D01*
X114029836Y-30745894D01*
X114029841Y-30745896D01*
X114203804Y-30780499D01*
X114203807Y-30780500D01*
X114203809Y-30780500D01*
X114381193Y-30780500D01*
X114381194Y-30780499D01*
X114439182Y-30768964D01*
X114555158Y-30745896D01*
X114555161Y-30745894D01*
X114555166Y-30745894D01*
X114695035Y-30687958D01*
X114719040Y-30678016D01*
X114719040Y-30678015D01*
X114719047Y-30678013D01*
X114866535Y-30579464D01*
X114991964Y-30454035D01*
X115090513Y-30306547D01*
X115158394Y-30142666D01*
X115193000Y-29968691D01*
X115193000Y-29791309D01*
X115193000Y-29791306D01*
X115192999Y-29791304D01*
X115158396Y-29617341D01*
X115158393Y-29617332D01*
X115090516Y-29453459D01*
X115090509Y-29453446D01*
X114991964Y-29305965D01*
X114991961Y-29305961D01*
X114866538Y-29180538D01*
X114866534Y-29180535D01*
X114719053Y-29081990D01*
X114719040Y-29081983D01*
X114555167Y-29014106D01*
X114555158Y-29014103D01*
X114381194Y-28979500D01*
X114381191Y-28979500D01*
X114203809Y-28979500D01*
X114203806Y-28979500D01*
X114029841Y-29014103D01*
X114029832Y-29014106D01*
X113865959Y-29081983D01*
X113865946Y-29081990D01*
X113718465Y-29180535D01*
X113718461Y-29180538D01*
X113593038Y-29305961D01*
X113593035Y-29305965D01*
X113494490Y-29453446D01*
X113494483Y-29453459D01*
X113426606Y-29617332D01*
X113426603Y-29617341D01*
X113392000Y-29791304D01*
X109857024Y-29791304D01*
X109872402Y-29781029D01*
X109872405Y-29781026D01*
X109955896Y-29697536D01*
X110004026Y-29649405D01*
X110004029Y-29649402D01*
X110107448Y-29494625D01*
X110178684Y-29322646D01*
X110215000Y-29140074D01*
X110215000Y-28953926D01*
X110215000Y-28953923D01*
X110214999Y-28953921D01*
X110178685Y-28771361D01*
X110178684Y-28771354D01*
X110107448Y-28599375D01*
X110107447Y-28599374D01*
X110107444Y-28599368D01*
X110004029Y-28444597D01*
X109938143Y-28378711D01*
X143649500Y-28378711D01*
X143649500Y-28621288D01*
X143681161Y-28861785D01*
X143743947Y-29096104D01*
X143762161Y-29140076D01*
X143836776Y-29320212D01*
X143958064Y-29530289D01*
X143958066Y-29530292D01*
X143958067Y-29530293D01*
X144105733Y-29722736D01*
X144105739Y-29722743D01*
X144277256Y-29894260D01*
X144277262Y-29894265D01*
X144469711Y-30041936D01*
X144679788Y-30163224D01*
X144903900Y-30256054D01*
X145138211Y-30318838D01*
X145318586Y-30342584D01*
X145378711Y-30350500D01*
X145378712Y-30350500D01*
X145621289Y-30350500D01*
X145669388Y-30344167D01*
X145861789Y-30318838D01*
X146096100Y-30256054D01*
X146320212Y-30163224D01*
X146530289Y-30041936D01*
X146722738Y-29894265D01*
X146894265Y-29722738D01*
X147041936Y-29530289D01*
X147163224Y-29320212D01*
X147256054Y-29096100D01*
X147318838Y-28861789D01*
X147350500Y-28621288D01*
X147350500Y-28378712D01*
X147318838Y-28138211D01*
X147256054Y-27903900D01*
X147163224Y-27679788D01*
X147041936Y-27469711D01*
X146894265Y-27277262D01*
X146894260Y-27277256D01*
X146722743Y-27105739D01*
X146722736Y-27105733D01*
X146530293Y-26958067D01*
X146530292Y-26958066D01*
X146530289Y-26958064D01*
X146320212Y-26836776D01*
X146320205Y-26836773D01*
X146096104Y-26743947D01*
X145861785Y-26681161D01*
X145621289Y-26649500D01*
X145621288Y-26649500D01*
X145378712Y-26649500D01*
X145378711Y-26649500D01*
X145138214Y-26681161D01*
X144903895Y-26743947D01*
X144679794Y-26836773D01*
X144679785Y-26836777D01*
X144469706Y-26958067D01*
X144277263Y-27105733D01*
X144277256Y-27105739D01*
X144105739Y-27277256D01*
X144105733Y-27277263D01*
X143958067Y-27469706D01*
X143836777Y-27679785D01*
X143836773Y-27679794D01*
X143743947Y-27903895D01*
X143681161Y-28138214D01*
X143649500Y-28378711D01*
X109938143Y-28378711D01*
X109872405Y-28312973D01*
X109872401Y-28312970D01*
X109717631Y-28209555D01*
X109717622Y-28209550D01*
X109545646Y-28138316D01*
X109545638Y-28138314D01*
X109363077Y-28102000D01*
X109363074Y-28102000D01*
X109176926Y-28102000D01*
X109176923Y-28102000D01*
X108994361Y-28138314D01*
X108994353Y-28138316D01*
X108822377Y-28209550D01*
X108822368Y-28209555D01*
X108667598Y-28312970D01*
X108667594Y-28312973D01*
X108535973Y-28444594D01*
X108535970Y-28444598D01*
X108432555Y-28599368D01*
X108432550Y-28599377D01*
X108361316Y-28771353D01*
X108361314Y-28771361D01*
X108325000Y-28953921D01*
X89294151Y-28953921D01*
X89318838Y-28861789D01*
X89350500Y-28621288D01*
X89350500Y-28378712D01*
X89318838Y-28138211D01*
X89256054Y-27903900D01*
X89163224Y-27679788D01*
X89041936Y-27469711D01*
X88894265Y-27277262D01*
X88894260Y-27277256D01*
X88722743Y-27105739D01*
X88722736Y-27105733D01*
X88530293Y-26958067D01*
X88530292Y-26958066D01*
X88530289Y-26958064D01*
X88320212Y-26836776D01*
X88320205Y-26836773D01*
X88096104Y-26743947D01*
X87861785Y-26681161D01*
X87621289Y-26649500D01*
X87621288Y-26649500D01*
X87378712Y-26649500D01*
X87378711Y-26649500D01*
X87138214Y-26681161D01*
X86903895Y-26743947D01*
X86679794Y-26836773D01*
X86679785Y-26836777D01*
X86469706Y-26958067D01*
X86277263Y-27105733D01*
X86277256Y-27105739D01*
X86105739Y-27277256D01*
X86105733Y-27277263D01*
X85958067Y-27469706D01*
X85836777Y-27679785D01*
X85836773Y-27679794D01*
X85743947Y-27903895D01*
X85681161Y-28138214D01*
X85649500Y-28378711D01*
X84000500Y-28378711D01*
X84000500Y-25624500D01*
X84020185Y-25557461D01*
X84072989Y-25511706D01*
X84124500Y-25500500D01*
X148375500Y-25500500D01*
X148442539Y-25520185D01*
G37*
%TD.AperFunction*%
%TD*%
M02*
